<svg
    xmlns="http://www.w3.org/2000/svg"
    viewBox="0 0 18 12"
    id="vector">
    <path
        id="path"
        d="M 12.017 0.491 C 11.779 0.253 11.393 0.253 11.155 0.491 C 10.917 0.729 10.917 1.115 11.155 1.353 L 15.247 5.594 L 15.653 6 L 15.247 6.609 C 14.84 7.219 11.155 10.647 11.155 10.647 C 10.917 10.885 10.917 11.271 11.155 11.509 C 11.393 11.747 11.779 11.747 12.017 11.509 L 17.099 6.431 C 17.213 6.317 17.278 6.162 17.278 6 C 17.278 5.838 17.213 5.683 17.099 5.569 L 12.017 0.491 Z"
        fill="#000000"/>
    <path
        id="path_1"
        d="M 11.59 3.562 L 3.465 3.562"
        fill="#00000000"
        stroke="#000000"
        stroke-width="1.21875"
        stroke-linecap="round"/>
    <path
        id="path_2"
        d="M 11.59 3.563 L 11.59 1.125"
        fill="#00000000"
        stroke="#000000"
        stroke-width="1.21875"
        stroke-linecap="round"/>
    <path
        id="path_3"
        d="M 11.59 10.875 L 11.59 8.438"
        fill="#00000000"
        stroke="#000000"
        stroke-width="1.21875"
        stroke-linecap="round"/>
    <path
        id="path_4"
        d="M 3.465 7.828 C 3.129 7.828 2.856 8.101 2.856 8.438 C 2.856 8.774 3.129 9.047 3.465 9.047 L 3.465 7.828 Z M 11.59 7.828 L 3.465 7.828 L 3.465 9.047 L 11.59 9.047 L 11.59 7.828 Z"
        fill="#000000"/>
    <path
        id="path_5"
        d="M 1.028 5.391 C 0.691 5.391 0.418 5.663 0.418 6 C 0.418 6.336 0.691 6.609 1.028 6.609 L 1.028 5.391 Z M 11.59 5.392 L 1.028 5.391 L 1.028 6.609 L 11.59 6.61 L 11.59 5.392 Z"
        fill="#000000"/>
</svg>
