<svg
    xmlns="http://www.w3.org/2000/svg"
    viewBox="0 0 26 18"
    id="vector">
    <path
        id="path"
        d="M 26 5.589 C 26 5.286 25.765 5.001 25.423 5.001 L 22.301 5.001 C 22.19 5.001 22.085 5.052 22.017 5.14 L 22.016 5.14 L 21.332 6.012 L 20.702 5.15 C 20.633 5.055 20.524 5 20.409 5 L 11.322 5 C 11.171 5 11.034 5.095 10.981 5.24 L 10.488 6.567 L 9.957 5.231 C 9.901 5.092 9.767 5 9.619 5 L 3.007 5 C 2.854 5 2.718 5.097 2.665 5.242 L 0.023 12.502 C 0.007 12.545 0 12.588 0 12.631 L 0 2.503 C 0 1.121 1.117 0 2.493 0 L 23.507 0 C 24.884 0 26 1.126 26 2.503 L 26 5.589 Z M 26 5.589 L 26 15.497 C 26 16.879 24.883 18 23.507 18 L 2.493 18 C 1.116 18 0 16.874 0 15.497 L 0 12.631 C 0 12.826 0.156 13 0.365 13 L 3.426 13 C 3.583 13 3.723 12.898 3.771 12.746 L 4.101 11.737 L 4.742 11.737 L 5.107 12.756 C 5.159 12.903 5.296 13 5.449 13 L 20.208 13 C 20.319 13 20.423 12.95 20.493 12.862 L 21.255 11.902 L 22.023 12.863 C 22.093 12.95 22.197 13 22.307 13 L 25.325 13 C 25.8 13 26.071 12.449 25.785 12.063 L 23.518 8.99 L 25.875 5.948 C 25.961 5.838 26 5.712 26 5.589 Z M 24.115 6.231 L 21.99 8.972 L 24.056 11.769 L 22.708 11.769 L 21.25 9.948 L 19.804 11.769 L 14.745 11.769 L 14.745 6.231 L 19.984 6.231 L 21.298 8.03 L 22.708 6.231 L 24.115 6.231 Z M 15.871 8.334 L 18.541 8.334 L 18.541 9.456 L 15.871 9.456 L 15.871 10.648 L 18.541 10.648 L 18.541 11.452 L 20.519 8.924 L 18.541 6.41 L 18.541 7.353 L 15.871 7.353 L 15.871 8.335 L 15.871 8.334 Z M 13.737 6.231 L 13.737 11.769 L 12.61 11.769 L 12.61 7.329 L 11.001 11.769 L 9.94 11.769 L 8.339 7.26 L 8.339 11.769 L 6.04 11.769 L 5.586 10.508 L 3.226 10.508 L 2.816 11.769 L 1.579 11.769 L 3.595 6.231 L 5.314 6.231 L 7.212 11.601 L 7.212 6.231 L 9.048 6.231 L 10.525 9.946 L 11.906 6.231 L 13.737 6.231 Z M 3.596 9.386 L 5.197 9.386 L 4.425 7.142 L 3.596 9.386 L 3.596 9.386 Z"
        fill="#8e8e93"
        stroke="#00000000"
        stroke-width="1"/>
</svg>
