<svg width="16" height="16" viewBox="0 0 16 16" fill="none" xmlns="http://www.w3.org/2000/svg">
<path d="M6.62524 3C6.28007 3 6.00024 3.27982 6.00024 3.625V4.5359C5.57204 4.78312 5.19037 5.10933 4.87712 5.50078C4.31245 6.20641 4.00338 7.08247 4.00027 7.98622C3.99715 8.88996 4.30018 9.76813 4.85997 10.4776C5.17629 10.8786 5.56406 11.2123 6.00024 11.4641V12.375C6.00024 12.7202 6.28007 13 6.62524 13C6.97042 13 7.25024 12.7202 7.25024 12.375V11.9291C7.7481 12.0241 8.25696 12.0232 8.75 11.9291V12.375C8.75 12.7202 9.02982 13 9.375 13C9.72018 13 10 12.7202 10 12.375V11.4642C10.4508 11.204 10.8453 10.859 11.1623 10.4497C11.4327 10.1008 11.2649 9.61462 10.8692 9.41892C10.4735 9.22321 10.001 9.39943 9.68671 9.70947C9.49467 9.89893 9.27073 10.056 9.02321 10.1726C8.53235 10.4037 7.97768 10.4618 7.44958 10.3374C6.92149 10.2129 6.45109 9.91336 6.11502 9.48741C5.77896 9.06147 5.59704 8.53428 5.59891 7.99172C5.60078 7.44917 5.78633 6.92324 6.12532 6.49963C6.46431 6.07601 6.93677 5.77968 7.46571 5.65891C7.99465 5.53813 8.5489 5.60004 9.03816 5.83455C9.28487 5.9528 9.50772 6.11142 9.69845 6.3022C10.0106 6.61439 10.4819 6.79386 10.8789 6.60089C11.276 6.40792 11.4471 5.92295 11.1791 5.57212C10.8594 5.15346 10.459 4.8007 10 4.53575V3.625C10 3.27982 9.72018 3 9.375 3C9.02982 3 8.75 3.27982 8.75 3.625V4.07089C8.25712 3.97685 7.74827 3.97587 7.25024 4.07094V3.625C7.25024 3.27982 6.97042 3 6.62524 3Z" fill="black"/>
<path fill-rule="evenodd" clip-rule="evenodd" d="M16.0002 8C16.0002 12.4183 12.4185 16 8.00024 16C3.58197 16 0.000244141 12.4183 0.000244141 8C0.000244141 3.58172 3.58197 0 8.00024 0C12.4185 0 16.0002 3.58172 16.0002 8ZM14.5002 8C14.5002 11.5899 11.5901 14.5 8.00024 14.5C4.41039 14.5 1.50024 11.5899 1.50024 8C1.50024 4.41015 4.41039 1.5 8.00024 1.5C11.5901 1.5 14.5002 4.41015 14.5002 8Z" fill="black"/>
</svg>
