<svg width="72" height="72" viewBox="0 0 72 72" fill="none" xmlns="http://www.w3.org/2000/svg">
<rect width="72" height="72" fill="#F5F6F8"/>
<path fill-rule="evenodd" clip-rule="evenodd" d="M49.9954 36.3818C51.2184 35.298 52.0005 33.759 52.0005 32V31.8002C52.0005 31.1683 51.9374 30.5379 51.8122 29.9185L50.5514 23.6793L50.5459 23.6558C50.2987 22.6072 49.8475 21.6295 48.9977 20.9365C48.1403 20.2373 47.0893 20 46 20L26 20C24.9107 20 23.8596 20.2371 23.0021 20.9362C22.1522 21.6292 21.7008 22.6069 21.4536 23.6558L21.448 23.6793L20.1872 29.9185C20.0621 30.5379 19.999 31.1683 19.999 31.8002V32C19.999 33.7593 20.7813 35.2984 22.0046 36.3822C22.0015 36.4211 22 36.4603 22 36.5V47.5C22 49.9853 24.0147 52 26.5 52H45.5C47.9853 52 50 49.9853 50 47.5V36.5C50 36.4602 49.9984 36.4208 49.9954 36.3818ZM23.1278 30.5127L24.3788 24.3222C24.5402 23.6507 24.7487 23.383 24.8979 23.2614C25.041 23.1447 25.3285 23 26 23L30.2783 23L29.8383 31.6656V31.7037C29.8383 33.5197 28.3324 35.037 26.4187 35.037C24.4147 35.037 22.999 33.5607 22.999 32V31.8002C22.999 31.3678 23.0422 30.9366 23.1278 30.5127ZM32.8385 31.7385L33.2821 23L38.7173 23L39.161 31.7385C39.1432 33.623 37.6817 35.0371 35.9996 35.0371C34.3177 35.0371 32.8563 33.623 32.8385 31.7385ZM42.1612 31.6657L41.7212 23L46 23C46.6713 23 46.9586 23.1447 47.1017 23.2614C47.2508 23.383 47.4593 23.6508 47.6207 24.3222L48.8717 30.5127C48.9573 30.9365 49.0005 31.3679 49.0005 31.8002V32C49.0005 33.5607 47.5848 35.0371 45.5808 35.0371C43.6671 35.0371 42.1612 33.5197 42.1612 31.7037V31.6657ZM45.5808 38.0371C43.6324 38.0371 41.8742 37.1761 40.6926 35.8099C39.5689 37.1683 37.8937 38.0371 35.9996 38.0371C34.1056 38.0371 32.4305 37.1683 31.3069 35.8099C30.1252 37.176 28.3671 38.037 26.4187 38.037C25.9346 38.037 25.4593 37.9853 25 37.8867V43H47V37.8867C46.5405 37.9853 46.0651 38.0371 45.5808 38.0371ZM25 47.5V46H47V47.5C47 48.3284 46.3284 49 45.5 49H26.5C25.6716 49 25 48.3284 25 47.5Z" fill="#474E5A"/>
</svg>
