<svg
    xmlns="http://www.w3.org/2000/svg"
    viewBox="0 0 428 171"
    id="vector">
    <path
        id="path"
        d="M 28.1 156.27 C 22.8 156.27 20.1 153.66 20.1 149.37 C 20.1 141.37 29.02 138.68 45.29 136.95 C 45.29 147.61 38.08 156.27 28.05 156.27 Z M 35.1 96.32 C 23.47 96.32 10.1 101.79 2.84 107.58 L 9.47 121.58 C 15.29 116.25 24.7 111.69 33.19 111.69 C 41.26 111.69 45.72 114.39 45.72 119.83 C 45.72 123.48 42.77 125.33 37.19 126.06 C 16.33 128.76 -0.02 134.52 -0.02 150.59 C -0.02 163.33 9.05 171.04 23.22 171.04 C 33.34 171.04 42.34 165.42 46.62 158.04 L 46.62 169.04 L 65.48 169.04 L 65.48 122.95 C 65.48 103.95 52.29 96.28 35.11 96.28 Z"
        fill="#ffffff"
        fill-rule="evenodd"/>
    <path
        id="path_1"
        d="M 224.39 98.39 L 224.39 168.95 L 244.57 168.95 L 244.57 134.95 C 244.57 118.8 254.35 114.05 261.16 114.05 C 264.225 114.026 267.23 114.914 269.79 116.6 L 273.48 97.95 C 270.621 96.805 267.559 96.251 264.48 96.32 C 254.11 96.32 247.59 100.91 243.29 110.25 L 243.29 98.39 L 224.39 98.39"
        fill="#ffffff"
        fill-rule="evenodd"/>
    <path
        id="path_2"
        d="M 367 96.32 C 356.33 96.32 348.35 102.62 344.2 108.7 C 340.35 100.85 332.2 96.32 322.4 96.32 C 311.74 96.32 304.35 102.24 300.94 109.06 L 300.94 98.39 L 281.48 98.39 L 281.48 168.95 L 301.68 168.95 L 301.68 132.62 C 301.68 119.62 308.51 113.33 314.88 113.33 C 320.65 113.33 325.95 117.06 325.95 126.69 L 325.95 168.95 L 346.11 168.95 L 346.11 132.62 C 346.11 119.43 352.77 113.33 359.44 113.33 C 364.78 113.33 370.44 117.21 370.44 126.55 L 370.44 168.95 L 390.6 168.95 L 390.6 120.17 C 390.6 104.32 379.93 96.32 367.04 96.32"
        fill="#ffffff"
        fill-rule="evenodd"/>
    <path
        id="path_3"
        d="M 175.28 98.39 L 157 98.39 L 157 91.22 C 157 81.88 162.33 79.22 166.92 79.22 C 170.054 79.261 173.136 80.031 175.92 81.47 L 182.14 67.24 C 182.14 67.24 175.83 63.12 164.36 63.12 C 151.47 63.12 136.8 70.39 136.8 93.2 L 136.8 98.39 L 106.25 98.39 L 106.25 91.22 C 106.25 81.88 111.57 79.22 116.17 79.22 C 119.309 79.22 122.4 79.993 125.17 81.47 L 131.39 67.24 C 127.68 65.07 121.71 63.12 113.62 63.12 C 100.73 63.12 86.06 70.39 86.06 93.2 L 86.06 98.39 L 74.38 98.39 L 74.38 113.95 L 86.09 113.95 L 86.09 168.95 L 106.25 168.95 L 106.25 113.95 L 136.84 113.95 L 136.84 168.95 L 157 168.95 L 157 113.95 L 175.28 113.95 L 175.28 98.39"
        fill="#ffffff"
        fill-rule="evenodd"/>
    <path
        id="path_4"
        d="M 187.32 98.39 L 207.46 98.39 L 207.46 168.92 L 187.32 168.92 Z"
        fill="#ffffff"/>
    <path
        id="path_5"
        d="M 188.06 86.4 L 207.79 86.4 C 219.3 50.21 258.35 18.4 304.79 18.4 C 361.27 18.4 410.08 61.4 410.08 128.34 C 410.252 142.08 408.364 155.769 404.48 168.95 L 423.63 168.95 L 423.82 168.29 C 427.047 155.241 428.639 141.842 428.56 128.4 C 428.56 53.75 374.16 0.02 304.83 0.02 C 250.37 0.02 201.83 37.82 188.07 86.42 Z"
        fill="#ffffff"
        fill-rule="evenodd"/>
</svg>
