<svg xmlns="http://www.w3.org/2000/svg" width="20.00" height="16.00" viewBox="0 0 20 16">
  <path d="M0,2.81C0,2.366 0.28,2 0.623,2h18.754c0.343,0 0.623,0.365 0.623,0.81v10.38c0,0.445 -0.28,0.81 -0.623,0.81H0.623C0.28,14 0,13.635 0,13.19V2.81Z" fill="#F0A929" fill-rule="evenodd"/>
  <path d="M0,4h20v8H0V4Z" fill="#fff" fill-rule="evenodd"/>
  <path d="M16.943,6.227c-0.914,0 -1.66,0.754 -1.66,1.678 0,0.924 0.746,1.677 1.66,1.677 0.915,0 1.66,-0.753 1.66,-1.677s-0.745,-1.678 -1.66,-1.678ZM3.258,6.227c-0.915,0 -1.66,0.754 -1.66,1.678 0,0.924 0.745,1.677 1.66,1.677 0.914,0 1.66,-0.753 1.66,-1.677s-0.746,-1.678 -1.66,-1.678Z" fill="#E21C2A" fill-rule="evenodd"/>
  <path d="M16.813,4.75c-1.537,-0.035 -2.26,0.961 -3.308,2.19l-0.99,1.158 1.567,1.894c0.373,0.583 -0.34,1.16 -0.781,0.628l-1.449,-1.746 -1.41,1.653c-0.45,0.526 -1.155,-0.062 -0.773,-0.638l1.532,-1.8 -1.004,-1.21 0.646,-0.808 1.02,1.239 0.88,-1.034c0.432,-0.508 0.873,-1.18 1.444,-1.525L0,4.751v6.548h3.317c1.537,0 2.235,-0.928 3.255,-2.18l0.963,-1.182 -1.61,-1.858c-0.386,-0.573 0.313,-1.167 0.767,-0.645L8.18,7.146 9.553,5.46c0.438,-0.537 1.155,0.035 0.787,0.62L8.85,7.916l1.03,1.186 -0.65,0.777 -1.026,-1.17 -0.856,1.055c-0.42,0.517 -0.845,1.176 -1.408,1.535h14.053L19.993,4.751h-3.18ZM5.881,7.906c0,1.46 -1.178,2.65 -2.623,2.65 -1.445,0 -2.623,-1.19 -2.623,-2.65s1.178,-2.65 2.623,-2.65c1.445,0 2.623,1.19 2.623,2.65ZM16.944,10.556c-1.445,0 -2.624,-1.19 -2.624,-2.65s1.179,-2.65 2.623,-2.65c1.445,0 2.624,1.19 2.624,2.65s-1.178,2.65 -2.623,2.65Z" fill="#E21C2A" fill-rule="evenodd"/>
</svg>
