<svg width="16" height="16" viewBox="0 0 16 16" fill="none" xmlns="http://www.w3.org/2000/svg">
<g clip-path="url(#clip0_1_233)">
<path fill-rule="evenodd" clip-rule="evenodd" d="M8 16C12.4183 16 16 12.4183 16 8C16 3.58172 12.4183 0 8 0C3.58172 0 0 3.58172 0 8C0 12.4183 3.58172 16 8 16ZM7.5 3H6V4.5359C5.5718 4.78312 5.19013 5.10933 4.87688 5.50078C4.31221 6.20641 4.00314 7.08247 4.00002 7.98622C3.99691 8.88996 4.29993 9.76813 4.85972 10.4776C5.17604 10.8786 5.56381 11.2123 6 11.4641V13H7.5V11.9686C7.83308 12.0106 8.16904 12.0103 8.5 11.9686V13H10V11.4641C10.6816 11.0706 11.2343 10.4832 11.5855 9.77327L10.1525 9.06456C9.91195 9.55089 9.51383 9.94143 9.02297 10.1726C8.5321 10.4037 7.97744 10.4618 7.44934 10.3374C6.92124 10.2129 6.45084 9.91336 6.11478 9.48741C5.77872 9.06147 5.5968 8.53428 5.59867 7.99172C5.60054 7.44917 5.78609 6.92324 6.12508 6.49963C6.46407 6.07601 6.93652 5.77968 7.46546 5.65891C7.9944 5.53813 8.54866 5.60004 9.03791 5.83455C9.52717 6.06905 9.9226 6.46233 10.1598 6.9503L11.5976 6.25148C11.2473 5.53084 10.6899 4.93418 10 4.53589V3H8.5V4.03137C8.16911 3.98969 7.83315 3.98939 7.5 4.03137V3Z" fill="black"/>
</g>
<defs>
<clipPath id="clip0_1_233">
<rect width="16" height="16" fill="white"/>
</clipPath>
</defs>
</svg>
