<svg xmlns="http://www.w3.org/2000/svg" width="16.00" height="16.00" viewBox="0 0 16 16">
  <path d="M8,16C12.418,16 16,12.418 16,8C16,3.582 12.418,0 8,0C3.582,0 0,3.582 0,8C0,12.418 3.582,16 8,16ZM6.625,3C6.28,3 6,3.28 6,3.625V4.536C5.572,4.783 5.19,5.109 4.877,5.501C4.312,6.206 4.003,7.082 4,7.986C3.997,8.89 4.3,9.768 4.86,10.478C5.176,10.879 5.564,11.212 6,11.464V12.375C6,12.72 6.28,13 6.625,13C6.97,13 7.25,12.72 7.25,12.375V11.929C7.748,12.024 8.257,12.023 8.75,11.929V12.375C8.75,12.72 9.03,13 9.375,13C9.72,13 10,12.72 10,12.375V11.464C10.451,11.204 10.845,10.859 11.162,10.45C11.433,10.101 11.265,9.615 10.869,9.419C10.474,9.223 10.001,9.399 9.687,9.709C9.495,9.899 9.271,10.056 9.023,10.173C8.532,10.404 7.978,10.462 7.45,10.337C6.921,10.213 6.451,9.913 6.115,9.487C5.779,9.061 5.597,8.534 5.599,7.992C5.601,7.449 5.786,6.923 6.125,6.5C6.464,6.076 6.937,5.78 7.466,5.659C7.995,5.538 8.549,5.6 9.038,5.835C9.285,5.953 9.508,6.111 9.698,6.302C10.011,6.614 10.482,6.794 10.879,6.601C11.276,6.408 11.447,5.923 11.179,5.572C10.859,5.153 10.459,4.801 10,4.536V3.625C10,3.28 9.72,3 9.375,3C9.03,3 8.75,3.28 8.75,3.625V4.071C8.257,3.977 7.748,3.976 7.25,4.071V3.625C7.25,3.28 6.97,3 6.625,3Z" fill="#000000" fill-rule="evenodd"/>
</svg>
