<svg width="32" height="32" viewBox="0 0 32 32" fill="none" xmlns="http://www.w3.org/2000/svg">
<rect width="32" height="32" transform="translate(0 0.000244141)" fill="#FF5B24"/>
<path fill-rule="evenodd" clip-rule="evenodd" d="M19.9235 13.1744C21.3216 13.1744 22.5198 12.113 22.5198 10.5873H22.5201C22.5201 9.06132 21.3216 8.00024 19.9235 8.00024C18.5257 8.00024 17.3278 9.06132 17.3278 10.5873C17.3278 12.113 18.5257 13.1744 19.9235 13.1744ZM23.3185 17.3545C21.5873 19.6096 19.7568 21.1687 16.528 21.1687H16.5284C13.2342 21.1687 10.6708 19.1784 8.6739 16.2596C7.87482 15.0653 6.64331 14.8001 5.74453 15.4303C4.91256 16.0275 4.71335 17.288 5.47841 18.3828C8.24075 22.5955 12.0682 25.0497 16.528 25.0497C20.6223 25.0497 23.8177 23.0598 26.3136 19.7426C27.2453 18.5154 27.2121 17.255 26.3136 16.5583C25.4813 15.8942 24.2499 16.1274 23.3185 17.3545Z" fill="white"/>
</svg>
