<svg width="16" height="16" viewBox="0 0 16 16" fill="none" xmlns="http://www.w3.org/2000/svg">
<path fill-rule="evenodd" clip-rule="evenodd" d="M7.67394 0.0745863C7.87994 -0.0248621 8.12006 -0.0248621 8.32606 0.0745863L15.4347 3.50637C15.7804 3.67321 16 4.02314 16 4.40692V6C16 6.55228 15.5523 7 15 7H13.5V11.7865L15.4472 12.7601C15.786 12.9295 16 13.2757 16 13.6545V15C16 15.5523 15.5523 16 15 16H1C0.447715 16 0 15.5523 0 15V13.6553C0 13.2749 0.215857 12.9274 0.5569 12.7588L2.52673 11.7852L2.50361 7H1C0.447715 7 0 6.55228 0 6V4.40692C0 4.02314 0.219636 3.67321 0.565251 3.50637L7.67394 0.0745863ZM12 12.25V7H10.5V12.25C10.5 12.6642 10.1642 13 9.74996 13C9.33574 13 8.99996 12.6642 8.99996 12.25V7H7V12.25C7 12.6642 6.66421 13 6.25 13C5.83579 13 5.5 12.6642 5.5 12.25V7H4.00363L4.02897 12.2464C4.03036 12.533 3.86826 12.7954 3.61131 12.9224L1.5 13.9659V14.5H14.5V13.9635L12.4146 12.9208C12.1605 12.7938 12 12.5341 12 12.25ZM14.5 5.5V4.72075L8 1.58282L1.5 4.72075V5.5H14.5Z" fill="#474E5A"/>
</svg>
