<svg xmlns="http://www.w3.org/2000/svg" width="17" height="16" viewBox="0 0 17 16">
  <path d="M10.476,9.115a78.809,78.809 0,0 0,6.061 2.084c1.121,0.46 0,3.07 -1.184,2.531 -1.34,-0.577 -4.035,-1.757 -6.085,-2.766C8.128,12.289 6.338,14 3.788,14 1.522,14 0,12.682 0,10.719c0,-1.654 1.157,-3.324 3.74,-3.324 1.48,0 3,0.415 4.818,1.04 0.336,-0.666 0.616,-1.361 0.838,-2.078l-6.57,-0.003L2.826,5.353l3.379,0.008L6.205,4.05L2.088,4.05v-0.986l4.117,0.003L6.205,1.604c0,-0.383 0.208,-0.604 0.571,-0.604L8.5,1v2.073l4.08,0.003v0.977L8.5,4.053L8.5,5.37l3.339,0.009s-0.413,2.115 -1.361,3.736zM0.927,10.635v-0.001c0,0.94 0.741,1.89 2.545,1.89 1.393,0 2.757,-0.824 4.062,-2.45 -1.744,-0.862 -2.679,-1.277 -4.03,-1.277 -1.312,0 -2.577,0.631 -2.577,1.839z" fill="#1C9FE5"/>
</svg>
