<svg viewBox="0 0 16 16" fill="none" xmlns="http://www.w3.org/2000/svg" role="presentation" focusable="false">
  <path
    d="M0 2.564A2.562 2.562 0 0 1 2.563 0h10.875A2.562 2.562 0 0 1 16 2.564v10.872A2.563 2.563 0 0 1 13.437 16H2.563A2.563 2.563 0 0 1 0 13.437V2.564Z"
    fill="#fff" />
  <path
    d="M2.563 0A2.562 2.562 0 0 0 0 2.564v10.873A2.563 2.563 0 0 0 2.563 16h10.874A2.563 2.563 0 0 0 16 13.437v-.111c-.048-.02-4.158-1.735-6.248-2.74-1.41 1.735-3.227 2.787-5.115 2.787-3.192 0-4.276-2.793-2.764-4.632.33-.401.89-.784 1.76-.998 1.36-.335 3.527.208 5.557.878.365-.672.673-1.413.901-2.202H3.835v-.634h3.226V4.65H3.154v-.634H7.06v-1.62s0-.274.277-.274h1.577v1.894h3.863v.634H8.915v1.136h3.153a12.897 12.897 0 0 1-1.335 3.373c.957.346 1.816.674 2.456.889 2.135.714 2.734.801 2.811.81V2.565A2.562 2.562 0 0 0 13.438 0H2.563Zm1.755 8.669a4.773 4.773 0 0 0-.414.023c-.4.04-1.15.216-1.56.58-1.23 1.072-.494 3.032 1.995 3.032 1.447 0 2.893-.925 4.028-2.406-1.464-.714-2.725-1.244-4.05-1.23Z"
    fill="#00A1E9" />
</svg>