<svg xmlns="http://www.w3.org/2000/svg" width="50" height="51" viewBox="0 0 50 51">
  <path d="M9.727,49.954L7.385,49.954A7.408,7.408 0,0 1,0 42.565L0,15.642a93.13,93.13 0,0 1,18.235 -0.13L9.727,49.953ZM39.773,26.665c1.154,-4.773 -6.538,-9.184 -18.846,-10.853l-4.473,18.607c10.327,0.489 22.054,-2.619 23.315,-7.754M42.55,0L7.385,0A7.404,7.404 0,0 0,0.019 6.992c29.458,-0.83 43.785,9.416 41.539,19.616 -2.027,9.2 -11.373,12.727 -26.539,13.884l-2.273,9.447L42.55,49.939a7.408,7.408 0,0 0,7.385 -7.385L49.935,7.384A7.408,7.408 0,0 0,42.55 0Z" fill="#EE3E42"/>
</svg>
