<svg xmlns="http://www.w3.org/2000/svg" width="50" height="51" fill="none" focusable="false">
	<path fill="#EE3E42" d="M9.727 49.954H7.385A7.408 7.408 0 0 1 0 42.565V15.642a93.13 93.13 0 0 1 18.235-.13L9.727 49.953Zm30.046-23.289c1.154-4.773-6.538-9.184-18.846-10.853l-4.473 18.607c10.327.489 22.054-2.619 23.315-7.754M42.55 0H7.385A7.404 7.404 0 0 0 .019 6.992c29.458-.83 43.785 9.416 41.539 19.616-2.027 9.2-11.373 12.727-26.539 13.884l-2.273 9.447H42.55a7.408 7.408 0 0 0 7.385-7.385V7.384A7.408 7.408 0 0 0 42.55 0Z" />
</svg>
