<svg width="16" height="16" viewBox="0 0 16 16" fill="none" xmlns="http://www.w3.org/2000/svg">
<path fill-rule="evenodd" clip-rule="evenodd" d="M8 16C12.4183 16 16 12.4183 16 8C16 3.58172 12.4183 0 8 0C3.58172 0 0 3.58172 0 8C0 12.4183 3.58172 16 8 16ZM6.62524 3C6.28007 3 6.00024 3.27982 6.00024 3.625V4.53618C5.57224 4.78337 5.19074 5.10948 4.87761 5.50078C4.31294 6.20641 4.00387 7.08247 4.00076 7.98622C3.99764 8.88996 4.30067 9.76813 4.86046 10.4776C5.17666 10.8784 5.56426 11.212 6.00024 11.4638V12.375C6.00024 12.7202 6.28007 13 6.62524 13C6.97042 13 7.25024 12.7202 7.25024 12.375V11.929C7.74809 12.0241 8.25696 12.0232 8.75 11.9292V12.375C8.75 12.7202 9.02982 13 9.375 13C9.72018 13 10 12.7202 10 12.375V11.4645C10.451 11.2043 10.8457 10.8591 11.1628 10.4497C11.4332 10.1008 11.2654 9.61462 10.8697 9.41892C10.474 9.22321 10.0015 9.39943 9.6872 9.70947C9.49516 9.89893 9.27122 10.056 9.0237 10.1726C8.53284 10.4037 7.97817 10.4618 7.45007 10.3374C6.92198 10.2129 6.45158 9.91336 6.11551 9.48741C5.77945 9.06147 5.59753 8.53428 5.5994 7.99172C5.60127 7.44917 5.78682 6.92324 6.12581 6.49963C6.4648 6.07601 6.93725 5.77968 7.4662 5.65891C7.99514 5.53813 8.54939 5.60004 9.03865 5.83455C9.28536 5.9528 9.50821 6.11142 9.69894 6.3022C10.0111 6.61439 10.4824 6.79386 10.8794 6.60089C11.2765 6.40792 11.4476 5.92295 11.1796 5.57212C10.8598 5.15331 10.4592 4.80045 10 4.53547V3.625C10 3.27982 9.72018 3 9.375 3C9.02982 3 8.75 3.27982 8.75 3.625V4.0708C8.25711 3.97682 7.74826 3.9759 7.25024 4.07103V3.625C7.25024 3.27982 6.97042 3 6.62524 3Z" fill="#EBEBEB"/>
</svg>
