<svg xmlns="http://www.w3.org/2000/svg" viewBox="0 0 32 32"><g fill="none" fill-rule="evenodd"><path fill="#008ED5" d="M0 0h32v32H0z"/><path fill="#FFF" d="M11.73 20.01c-.62.6-1.34.9-2.08.9-1.56 0-2.68-1.08-2.68-2.57 0-1.49 1.12-2.57 2.68-2.57.74 0 1.46.31 2.08.9l.04.04 1-1.12-.03-.04A3.92 3.92 0 0 0 9.7 14.2c-1.22 0-2.35.38-3.16 1.08a3.9 3.9 0 0 0-1.34 3.06 3.9 3.9 0 0 0 1.34 3.07c.81.7 1.94 1.08 3.16 1.08 1.23 0 2.22-.45 3.05-1.36l.03-.03-1-1.12-.04.03zm3.81 2.32v-8h-1.76v8h1.76zm5.6-1.34c-.56 0-.82-.28-.82-.9v-4.25h1.8v-1.5h-1.8v-2.5l-1.73.87v1.63H17.1v1.5h1.5v4.52c0 1.23.78 2.07 1.95 2.1.8.01 1.27-.21 1.56-.37l.02-.01.42-1.55-.1.06c-.47.27-.9.4-1.3.4zm4.53 1.34v-8h-1.76v8h1.76zM19.71 9.51a8.9 8.9 0 0 0-7.02 3.4l-.08.1h2.03l.02-.02a7.26 7.26 0 0 1 10.1 0l.02.03h2.03l-.08-.11a8.9 8.9 0 0 0-7.02-3.4z"/></g></svg>