<svg width="24" height="25" viewBox="0 0 24 25" fill="none" xmlns="http://www.w3.org/2000/svg">
<rect y="0.5" width="24" height="24" rx="6" fill="#E6FFED"/>
<g opacity="0.9">
<path fill-rule="evenodd" clip-rule="evenodd" d="M12.75 11.75H17.25C17.6642 11.75 18 12.0858 18 12.5C18 12.9142 17.6642 13.25 17.25 13.25H12.75V17.75C12.75 18.1642 12.4142 18.5 12 18.5C11.5858 18.5 11.25 18.1642 11.25 17.75V13.25H6.75C6.33579 13.25 6 12.9142 6 12.5C6 12.0858 6.33579 11.75 6.75 11.75H11.25V7.25C11.25 6.83579 11.5858 6.5 12 6.5C12.4142 6.5 12.75 6.83579 12.75 7.25V11.75Z" fill="#008545"/>
</g>
</svg>
