<svg width="24" height="24" viewBox="0 0 24 24" fill="none" xmlns="http://www.w3.org/2000/svg">
<rect width="24" height="24" rx="6" fill="#344539"/>
<g opacity="0.9">
<path fill-rule="evenodd" clip-rule="evenodd" d="M12.75 11.25H17.25C17.6642 11.25 18 11.5858 18 12C18 12.4142 17.6642 12.75 17.25 12.75H12.75V17.25C12.75 17.6642 12.4142 18 12 18C11.5858 18 11.25 17.6642 11.25 17.25V12.75H6.75C6.33579 12.75 6 12.4142 6 12C6 11.5858 6.33579 11.25 6.75 11.25H11.25V6.75C11.25 6.33579 11.5858 6 12 6C12.4142 6 12.75 6.33579 12.75 6.75V11.25Z" fill="#00D66F"/>
</g>
</svg>
