<svg xmlns="http://www.w3.org/2000/svg" width="400" height="172.85" viewBox="0 0 400 172.85">
  <path d="M80.86,43.07c-8.62,0.82 -15.14,6.92 -18.7,17.51 -0.29,0.87 -4.71,16.63 -9.82,35.03 -5.11,18.4 -9.31,33.53 -9.34,33.62 -0.05,0.16 0.43,0.17 8.98,0.17h9.03l0.46,-1.39c3.15,-9.58 11.37,-15.6 21.3,-15.6 9.89,0 18.04,5.95 21.25,15.53l0.47,1.42 9.04,0.03c8.58,0.02 9.04,0.02 8.99,-0.15 -0.03,-0.09 -4.25,-15.27 -9.37,-33.72 -9.39,-33.78 -9.73,-34.98 -10.63,-37.2 -4.31,-10.65 -12.11,-16.14 -21.66,-15.23m55.47,43.94v42.38h17.77V44.63h-17.77v42.38m-52.16,-26.93c0.99,0.37 1.78,1.34 2.45,2.98 0.27,0.66 10.76,39.28 10.69,39.37 -0.01,0.02 -0.34,-0.23 -0.73,-0.56 -7.7,-6.46 -19.74,-6.47 -27.63,-0.03 -0.4,0.33 -0.74,0.58 -0.75,0.57 -0.04,-0.05 10.32,-38.36 10.56,-39.03 1.05,-2.99 3.02,-4.19 5.4,-3.3m114.46,1.4c-1.55,0.18 -2.16,0.27 -3.2,0.49 -10.54,2.15 -18.18,10.63 -20.37,22.6 -0.62,3.37 -0.58,2.08 -0.62,24.44l-0.03,20.39h17.87l0.03,-20.83c0.03,-19.64 0.04,-20.87 0.2,-21.56 1.35,-5.64 5.2,-8.76 10.76,-8.73 5.45,0.02 9.41,3.41 10.56,9.03 0.16,0.77 0.17,2.32 0.2,21.46l0.03,20.63h17.76l0.03,-20.58c0.04,-22.6 -0.01,-21 0.61,-23.02 3.03,-9.99 17.22,-10.15 20.5,-0.24 0.74,2.24 0.69,0.48 0.72,23.36l0.03,20.48h17.77l-0.03,-20.43c-0.03,-22.23 -0,-20.94 -0.57,-24.19 -2.48,-14.27 -12.64,-23.34 -26.13,-23.34 -9.1,0 -16.42,3.65 -21.26,10.61 -0.6,0.86 -0.54,0.85 -1,0.16 -3.75,-5.7 -9.8,-9.41 -17.17,-10.53 -0.95,-0.14 -5.86,-0.27 -6.7,-0.17m116.31,0.01c-20.25,2.15 -33.17,24.17 -26.85,45.79 7.36,25.16 36.88,32.24 51.71,12.4l0.58,-0.77 0.03,5.24 0.03,5.24h16.7V63.09h-17.77l-0.03,4.53 -0.03,4.53 -0.68,-0.83c-5.66,-6.89 -14.96,-10.75 -23.68,-9.83m10.19,16.92c10.52,2.28 16.69,13.31 13.23,23.68 -4.68,14.06 -22.69,16.66 -30.87,4.46 -7.36,-10.98 -1.01,-26.2 11.8,-28.28 1.31,-0.21 4.56,-0.14 5.84,0.14" fill="#FF000000" fill-rule="evenodd"/>
</svg>
