<?xml version="1.0" encoding="UTF-8"?>
<!--Generator: Apple Native CoreSVG 149-->
<!DOCTYPE svg
PUBLIC "-//W3C//DTD SVG 1.1//EN"
       "http://www.w3.org/Graphics/SVG/1.1/DTD/svg11.dtd">
<svg version="1.1" xmlns="http://www.w3.org/2000/svg" xmlns:xlink="http://www.w3.org/1999/xlink" width="3300" height="2200">
 <!--glyph: "uni100C0C.medium", point size: 100.000000, font version: "Version 16.0d12e3", template writer version: "8"-->
 <g id="Notes">
  <rect height="2200" id="artboard" style="fill:white;opacity:1" width="3300" x="0" y="0"/>
  <line id="" style="fill:none;stroke:black;opacity:1;stroke-width:0.5;" x1="263" x2="3036" y1="292" y2="292"/>
  <text style="stroke:none;fill:black;font-family:-apple-system,&quot;SF Pro Display&quot;,&quot;SF Pro Text&quot;,Helvetica,sans-serif;font-weight:bold;" transform="matrix(1 0 0 1 263 322)">Weight/Scale Variations</text>
  <text style="stroke:none;fill:black;font-family:-apple-system,&quot;SF Pro Display&quot;,&quot;SF Pro Text&quot;,Helvetica,sans-serif;text-anchor:middle;" transform="matrix(1 0 0 1 559.711 322)">Ultralight</text>
  <text style="stroke:none;fill:black;font-family:-apple-system,&quot;SF Pro Display&quot;,&quot;SF Pro Text&quot;,Helvetica,sans-serif;text-anchor:middle;" transform="matrix(1 0 0 1 856.422 322)">Thin</text>
  <text style="stroke:none;fill:black;font-family:-apple-system,&quot;SF Pro Display&quot;,&quot;SF Pro Text&quot;,Helvetica,sans-serif;text-anchor:middle;" transform="matrix(1 0 0 1 1153.13 322)">Light</text>
  <text style="stroke:none;fill:black;font-family:-apple-system,&quot;SF Pro Display&quot;,&quot;SF Pro Text&quot;,Helvetica,sans-serif;text-anchor:middle;" transform="matrix(1 0 0 1 1449.84 322)">Regular</text>
  <text style="stroke:none;fill:black;font-family:-apple-system,&quot;SF Pro Display&quot;,&quot;SF Pro Text&quot;,Helvetica,sans-serif;text-anchor:middle;" transform="matrix(1 0 0 1 1746.56 322)">Medium</text>
  <text style="stroke:none;fill:black;font-family:-apple-system,&quot;SF Pro Display&quot;,&quot;SF Pro Text&quot;,Helvetica,sans-serif;text-anchor:middle;" transform="matrix(1 0 0 1 2043.27 322)">Semibold</text>
  <text style="stroke:none;fill:black;font-family:-apple-system,&quot;SF Pro Display&quot;,&quot;SF Pro Text&quot;,Helvetica,sans-serif;text-anchor:middle;" transform="matrix(1 0 0 1 2339.98 322)">Bold</text>
  <text style="stroke:none;fill:black;font-family:-apple-system,&quot;SF Pro Display&quot;,&quot;SF Pro Text&quot;,Helvetica,sans-serif;text-anchor:middle;" transform="matrix(1 0 0 1 2636.69 322)">Heavy</text>
  <text style="stroke:none;fill:black;font-family:-apple-system,&quot;SF Pro Display&quot;,&quot;SF Pro Text&quot;,Helvetica,sans-serif;text-anchor:middle;" transform="matrix(1 0 0 1 2933.4 322)">Black</text>
  <line id="" style="fill:none;stroke:black;opacity:1;stroke-width:0.5;" x1="263" x2="3036" y1="1903" y2="1903"/>
  <g id="" transform="matrix(1 0 0 1 263 1933)">
   <path d="M9.24805 0.830078C13.5547 0.830078 17.1387-2.74414 17.1387-7.05078C17.1387-11.3574 13.5449-14.9316 9.23828-14.9316C4.94141-14.9316 1.36719-11.3574 1.36719-7.05078C1.36719-2.74414 4.95117 0.830078 9.24805 0.830078ZM9.24805-0.654297C5.70312-0.654297 2.87109-3.49609 2.87109-7.05078C2.87109-10.6055 5.69336-13.4473 9.23828-13.4473C12.793-13.4473 15.6348-10.6055 15.6445-7.05078C15.6543-3.49609 12.8027-0.654297 9.24805-0.654297ZM9.22852-3.62305C9.69727-3.62305 9.9707-3.93555 9.9707-4.45312L9.9707-6.31836L12.002-6.31836C12.5-6.31836 12.832-6.57227 12.832-7.04102C12.832-7.51953 12.5195-7.7832 12.002-7.7832L9.9707-7.7832L9.9707-9.81445C9.9707-10.332 9.69727-10.6543 9.22852-10.6543C8.75977-10.6543 8.50586-10.3125 8.50586-9.81445L8.50586-7.7832L6.49414-7.7832C5.97656-7.7832 5.64453-7.51953 5.64453-7.04102C5.64453-6.57227 5.99609-6.31836 6.49414-6.31836L8.50586-6.31836L8.50586-4.45312C8.50586-3.95508 8.75977-3.62305 9.22852-3.62305Z"/>
  </g>
  <g id="" transform="matrix(1 0 0 1 281.506 1933)">
   <path d="M11.709 2.91016C17.1582 2.91016 21.6699-1.61133 21.6699-7.05078C21.6699-12.5 17.1484-17.0117 11.6992-17.0117C6.25977-17.0117 1.74805-12.5 1.74805-7.05078C1.74805-1.61133 6.26953 2.91016 11.709 2.91016ZM11.709 1.25C7.09961 1.25 3.41797-2.44141 3.41797-7.05078C3.41797-11.6602 7.08984-15.3516 11.6992-15.3516C16.3086-15.3516 20-11.6602 20.0098-7.05078C20.0195-2.44141 16.3184 1.25 11.709 1.25ZM11.6797-2.66602C12.207-2.66602 12.5098-3.01758 12.5098-3.59375L12.5098-6.23047L15.3223-6.23047C15.8691-6.23047 16.25-6.51367 16.25-7.03125C16.25-7.55859 15.8887-7.86133 15.3223-7.86133L12.5098-7.86133L12.5098-10.6836C12.5098-11.25 12.207-11.6113 11.6797-11.6113C11.1621-11.6113 10.8789-11.2305 10.8789-10.6836L10.8789-7.86133L8.07617-7.86133C7.50977-7.86133 7.13867-7.55859 7.13867-7.03125C7.13867-6.51367 7.5293-6.23047 8.07617-6.23047L10.8789-6.23047L10.8789-3.59375C10.8789-3.03711 11.1621-2.66602 11.6797-2.66602Z"/>
  </g>
  <g id="" transform="matrix(1 0 0 1 304.924 1933)">
   <path d="M14.9707 5.66406C21.9336 5.66406 27.6953-0.0976562 27.6953-7.05078C27.6953-14.0137 21.9238-19.7754 14.9609-19.7754C8.00781-19.7754 2.25586-14.0137 2.25586-7.05078C2.25586-0.0976562 8.01758 5.66406 14.9707 5.66406ZM14.9707 3.84766C8.93555 3.84766 4.08203-1.01562 4.08203-7.05078C4.08203-13.0957 8.92578-17.9492 14.9609-17.9492C21.0059-17.9492 25.8594-13.0957 25.8691-7.05078C25.8789-1.01562 21.0156 3.84766 14.9707 3.84766ZM14.9414-1.38672C15.5176-1.38672 15.8594-1.77734 15.8594-2.38281L15.8594-6.13281L19.7754-6.13281C20.3711-6.13281 20.7812-6.46484 20.7812-7.02148C20.7812-7.59766 20.3906-7.93945 19.7754-7.93945L15.8594-7.93945L15.8594-11.8652C15.8594-12.4805 15.5176-12.8711 14.9414-12.8711C14.375-12.8711 14.0527-12.4609 14.0527-11.8652L14.0527-7.93945L10.1465-7.93945C9.53125-7.93945 9.13086-7.59766 9.13086-7.02148C9.13086-6.46484 9.55078-6.13281 10.1465-6.13281L14.0527-6.13281L14.0527-2.38281C14.0527-1.79688 14.375-1.38672 14.9414-1.38672Z"/>
  </g>
  <text style="stroke:none;fill:black;font-family:-apple-system,&quot;SF Pro Display&quot;,&quot;SF Pro Text&quot;,Helvetica,sans-serif;font-weight:bold;" transform="matrix(1 0 0 1 263 1953)">Design Variations</text>
  <text style="stroke:none;fill:black;font-family:-apple-system,&quot;SF Pro Display&quot;,&quot;SF Pro Text&quot;,Helvetica,sans-serif;" transform="matrix(1 0 0 1 263 1971)">Symbols are supported in up to nine weights and three scales.</text>
  <text style="stroke:none;fill:black;font-family:-apple-system,&quot;SF Pro Display&quot;,&quot;SF Pro Text&quot;,Helvetica,sans-serif;" transform="matrix(1 0 0 1 263 1989)">For optimal layout with text and other symbols, vertically align</text>
  <text style="stroke:none;fill:black;font-family:-apple-system,&quot;SF Pro Display&quot;,&quot;SF Pro Text&quot;,Helvetica,sans-serif;" transform="matrix(1 0 0 1 263 2007)">symbols with the adjacent text.</text>
  <line id="" style="fill:none;stroke:#00AEEF;stroke-width:0.5;opacity:1.0;" x1="776" x2="776" y1="1919" y2="1933"/>
  <g id="" transform="matrix(1 0 0 1 776 1933)">
   <path d="M3.31055 0.126953C3.82812 0.126953 4.08203-0.0683594 4.26758-0.605469L5.52734-4.0625L11.2891-4.0625L12.5488-0.605469C12.7344-0.0683594 12.9883 0.126953 13.4961 0.126953C14.0137 0.126953 14.3457-0.185547 14.3457-0.673828C14.3457-0.839844 14.3164-0.986328 14.2383-1.20117L9.6582-13.3887C9.43359-13.9941 9.0332-14.2871 8.4082-14.2871C7.80273-14.2871 7.39258-13.9941 7.17773-13.3984L2.59766-1.19141C2.51953-0.976562 2.49023-0.830078 2.49023-0.664062C2.49023-0.175781 2.80273 0.126953 3.31055 0.126953ZM6.00586-5.53711L8.37891-12.1094L8.42773-12.1094L10.8008-5.53711Z"/>
  </g>
  <line id="" style="fill:none;stroke:#00AEEF;stroke-width:0.5;opacity:1.0;" x1="792.836" x2="792.836" y1="1919" y2="1933"/>
  <text style="stroke:none;fill:black;font-family:-apple-system,&quot;SF Pro Display&quot;,&quot;SF Pro Text&quot;,Helvetica,sans-serif;font-weight:bold;" transform="matrix(1 0 0 1 776 1953)">Margins</text>
  <text style="stroke:none;fill:black;font-family:-apple-system,&quot;SF Pro Display&quot;,&quot;SF Pro Text&quot;,Helvetica,sans-serif;" transform="matrix(1 0 0 1 776 1971)">Leading and trailing margins on the left and right side of each symbol</text>
  <text style="stroke:none;fill:black;font-family:-apple-system,&quot;SF Pro Display&quot;,&quot;SF Pro Text&quot;,Helvetica,sans-serif;" transform="matrix(1 0 0 1 776 1989)">can be adjusted by modifying the x-location of the margin guidelines.</text>
  <text style="stroke:none;fill:black;font-family:-apple-system,&quot;SF Pro Display&quot;,&quot;SF Pro Text&quot;,Helvetica,sans-serif;" transform="matrix(1 0 0 1 776 2007)">Modifications are automatically applied proportionally to all</text>
  <text style="stroke:none;fill:black;font-family:-apple-system,&quot;SF Pro Display&quot;,&quot;SF Pro Text&quot;,Helvetica,sans-serif;" transform="matrix(1 0 0 1 776 2025)">scales and weights.</text>
  <g id="" transform="matrix(1 0 0 1 1289 1933)">
   <path d="M2.8418 1.86523L4.54102 3.57422C5.40039 4.44336 6.38672 4.38477 7.31445 3.35938L17.4902-7.85156C17.7539-7.76367 18.0273-7.7832 18.3398-7.8418L19.4043-8.03711L20.0684-7.36328L20.0293-6.80664C19.9902-6.30859 20.1172-5.92773 20.6055-5.44922L21.3672-4.70703C21.8457-4.22852 22.4609-4.19922 22.9297-4.66797L25.8398-7.58789C26.3086-8.05664 26.2891-8.65234 25.8105-9.13086L25.0391-9.89258C24.5605-10.3711 24.1895-10.5273 23.7109-10.4883L23.1348-10.4395L22.4902-11.0742L22.7344-12.1973C22.8613-12.7637 22.7051-13.2031 22.1191-13.7891L19.9219-15.9766C16.582-19.2969 12.1484-19.2188 9.25781-16.3281C8.83789-15.918 8.80859-15.3418 9.04297-14.9512C9.27734-14.5898 9.73633-14.3555 10.3809-14.5215C11.8457-14.8633 13.3691-14.9219 14.7949-13.9844L14.209-12.5293C14.0137-12.0508 13.9844-11.6504 14.1113-11.2891L3.04688-0.898438C2.06055 0.0195312 1.98242 0.996094 2.8418 1.86523ZM10.752-15.957C13.1836-17.7344 16.4746-17.4316 18.7012-15.2051L21.1328-12.793C21.3672-12.5586 21.4062-12.373 21.3379-12.0312L21.0156-10.5469L22.5195-9.0625L23.5059-9.12109C23.7598-9.13086 23.8379-9.11133 24.0332-8.91602L24.6094-8.33984L22.168-5.89844L21.5918-6.47461C21.3965-6.66992 21.3672-6.74805 21.377-7.01172L21.4453-7.98828L19.9512-9.47266L18.4277-9.21875C18.1055-9.15039 17.959-9.17969 17.7148-9.41406L15.7129-11.416C15.459-11.6504 15.4297-11.8164 15.5859-12.1875L16.4648-14.2773C14.9023-15.7324 12.8711-16.3574 10.8398-15.7617C10.6836-15.7227 10.625-15.8496 10.752-15.957ZM5.27344 2.30469L4.10156 1.14258C3.63281 0.683594 3.74023 0.341797 4.14062-0.0195312L14.9512-10.1953L16.416-8.71094L6.42578 2.27539C6.07422 2.67578 5.74219 2.77344 5.27344 2.30469Z"/>
  </g>
  <text style="stroke:none;fill:black;font-family:-apple-system,&quot;SF Pro Display&quot;,&quot;SF Pro Text&quot;,Helvetica,sans-serif;font-weight:bold;" transform="matrix(1 0 0 1 1289 1953)">Exporting</text>
  <text style="stroke:none;fill:black;font-family:-apple-system,&quot;SF Pro Display&quot;,&quot;SF Pro Text&quot;,Helvetica,sans-serif;" transform="matrix(1 0 0 1 1289 1971)">Symbols should be outlined when exporting to ensure the</text>
  <text style="stroke:none;fill:black;font-family:-apple-system,&quot;SF Pro Display&quot;,&quot;SF Pro Text&quot;,Helvetica,sans-serif;" transform="matrix(1 0 0 1 1289 1989)">design is preserved when submitting to Xcode.</text>
  <text id="template-version" style="stroke:none;fill:black;font-family:-apple-system,&quot;SF Pro Display&quot;,&quot;SF Pro Text&quot;,Helvetica,sans-serif;text-anchor:end;" transform="matrix(1 0 0 1 3036 1933)">Template v.2.0</text>
  <text style="stroke:none;fill:black;font-family:-apple-system,&quot;SF Pro Display&quot;,&quot;SF Pro Text&quot;,Helvetica,sans-serif;text-anchor:end;" transform="matrix(1 0 0 1 3036 1951)">Requires Xcode 12 or greater</text>
  <text style="stroke:none;fill:black;font-family:-apple-system,&quot;SF Pro Display&quot;,&quot;SF Pro Text&quot;,Helvetica,sans-serif;text-anchor:end;" transform="matrix(1 0 0 1 3036 1969)">Generated from arrow.backward</text>
  <text style="stroke:none;fill:black;font-family:-apple-system,&quot;SF Pro Display&quot;,&quot;SF Pro Text&quot;,Helvetica,sans-serif;text-anchor:end;" transform="matrix(1 0 0 1 3036 1987)">Typeset at 100 points</text>
  <text style="stroke:none;fill:black;font-family:-apple-system,&quot;SF Pro Display&quot;,&quot;SF Pro Text&quot;,Helvetica,sans-serif;" transform="matrix(1 0 0 1 263 726)">Small</text>
  <text style="stroke:none;fill:black;font-family:-apple-system,&quot;SF Pro Display&quot;,&quot;SF Pro Text&quot;,Helvetica,sans-serif;" transform="matrix(1 0 0 1 263 1156)">Medium</text>
  <text style="stroke:none;fill:black;font-family:-apple-system,&quot;SF Pro Display&quot;,&quot;SF Pro Text&quot;,Helvetica,sans-serif;" transform="matrix(1 0 0 1 263 1586)">Large</text>
 </g>
 <g id="Guides">
  <g id="H-reference" style="fill:#27AAE1;stroke:none;" transform="matrix(1 0 0 1 339 696)">
   <path d="M0.976562 0L3.66211 0L12.9883-24.4629L45.752-24.4629L55.127 0L57.7637 0L30.6152-70.459L28.125-70.459ZM29.3457-67.1387L29.4434-67.1387L44.873-26.709L13.8672-26.709Z"/>
  </g>
  <line id="Baseline-S" style="fill:none;stroke:#27AAE1;opacity:1;stroke-width:0.5;" x1="263" x2="3036" y1="696" y2="696"/>
  <line id="Capline-S" style="fill:none;stroke:#27AAE1;opacity:1;stroke-width:0.5;" x1="263" x2="3036" y1="625.541" y2="625.541"/>
  <g id="H-reference" style="fill:#27AAE1;stroke:none;" transform="matrix(1 0 0 1 339 1126)">
   <path d="M0.976562 0L3.66211 0L12.9883-24.4629L45.752-24.4629L55.127 0L57.7637 0L30.6152-70.459L28.125-70.459ZM29.3457-67.1387L29.4434-67.1387L44.873-26.709L13.8672-26.709Z"/>
  </g>
  <line id="Baseline-M" style="fill:none;stroke:#27AAE1;opacity:1;stroke-width:0.5;" x1="263" x2="3036" y1="1126" y2="1126"/>
  <line id="Capline-M" style="fill:none;stroke:#27AAE1;opacity:1;stroke-width:0.5;" x1="263" x2="3036" y1="1055.54" y2="1055.54"/>
  <g id="H-reference" style="fill:#27AAE1;stroke:none;" transform="matrix(1 0 0 1 339 1556)">
   <path d="M0.976562 0L3.66211 0L12.9883-24.4629L45.752-24.4629L55.127 0L57.7637 0L30.6152-70.459L28.125-70.459ZM29.3457-67.1387L29.4434-67.1387L44.873-26.709L13.8672-26.709Z"/>
  </g>
  <line id="Baseline-L" style="fill:none;stroke:#27AAE1;opacity:1;stroke-width:0.5;" x1="263" x2="3036" y1="1556" y2="1556"/>
  <line id="Capline-L" style="fill:none;stroke:#27AAE1;opacity:1;stroke-width:0.5;" x1="263" x2="3036" y1="1485.54" y2="1485.54"/>
  <line id="left-margin" style="fill:none;stroke:#00AEEF;stroke-width:0.5;opacity:1.0;" x1="1392.06" x2="1392.06" y1="1030.79" y2="1150.12"/>
  <line id="right-margin" style="fill:none;stroke:#00AEEF;stroke-width:0.5;opacity:1.0;" x1="1507.63" x2="1507.63" y1="1030.79" y2="1150.12"/>
 </g>
 <g id="Symbols">
  <g id="Black-L" transform="matrix(1 0 0 1 2854.32 1556)">
   <path d="M16.0645-35.5469C16.0645-32.4707 17.3828-29.1992 19.4336-27.1484L59.9121 13.2324C62.2559 15.5273 65.0879 16.748 67.8223 16.748C74.6094 16.748 79.1016 12.1094 79.1016 6.00586C79.1016 2.44141 77.4902-0.0976562 75.3418-2.19727L62.0605-15.4297L51.8555-24.8047L64.8926-24.1211L130.078-24.1211C137.305-24.1211 142.09-28.7109 142.09-35.5469C142.09-42.4316 137.305-46.9727 130.078-46.9727L64.8926-46.9727L51.8555-46.2891L62.0605-55.7129L75.3418-68.9941C77.4902-71.0449 79.1016-73.6328 79.1016-77.1484C79.1016-83.3008 74.6094-87.9395 67.8223-87.9395C65.0879-87.9395 62.2559-86.7188 59.9121-84.375L19.4336-43.9453C17.3828-41.9434 16.0645-38.623 16.0645-35.5469Z"/>
  </g>
  <g id="Heavy-L" transform="matrix(1 0 0 1 2558.69 1556)">
   <path d="M16.0645-35.498C16.0645-32.8125 17.1875-30.0293 19.043-28.2227L59.9121 12.5977C61.9629 14.5996 64.4043 15.625 66.748 15.625C72.5586 15.625 76.4648 11.6211 76.4648 6.29883C76.4648 3.32031 75.1465 1.07422 73.3398-0.732422L59.1309-14.9414L46.6797-26.3672L60.1562-25.6348L129.688-25.6348C135.84-25.6348 139.941-29.5898 139.941-35.498C139.941-41.4062 135.84-45.3613 129.688-45.3613L60.1562-45.3613L46.7285-44.6289L59.1309-56.0547L73.3398-70.3125C75.1465-72.0703 76.4648-74.3652 76.4648-77.3438C76.4648-82.666 72.5586-86.6699 66.748-86.6699C64.4043-86.6699 61.9629-85.6445 59.8633-83.5449L19.043-42.7246C17.1875-40.9668 16.0645-38.1348 16.0645-35.498Z"/>
  </g>
  <g id="Bold-L" transform="matrix(1 0 0 1 2263.17 1556)">
   <path d="M16.0645-35.4004C16.0645-33.2031 16.9922-30.957 18.5547-29.4434L59.9121 11.8652C61.6211 13.5254 63.5742 14.4043 65.5762 14.4043C70.3125 14.4043 73.5352 11.084 73.5352 6.68945C73.5352 4.29688 72.5586 2.39258 71.0449 0.927734L55.8105-14.3555L40.918-28.0762L54.8828-27.3438L129.248-27.3438C134.18-27.3438 137.549-30.6152 137.549-35.4004C137.549-40.2344 134.18-43.5059 129.248-43.5059L54.8828-43.5059L40.9668-42.7734L55.8105-56.4453L71.0449-71.7773C72.5586-73.2422 73.5352-75.1465 73.5352-77.5391C73.5352-81.9336 70.3125-85.2539 65.5762-85.2539C63.5742-85.2539 61.5723-84.375 59.7656-82.6172L18.5547-41.4062C16.9922-39.8438 16.0645-37.5977 16.0645-35.4004Z"/>
  </g>
  <g id="Semibold-L" transform="matrix(1 0 0 1 1967.27 1556)">
   <path d="M16.0645-35.3516C16.0645-33.4961 16.8457-31.5918 18.2617-30.2734L59.9121 11.377C61.377 12.793 63.0371 13.5254 64.7949 13.5254C68.75 13.5254 71.5332 10.6934 71.5332 6.93359C71.5332 4.98047 70.7031 3.27148 69.4824 2.05078L53.5645-13.9648L36.9629-29.248L51.2695-28.5156L128.906-28.5156C133.057-28.5156 135.938-31.2988 135.938-35.3516C135.938-39.4043 133.057-42.2363 128.906-42.2363L51.2695-42.2363L37.0117-41.4551L53.5645-56.7383L69.4824-72.8027C70.752-74.0234 71.5332-75.7324 71.5332-77.6855C71.5332-81.4453 68.75-84.2773 64.7949-84.2773C63.0371-84.2773 61.3281-83.5449 59.7168-81.9336L18.2617-40.4297C16.8457-39.1113 16.0645-37.2559 16.0645-35.3516Z"/>
  </g>
  <g id="Medium-L" transform="matrix(1 0 0 1 1671.16 1556)">
   <path d="M16.0645-35.3027C16.0645-33.6914 16.748-32.0801 18.0176-30.9082L59.9121 10.9863C61.1816 12.2559 62.6465 12.8418 64.1602 12.8418C67.5293 12.8418 70.0195 10.4004 70.0195 7.12891C70.0195 5.46875 69.3359 3.95508 68.3105 2.88086L51.8555-13.6719L33.9355-30.1758L48.4863-29.3945L128.711-29.3945C132.227-29.3945 134.717-31.8359 134.717-35.3027C134.717-38.8184 132.227-41.2598 128.711-41.2598L48.4863-41.2598L33.9844-40.4785L51.8555-56.9824L68.3105-73.5352C69.3848-74.6582 70.0195-76.123 70.0195-77.7832C70.0195-81.0547 67.5293-83.4961 64.1602-83.4961C62.6465-83.4961 61.1328-82.9102 59.668-81.4453L18.0176-39.7461C16.748-38.5254 16.0645-36.9629 16.0645-35.3027Z"/>
  </g>
  <g id="Regular-L" transform="matrix(1 0 0 1 1375.28 1556)">
   <path d="M16.0645-35.2539C16.0645-33.9355 16.6016-32.7148 17.6758-31.7383L59.9121 10.5469C60.9863 11.5234 62.0605 12.0117 63.3301 12.0117C66.0156 12.0117 68.0176 10.0586 68.0176 7.42188C68.0176 6.15234 67.5781 4.88281 66.748 4.00391L49.6094-13.2812L30.0293-31.3477L44.9219-30.5176L128.369-30.5176C131.104-30.5176 133.057-32.5195 133.057-35.2539C133.057-38.0371 131.104-39.9902 128.369-39.9902L44.9219-39.9902L30.0781-39.209L49.6094-57.2266L66.748-74.5605C67.5781-75.4395 68.0176-76.6602 68.0176-77.9297C68.0176-80.5664 66.0156-82.5195 63.3301-82.5195C62.0605-82.5195 60.8887-82.0801 59.6191-80.8105L17.6758-38.8184C16.6016-37.793 16.0645-36.5723 16.0645-35.2539Z"/>
  </g>
  <g id="Light-L" transform="matrix(1 0 0 1 1078.57 1556)">
   <path d="M16.0645-35.2539C16.0645-34.2773 16.4551-33.3984 17.2363-32.6172L59.9609 10.2051C60.7422 10.9863 61.5723 11.3281 62.5488 11.3281C64.5508 11.3281 66.0645 9.81445 66.0645 7.86133C66.0645 6.88477 65.7227 5.9082 65.0879 5.32227L43.8477-16.0645L26.6113-32.3242L40.918-31.7383L129.59-31.7383C131.592-31.7383 133.057-33.2031 133.057-35.2539C133.057-37.3535 131.592-38.8184 129.59-38.8184L40.918-38.8184L26.6113-38.2324L43.8477-54.4434L65.0879-75.8301C65.7715-76.5137 66.0645-77.4414 66.0645-78.418C66.0645-80.3711 64.5508-81.8359 62.5488-81.8359C61.5723-81.8359 60.6445-81.4941 59.5215-80.3711L17.2363-37.8906C16.4551-37.1582 16.0645-36.2793 16.0645-35.2539Z"/>
  </g>
  <g id="Thin-L" transform="matrix(1 0 0 1 781.862 1556)">
   <path d="M16.0645-35.2539C16.0645-34.668 16.2598-34.2285 16.6992-33.8379L60.0586 9.81445C60.4492 10.2051 60.8887 10.4004 61.4746 10.4004C62.6465 10.4004 63.4766 9.52148 63.4766 8.49609C63.4766 7.91016 63.2812 7.32422 62.9395 6.98242L36.2305-19.7266L22.1191-33.5449L35.6445-33.3008L131.152-33.3008C132.178-33.3008 133.057-34.1309 133.057-35.2539C133.057-36.377 132.178-37.207 131.152-37.207L35.6445-37.207L22.1191-36.9629L36.2305-50.7812L62.9395-77.5391C63.3301-77.9297 63.4766-78.418 63.4766-79.0039C63.4766-80.0781 62.6465-80.957 61.4746-80.957C60.8887-80.957 60.3027-80.7617 59.375-79.7363L16.6992-36.7188C16.2598-36.2793 16.0645-35.8398 16.0645-35.2539Z"/>
  </g>
  <g id="Ultralight-L" transform="matrix(1 0 0 1 485.151 1556)">
   <path d="M16.0645-35.2539C16.0645-34.9121 16.1621-34.668 16.4062-34.4238L60.0586 9.57031C60.3027 9.81445 60.5469 9.96094 60.9375 9.96094C61.6699 9.96094 62.1582 9.375 62.1582 8.78906C62.1582 8.39844 62.0117 8.00781 61.8652 7.86133L32.373-21.6309L19.8242-34.1797L32.9102-34.1309L131.934-34.1309C132.52-34.1309 133.057-34.6191 133.057-35.2539C133.057-35.9375 132.52-36.4258 131.934-36.4258L32.9102-36.4258L19.8242-36.377L32.373-48.9258L61.8652-78.3691C62.1094-78.6621 62.1582-78.9551 62.1582-79.3457C62.1582-79.9316 61.6699-80.4688 60.9375-80.4688C60.5469-80.4688 60.1074-80.3711 59.2773-79.4434L16.4062-36.084C16.1621-35.8398 16.0645-35.6445 16.0645-35.2539Z"/>
  </g>
  <g id="Black-M" transform="matrix(1 0 0 1 2870.68 1126)">
   <path d="M12.4512-35.5957C12.4512-32.8125 13.6719-29.7852 15.4297-28.0273L46.4844 2.97852C48.584 5.07812 51.1719 6.20117 53.5645 6.20117C59.8145 6.20117 63.7695 2.00195 63.7695-3.51562C63.7695-6.78711 62.2559-9.0332 60.3027-10.9375L48.9746-22.0215L45.1172-25.6836L54.4922-25.2441L102.002-25.2441C108.594-25.2441 112.988-29.3457 112.988-35.5957C112.988-41.8457 108.594-45.9473 102.002-45.9473L54.4922-45.9473L45.1172-45.5078L48.9746-49.1211L60.3027-60.3027C62.2559-62.1582 63.7695-64.4531 63.7695-67.7246C63.7695-73.1934 59.8145-77.4414 53.5645-77.4414C51.1719-77.4414 48.584-76.3184 46.4844-74.2188L15.4297-43.1641C13.6719-41.4062 12.4512-38.3301 12.4512-35.5957Z"/>
  </g>
  <g id="Heavy-M" transform="matrix(1 0 0 1 2575.14 1126)">
   <path d="M12.4512-35.498C12.4512-33.1055 13.4766-30.5176 15.0391-28.9551L46.4844 2.39258C48.291 4.19922 50.4883 5.17578 52.5879 5.17578C57.959 5.17578 61.4258 1.51367 61.4258-3.22266C61.4258-6.00586 60.1562-8.05664 58.4961-9.66797L47.2656-20.752L40.4785-27.0508L50.3906-26.5625L101.221-26.5625C106.885-26.5625 110.645-30.127 110.645-35.498C110.645-40.8691 106.885-44.4336 101.221-44.4336L50.3906-44.4336L40.4785-43.9453L47.2656-50.2441L58.4961-61.377C60.1562-63.0371 61.4258-65.0391 61.4258-67.8223C61.4258-72.5586 57.959-76.2207 52.5879-76.2207C50.4883-76.2207 48.291-75.2441 46.4355-73.4375L15.0391-42.041C13.4766-40.4785 12.4512-37.8906 12.4512-35.498Z"/>
  </g>
  <g id="Bold-M" transform="matrix(1 0 0 1 2279.72 1126)">
   <path d="M12.4512-35.4004C12.4512-33.4473 13.3301-31.3477 14.6973-30.0293L46.4355 1.70898C47.9492 3.22266 49.7559 4.00391 51.5625 4.00391C55.8594 4.00391 58.7891 0.976562 58.7891-2.97852C58.7891-5.17578 57.8125-6.88477 56.4453-8.25195L45.3613-19.3359L35.2539-28.6133L45.8008-28.0762L100.391-28.0762C104.98-28.0762 108.057-31.0059 108.057-35.4004C108.057-39.7949 104.98-42.7734 100.391-42.7734L45.8008-42.7734L35.2539-42.1875L45.3613-51.5137L56.4453-62.6465C57.8125-63.9648 58.7891-65.6738 58.7891-67.9199C58.7891-71.875 55.8594-74.8535 51.5625-74.8535C49.7559-74.8535 47.9492-74.0723 46.3867-72.5098L14.6973-40.8203C13.3301-39.502 12.4512-37.4023 12.4512-35.4004Z"/>
  </g>
  <g id="Semibold-M" transform="matrix(1 0 0 1 1983.92 1126)">
   <path d="M12.4512-35.3516C12.4512-33.6426 13.1836-31.9336 14.4043-30.7129L46.4355 1.2207C47.7539 2.53906 49.2676 3.17383 50.8301 3.17383C54.4434 3.17383 56.9824 0.634766 56.9824-2.7832C56.9824-4.63867 56.2012-6.10352 55.0781-7.27539L44.043-18.3594L31.6406-29.7363L42.627-29.1016L99.8535-29.1016C103.662-29.1016 106.25-31.6406 106.25-35.3516C106.25-39.0625 103.662-41.6016 99.8535-41.6016L42.627-41.6016L31.6406-41.0156L44.043-52.3438L55.0781-63.4766C56.25-64.6484 56.9824-66.1133 56.9824-67.9688C56.9824-71.3379 54.4434-73.9258 50.8301-73.9258C49.2676-73.9258 47.7539-73.291 46.3379-71.9238L14.4043-39.9902C13.1836-38.8184 12.4512-37.0605 12.4512-35.3516Z"/>
  </g>
  <g id="Medium-M" transform="matrix(1 0 0 1 1687.89 1126)">
   <path d="M12.4512-35.3027C12.4512-33.8379 13.0859-32.373 14.209-31.2988L46.4355 0.878906C47.6074 2.00195 48.877 2.53906 50.293 2.53906C53.3691 2.53906 55.6152 0.341797 55.6152-2.63672C55.6152-4.19922 55.0293-5.51758 54.0039-6.49414L43.0176-17.627L28.8574-30.5664L40.2344-29.8828L99.4141-29.8828C102.637-29.8828 104.883-32.1289 104.883-35.3027C104.883-38.5254 102.637-40.7715 99.4141-40.7715L40.2344-40.7715L28.9062-40.0879L43.0176-53.0273L54.0039-64.1602C55.0293-65.1367 55.6152-66.4551 55.6152-68.0176C55.6152-70.9961 53.3691-73.1934 50.293-73.1934C48.877-73.1934 47.5586-72.6562 46.2891-71.4355L14.209-39.3555C13.0859-38.2812 12.4512-36.8164 12.4512-35.3027Z"/>
  </g>
  <g id="Regular-M" transform="matrix(1 0 0 1 1392.06 1126)">
   <path d="M12.4512-35.2539C12.4512-34.0332 12.9883-32.9102 13.9648-31.9824L46.3867 0.390625C47.3633 1.31836 48.3887 1.75781 49.5605 1.75781C51.9531 1.75781 53.8574 0 53.8574-2.44141C53.8574-3.61328 53.418-4.78516 52.6367-5.51758L41.6992-16.6504L25.2441-31.6406L37.0605-30.9082L98.8281-30.9082C101.367-30.9082 103.125-32.7148 103.125-35.2539C103.125-37.793 101.367-39.5996 98.8281-39.5996L37.0605-39.5996L25.293-38.8672L41.6992-53.8574L52.6367-64.9902C53.418-65.7715 53.8574-66.8945 53.8574-68.0664C53.8574-70.5078 51.9531-72.2656 49.5605-72.2656C48.3887-72.2656 47.3633-71.875 46.2891-70.8008L13.9648-38.5254C12.9883-37.5977 12.4512-36.4746 12.4512-35.2539Z"/>
  </g>
  <g id="Light-M" transform="matrix(1 0 0 1 1095.35 1126)">
   <path d="M12.4512-35.2539C12.4512-34.3262 12.8418-33.4961 13.5742-32.8125L46.4355 0.146484C47.168 0.830078 47.9492 1.12305 48.8281 1.12305C50.6836 1.12305 52.0996-0.244141 52.0996-2.05078C52.0996-2.92969 51.7578-3.80859 51.1719-4.39453L36.5723-19.1406L22.1191-32.5195L33.4961-31.9824L99.9023-31.9824C101.758-31.9824 103.125-33.3496 103.125-35.2539C103.125-37.1582 101.758-38.5254 99.9023-38.5254L33.4961-38.5254L22.168-37.9883L36.5723-51.3672L51.1719-66.1133C51.8066-66.748 52.0996-67.5781 52.0996-68.5059C52.0996-70.3125 50.6836-71.6797 48.8281-71.6797C47.9492-71.6797 47.1191-71.3379 46.1914-70.4102L13.5742-37.6953C12.8418-37.0117 12.4512-36.1816 12.4512-35.2539Z"/>
  </g>
  <g id="Thin-M" transform="matrix(1 0 0 1 798.634 1126)">
   <path d="M12.4512-35.2539C12.4512-34.7168 12.6465-34.2773 13.0859-33.8867L46.5332-0.244141C46.9238 0.146484 47.3145 0.341797 47.8516 0.341797C48.9746 0.341797 49.7559-0.488281 49.7559-1.51367C49.7559-2.05078 49.5605-2.58789 49.2676-2.88086L29.7363-22.4121L18.1152-33.6914L28.7598-33.3984L101.27-33.3984C102.295-33.3984 103.125-34.1797 103.125-35.2539C103.125-36.3281 102.295-37.1094 101.27-37.1094L28.7598-37.1094L18.1152-36.8652L29.7363-48.0957L49.2676-67.627C49.6094-68.0176 49.7559-68.5059 49.7559-69.043C49.7559-70.0195 48.9746-70.8496 47.8516-70.8496C47.3145-70.8496 46.8262-70.6543 46.0449-69.873L13.0859-36.6211C12.6465-36.2305 12.4512-35.791 12.4512-35.2539Z"/>
  </g>
  <g id="Ultralight-M" transform="matrix(1 0 0 1 501.923 1126)">
   <path d="M12.4512-35.2539C12.4512-34.9121 12.5488-34.668 12.793-34.4238L46.5332-0.439453C46.7773-0.195312 47.0215-0.0976562 47.3633-0.0976562C48.0957-0.0976562 48.584-0.634766 48.584-1.2207C48.584-1.5625 48.4375-1.9043 48.291-2.09961L26.2695-24.1211L16.0645-34.2285L26.3184-34.1309L102.002-34.1309C102.588-34.1309 103.125-34.6191 103.125-35.2539C103.125-35.8887 102.588-36.377 102.002-36.377L26.3184-36.377L16.0645-36.2793L26.2695-46.3867L48.291-68.4082C48.4863-68.6523 48.584-68.9453 48.584-69.3359C48.584-69.9219 48.0957-70.459 47.3633-70.459C47.0215-70.459 46.6309-70.3125 45.9961-69.5801L12.793-36.084C12.5488-35.8398 12.4512-35.5957 12.4512-35.2539Z"/>
  </g>
  <g id="Black-S" transform="matrix(1 0 0 1 2884.35 696)">
   <path d="M9.76562-35.498C9.76562-33.3496 10.6934-31.0059 12.0605-29.6387L36.4258-5.32227C38.0371-3.71094 40.0391-2.83203 41.8945-2.83203C46.7285-2.83203 49.8047-6.10352 49.8047-10.3516C49.8047-12.8906 48.6328-14.6484 47.1191-16.1133L38.3301-24.7559L35.0098-27.832L42.4316-27.4902L79.834-27.4902C84.9609-27.4902 88.3301-30.6641 88.3301-35.498C88.3301-40.332 84.9609-43.5059 79.834-43.5059L42.4316-43.5059L35.0098-43.1641L38.3301-46.2402L47.1191-54.9316C48.6328-56.3965 49.8047-58.1543 49.8047-60.6934C49.8047-64.9414 46.7285-68.2129 41.8945-68.2129C40.0391-68.2129 38.0371-67.334 36.4258-65.7227L12.0605-41.3574C10.6934-39.9902 9.76562-37.6465 9.76562-35.498Z"/>
  </g>
  <g id="Heavy-S" transform="matrix(1 0 0 1 2588.52 696)">
   <path d="M9.76562-35.4492C9.76562-33.5449 10.5957-31.4941 11.8164-30.2734L36.4258-5.76172C37.8418-4.3457 39.5996-3.56445 41.2598-3.56445C45.459-3.56445 48.1934-6.44531 48.1934-10.2051C48.1934-12.4023 47.2168-13.9648 45.8984-15.2832L37.5977-23.4863L31.8359-28.8086L39.6973-28.418L79.1504-28.418C83.5938-28.418 86.5723-31.2012 86.5723-35.4492C86.5723-39.6973 83.5938-42.4805 79.1504-42.4805L39.6973-42.4805L31.8848-42.0898L37.5977-47.3633L45.8984-55.6641C47.2168-56.9336 48.1934-58.5449 48.1934-60.6934C48.1934-64.4531 45.459-67.334 41.2598-67.334C39.5996-67.334 37.8418-66.6016 36.377-65.1367L11.8164-40.625C10.5957-39.3555 9.76562-37.3535 9.76562-35.4492Z"/>
  </g>
  <g id="Bold-S" transform="matrix(1 0 0 1 2292.81 696)">
   <path d="M9.76562-35.4004C9.76562-33.7402 10.4492-32.0801 11.5723-30.957L36.377-6.25C37.6465-5.0293 39.1113-4.39453 40.5273-4.39453C44.043-4.39453 46.4355-6.83594 46.4355-10.0586C46.4355-11.8164 45.6543-13.2324 44.5312-14.3066L36.7676-22.1191L28.2715-29.8828L36.6211-29.3945L78.3691-29.3945C82.0801-29.3945 84.5703-31.8359 84.5703-35.4004C84.5703-38.9648 82.0801-41.3574 78.3691-41.3574L36.6211-41.3574L28.2715-40.8691L36.7676-48.6328L44.5312-56.4453C45.6543-57.5684 46.4355-58.9355 46.4355-60.7422C46.4355-63.9648 44.043-66.4062 40.5273-66.4062C39.1113-66.4062 37.6465-65.7715 36.377-64.502L11.5723-39.7949C10.4492-38.6719 9.76562-37.0117 9.76562-35.4004Z"/>
  </g>
  <g id="Semibold-S" transform="matrix(1 0 0 1 1996.78 696)">
   <path d="M9.76562-35.3516C9.76562-33.9355 10.4004-32.4707 11.4258-31.4453L36.377-6.5918C37.5-5.51758 38.7695-4.98047 40.0391-4.98047C43.0664-4.98047 45.166-7.08008 45.166-9.96094C45.166-11.4746 44.5801-12.6953 43.6035-13.6719L36.1816-21.1426L25.7324-30.6641L34.4727-30.0781L77.832-30.0781C81.0547-30.0781 83.2031-32.2266 83.2031-35.3516C83.2031-38.4277 81.0547-40.5762 77.832-40.5762L34.4727-40.5762L25.7812-40.0391L36.1816-49.5117L43.6035-57.0312C44.5801-57.959 45.166-59.2285 45.166-60.7422C45.166-63.5742 43.0664-65.7227 40.0391-65.7227C38.7695-65.7227 37.5-65.1855 36.3281-64.0625L11.4258-39.209C10.4004-38.1836 9.76562-36.7676 9.76562-35.3516Z"/>
  </g>
  <g id="Medium-S" transform="matrix(1 0 0 1 1700.58 696)">
   <path d="M9.76562-35.3027C9.76562-34.0332 10.3027-32.7637 11.2793-31.8359L36.3281-6.83594C37.3535-5.85938 38.4766-5.37109 39.6973-5.37109C42.334-5.37109 44.2383-7.27539 44.2383-9.86328C44.2383-11.1816 43.75-12.3047 42.8711-13.1836L35.7422-20.4102L23.8281-31.25L32.9102-30.6152L77.4414-30.6152C80.2246-30.6152 82.1777-32.5684 82.1777-35.3027C82.1777-38.0371 80.2246-39.9414 77.4414-39.9414L32.9102-39.9414L23.877-39.3555L35.7422-50.1465L42.8711-57.4219C43.75-58.3008 44.2383-59.4238 44.2383-60.7422C44.2383-63.3301 42.334-65.2344 39.6973-65.2344C38.4766-65.2344 37.3535-64.7461 36.3281-63.7695L11.2793-38.7695C10.3027-37.8418 9.76562-36.5723 9.76562-35.3027Z"/>
  </g>
  <g id="Regular-S" transform="matrix(1 0 0 1 1404.56 696)">
   <path d="M9.76562-35.2539C9.76562-34.1797 10.2539-33.1543 11.1328-32.3242L36.3281-7.17773C37.207-6.34766 38.1836-5.95703 39.209-5.95703C41.3574-5.95703 43.0176-7.56836 43.0176-9.76562C43.0176-10.791 42.6758-11.8164 41.9434-12.5L35.2051-19.4824L21.2891-31.9824L30.8105-31.2988L76.9043-31.2988C79.1992-31.2988 80.8105-32.959 80.8105-35.2539C80.8105-37.5488 79.1992-39.209 76.9043-39.209L30.8105-39.209L21.3379-38.5254L35.2051-51.0254L41.9434-58.0078C42.6758-58.6914 43.0176-59.7168 43.0176-60.7422C43.0176-62.9395 41.3574-64.5508 39.209-64.5508C38.1836-64.5508 37.207-64.1602 36.3281-63.3301L11.1328-38.1836C10.2539-37.3535 9.76562-36.3281 9.76562-35.2539Z"/>
  </g>
  <g id="Light-S" transform="matrix(1 0 0 1 1107.85 696)">
   <path d="M9.76562-35.2539C9.76562-34.4238 10.1074-33.6426 10.791-33.0078L36.377-7.42188C37.0605-6.78711 37.7441-6.49414 38.5254-6.49414C40.1855-6.49414 41.5039-7.71484 41.5039-9.375C41.5039-10.2051 41.2109-10.9863 40.6738-11.5234L30.6152-21.6797L18.5547-32.7637L27.6367-32.2754L77.8809-32.2754C79.5898-32.2754 80.8105-33.4961 80.8105-35.2539C80.8105-37.0117 79.5898-38.2324 77.8809-38.2324L27.6367-38.2324L18.5547-37.7441L30.6152-48.8281L40.6738-58.9844C41.2109-59.5215 41.5039-60.3027 41.5039-61.1328C41.5039-62.793 40.1855-64.0137 38.5254-64.0137C37.7441-64.0137 37.0117-63.7207 36.2305-62.9395L10.791-37.5C10.1074-36.8652 9.76562-36.084 9.76562-35.2539Z"/>
  </g>
  <g id="Thin-S" transform="matrix(1 0 0 1 811.134 696)">
   <path d="M9.76562-35.2539C9.76562-34.7656 9.96094-34.3262 10.3516-33.9844L36.4258-7.76367C36.8164-7.37305 37.207-7.22656 37.6953-7.22656C38.7207-7.22656 39.4531-7.95898 39.4531-8.88672C39.4531-9.375 39.2578-9.86328 38.9648-10.1562L24.6094-24.5605L14.9414-33.7891L23.4375-33.5449L79.1016-33.5449C80.0781-33.5449 80.8105-34.2285 80.8105-35.2539C80.8105-36.2793 80.0781-36.9629 79.1016-36.9629L23.4375-36.9629L14.9414-36.7188L24.6094-45.9473L38.9648-60.3516C39.3066-60.6445 39.4531-61.1328 39.4531-61.6211C39.4531-62.5488 38.7207-63.2812 37.6953-63.2812C37.207-63.2812 36.7676-63.1348 36.1328-62.4512L10.3516-36.5234C9.96094-36.1816 9.76562-35.7422 9.76562-35.2539Z"/>
  </g>
  <g id="Ultralight-S" transform="matrix(1 0 0 1 514.423 696)">
   <path d="M9.76562-35.2539C9.76562-34.9121 9.86328-34.668 10.1074-34.4727L36.4746-7.91016C36.7188-7.71484 36.9141-7.56836 37.2559-7.56836C37.9395-7.56836 38.3789-8.05664 38.3789-8.64258C38.3789-8.98438 38.2812-9.32617 38.0859-9.47266L21.5332-26.0742L13.1348-34.2773L21.2891-34.1797L79.7363-34.1797C80.3223-34.1797 80.8105-34.6191 80.8105-35.2539C80.8105-35.8887 80.3223-36.3281 79.7363-36.3281L21.2891-36.3281L13.1348-36.2305L21.5332-44.4336L38.0859-61.0352C38.3301-61.2305 38.3789-61.5234 38.3789-61.8652C38.3789-62.4512 37.9395-62.9395 37.2559-62.9395C36.9141-62.9395 36.6211-62.793 36.0352-62.207L10.1074-36.0352C9.86328-35.8398 9.76562-35.5957 9.76562-35.2539Z"/>
  </g>
 </g>
</svg>
