<svg width="75" height="75" viewBox="0 0 32 32" fill="none" xmlns="http://www.w3.org/2000/svg">
  <rect width="32" height="32" transform="translate(0 0.00317383)" fill="#FFF48D" rx="5" ry="5"/>
  <path d="M23.3701 16.3435C23.3701 14.5981 24.5842 13.0065 26.6807 13.0065C28.786 13.0065 30.0001 14.5981 30.0001 16.3435C30.0001 18.0889 28.786 19.6806 26.6807 19.6806C24.5846 19.681 23.3701 18.0889 23.3701 16.3435ZM28.1573 16.3435C28.1573 15.5023 27.6156 14.7247 26.6811 14.7247C25.755 14.7247 25.2049 15.5027 25.2049 16.3435C25.2049 17.1848 25.7553 17.9623 26.6811 17.9623C27.6156 17.9623 28.1573 17.1848 28.1573 16.3435Z" fill="#1D1C1C"/>
  <path d="M22.0812 17.5827C22.7802 17.1756 23.1992 16.3981 23.1992 15.5387C23.1992 14.2637 22.2993 13.1782 20.9017 13.1782H17.9668V19.509H19.7837V17.8902H20.1245L21.1638 19.509H23.304L22.0812 17.5827ZM20.5351 16.4339H19.7837V14.6432H20.5439C21.0331 14.6432 21.3477 15.0503 21.3477 15.5387C21.3477 16.0268 21.0244 16.4339 20.5351 16.4339Z" fill="#1D1C1C"/>
  <path d="M9.67256 13.1714L8.58262 16.9445L7.51889 13.1714H6.07182L4.99935 16.9445L3.91814 13.1714H2L4.197 19.4901H5.77512L6.79517 16.0509L7.80684 19.4901H9.3937L11.5907 13.1714H9.67256Z" fill="#1D1C1C"/>
  <path d="M14.34 17.9467C14.3386 17.9467 14.3371 17.9467 14.3357 17.9467C13.656 17.9467 13.1795 17.5268 12.9749 16.9709H17.5695H17.5924C17.6295 16.7617 17.6488 16.5476 17.6488 16.3309C17.6488 14.59 16.4384 13.0025 14.34 13.0002V14.7155C15.0237 14.7174 15.4955 15.1365 15.6979 15.6913H11.0869C11.0502 15.9005 11.0312 16.1146 11.0312 16.3313C11.0312 18.0733 12.2431 19.6623 14.3357 19.6623C14.3371 19.6623 14.3386 19.6623 14.34 19.6623V17.9467Z" fill="#1D1C1C"/>
  <path d="M14.3354 19.6616C14.4064 19.6616 14.4763 19.6594 14.5454 19.656C14.9707 19.6337 15.3565 19.5452 15.7006 19.4023C16.0446 19.2595 16.3467 19.0631 16.6037 18.8257C16.8608 18.5882 17.073 18.3101 17.2375 18.0036C17.3872 17.7251 17.4964 17.4236 17.5648 17.1089H15.6409C15.6015 17.1929 15.5557 17.2732 15.5032 17.3482C15.4315 17.4507 15.3474 17.5438 15.2521 17.6241C15.1567 17.7044 15.0496 17.7722 14.9317 17.8246C14.8137 17.877 14.6852 17.9139 14.5462 17.9324C14.4785 17.9415 14.4086 17.9467 14.3361 17.9467C13.9033 17.9467 13.5527 17.776 13.3026 17.5088L12.0518 18.8038C12.6077 19.3299 13.3794 19.6616 14.3354 19.6616Z" fill="url(#paint0_linear_20224_21894)"/>
  <path d="M14.3355 13C12.5608 13 11.4196 14.1428 11.1138 15.5531H13.0323C13.2616 15.0673 13.7134 14.7153 14.3355 14.7153C14.8314 14.7153 15.2162 14.9346 15.4677 15.2663L16.7299 13.9596C16.1663 13.3746 15.3556 13 14.3355 13Z" fill="url(#paint1_linear_20224_21894)"/>
  <defs>
    <linearGradient id="paint0_linear_20224_21894" x1="16.5965" y1="15.9371" x2="13.6456" y2="19.468" gradientUnits="userSpaceOnUse">
      <stop offset="0.0243" stop-color="#1D1C1C" stop-opacity="0"/>
      <stop offset="0.676" stop-color="#1D1C1C"/>
    </linearGradient>
    <linearGradient id="paint1_linear_20224_21894" x1="11.6431" y1="16.7508" x2="14.6531" y2="13.8434" gradientUnits="userSpaceOnUse">
      <stop offset="0.0243" stop-color="#1D1C1C" stop-opacity="0"/>
      <stop offset="0.676" stop-color="#1D1C1C"/>
    </linearGradient>
  </defs>
</svg>
