<svg width="12" height="12" viewBox="0 0 12 12" fill="none" xmlns="http://www.w3.org/2000/svg">
<path fill-rule="evenodd" clip-rule="evenodd" d="M0.975001 7.87492C0.991113 7.63323 1.0944 7.40561 1.26568 7.23433L7.43933 1.06068C8.02512 0.474891 8.97487 0.474891 9.56065 1.06068L10.9393 2.43936C11.5251 3.02514 11.5251 3.97489 10.9393 4.56068L4.76568 10.7343C4.5944 10.9056 4.36678 11.0089 4.12509 11.025L1.03508 11.231C0.884155 11.2411 0.758938 11.1159 0.769 10.9649L0.975001 7.87492ZM2.3607 9.63931L2.45918 8.16215L6.53031 4.09102L7.90899 5.4697L3.83786 9.54083L2.3607 9.63931ZM8.96965 4.40904L9.87867 3.50002L8.49999 2.12134L7.59097 3.03036L8.96965 4.40904Z" fill="black"/>
</svg>
