<?xml version="1.0" encoding="UTF-8"?>
<svg xmlns="http://www.w3.org/2000/svg" xmlns:xlink="http://www.w3.org/1999/xlink" width="px" height="22px" viewBox="0 0 89 22" version="1.1">
<g id="surface1">
<path style=" stroke:none;fill-rule:nonzero;fill:rgb(100%,100%,100%);fill-opacity:1;" d="M 18.75 0.398438 C 17.554688 0.0195312 16.46875 0.0195312 14.257812 0.0195312 L 7.632812 0.0195312 C 5.4375 0.0195312 4.335938 0.0195312 3.164062 0.386719 C 1.867188 0.859375 0.84375 1.882812 0.375 3.1875 C 0 4.378906 0 5.480469 0 7.6875 L 0 14.34375 C 0 16.5625 0 17.65625 0.367188 18.84375 C 0.835938 20.148438 1.859375 21.171875 3.152344 21.644531 C 4.339844 22.023438 5.4375 22.023438 7.632812 22.023438 L 14.269531 22.023438 C 16.46875 22.023438 17.566406 22.023438 18.75 21.644531 C 20.042969 21.171875 21.066406 20.148438 21.535156 18.84375 C 21.910156 17.65625 21.910156 16.550781 21.910156 14.34375 L 21.910156 7.695312 C 21.910156 5.488281 21.910156 4.386719 21.535156 3.195312 C 21.066406 1.894531 20.042969 0.867188 18.75 0.398438 Z M 15.785156 7.550781 L 14.519531 8.589844 C 14.410156 8.683594 14.25 8.664062 14.160156 8.550781 C 13.519531 7.753906 12.507812 7.304688 11.414062 7.304688 C 10.191406 7.304688 9.433594 7.832031 9.433594 8.59375 C 9.433594 9.222656 10.027344 9.554688 11.84375 9.953125 C 14.148438 10.449219 15.207031 11.410156 15.207031 13.03125 C 15.207031 15.066406 13.554688 16.566406 10.980469 16.726562 L 10.730469 17.929688 C 10.707031 18.046875 10.601562 18.132812 10.480469 18.132812 L 8.5 18.132812 C 8.339844 18.132812 8.21875 17.980469 8.253906 17.820312 L 8.574219 16.472656 C 7.296875 16.109375 6.269531 15.398438 5.671875 14.523438 C 5.597656 14.414062 5.621094 14.261719 5.726562 14.179688 L 7.109375 13.101562 C 7.222656 13.011719 7.386719 13.035156 7.472656 13.15625 C 8.207031 14.179688 9.332031 14.789062 10.6875 14.789062 C 11.90625 14.789062 12.832031 14.191406 12.832031 13.332031 C 12.832031 12.667969 12.371094 12.371094 10.820312 12.039062 C 8.148438 11.476562 7.09375 10.480469 7.09375 8.859375 C 7.09375 6.976562 8.667969 5.554688 11.046875 5.371094 L 11.304688 4.128906 C 11.328125 4.007812 11.433594 3.925781 11.550781 3.925781 L 13.507812 3.925781 C 13.667969 3.925781 13.789062 4.074219 13.753906 4.234375 L 13.453125 5.625 C 14.476562 5.941406 15.308594 6.507812 15.828125 7.203125 C 15.90625 7.3125 15.886719 7.464844 15.785156 7.550781 Z M 15.785156 7.550781 "/>
<path style=" stroke:none;fill-rule:nonzero;fill:rgb(100%,100%,100%);fill-opacity:1;" d="M 34.5625 5.65625 C 34.527344 5.554688 34.433594 5.488281 34.328125 5.488281 L 32.269531 5.488281 C 32.164062 5.488281 32.070312 5.554688 32.035156 5.65625 L 28.074219 16.234375 C 28.011719 16.398438 28.132812 16.574219 28.308594 16.574219 L 29.867188 16.574219 C 29.972656 16.574219 30.066406 16.511719 30.105469 16.410156 L 30.949219 14.121094 L 35.609375 14.121094 L 36.460938 16.410156 C 36.5 16.511719 36.59375 16.574219 36.699219 16.574219 L 38.296875 16.574219 C 38.472656 16.574219 38.59375 16.398438 38.53125 16.234375 Z M 31.625 12.292969 L 33.265625 7.84375 L 34.925781 12.292969 Z M 31.625 12.292969 "/>
<path style=" stroke:none;fill-rule:nonzero;fill:rgb(100%,100%,100%);fill-opacity:1;" d="M 48.550781 14.90625 C 48.40625 14.917969 48.269531 14.925781 48.078125 14.925781 C 47.433594 14.925781 47.03125 14.839844 47.03125 14.128906 L 47.03125 10.152344 L 48.449219 10.152344 C 48.585938 10.152344 48.699219 10.039062 48.699219 9.898438 L 48.699219 8.714844 C 48.699219 8.574219 48.585938 8.460938 48.449219 8.460938 L 47.03125 8.460938 L 47.03125 6.371094 C 47.03125 6.230469 46.917969 6.117188 46.777344 6.117188 L 45.316406 6.117188 C 45.175781 6.117188 45.0625 6.230469 45.0625 6.371094 L 45.0625 8.460938 L 41.875 8.460938 L 41.875 8.105469 C 41.875 7.242188 42.25 7.035156 42.949219 7.035156 C 43.070312 7.035156 43.15625 7.035156 43.242188 7.035156 C 43.386719 7.039062 43.503906 6.925781 43.503906 6.78125 L 43.503906 5.589844 C 43.503906 5.457031 43.398438 5.34375 43.261719 5.335938 C 43.070312 5.328125 42.921875 5.328125 42.703125 5.328125 C 40.804688 5.328125 39.875 6.277344 39.875 7.976562 L 39.875 8.460938 L 39.019531 8.460938 C 38.882812 8.460938 38.769531 8.574219 38.769531 8.714844 L 38.769531 9.898438 C 38.769531 10.039062 38.882812 10.152344 39.019531 10.152344 L 39.875 10.152344 L 39.875 16.320312 C 39.875 16.460938 39.988281 16.574219 40.128906 16.574219 L 41.621094 16.574219 C 41.761719 16.574219 41.875 16.460938 41.875 16.320312 L 41.875 10.152344 L 45.0625 10.152344 L 45.0625 14.5 C 45.0625 16.160156 45.910156 16.667969 47.492188 16.667969 C 47.90625 16.667969 48.289062 16.636719 48.609375 16.589844 C 48.734375 16.570312 48.824219 16.464844 48.824219 16.339844 L 48.824219 15.160156 C 48.824219 15.011719 48.695312 14.894531 48.550781 14.90625 Z M 48.550781 14.90625 "/>
<path style=" stroke:none;fill-rule:nonzero;fill:rgb(100%,100%,100%);fill-opacity:1;" d="M 53.566406 8.308594 C 51.296875 8.308594 49.675781 10.136719 49.675781 12.523438 C 49.675781 15.03125 51.296875 16.746094 53.644531 16.746094 C 55.160156 16.746094 56.421875 16 57.046875 14.707031 C 57.109375 14.570312 57.042969 14.410156 56.902344 14.359375 L 55.691406 13.914062 C 55.570312 13.867188 55.429688 13.925781 55.375 14.046875 C 55.078125 14.714844 54.4375 15.070312 53.652344 15.070312 C 52.527344 15.070312 51.738281 14.273438 51.589844 12.964844 L 56.949219 12.964844 C 57.089844 12.964844 57.203125 12.847656 57.203125 12.710938 L 57.203125 12.335938 C 57.203125 10.089844 55.933594 8.308594 53.566406 8.308594 Z M 51.675781 11.535156 C 51.945312 10.492188 52.644531 9.953125 53.550781 9.953125 C 54.660156 9.953125 55.1875 10.6875 55.203125 11.535156 Z M 51.675781 11.535156 "/>
<path style=" stroke:none;fill-rule:nonzero;fill:rgb(100%,100%,100%);fill-opacity:1;" d="M 63.082031 8.425781 C 62.996094 8.417969 62.898438 8.414062 62.792969 8.414062 C 61.777344 8.414062 60.960938 8.902344 60.609375 9.636719 L 60.609375 8.714844 C 60.609375 8.574219 60.496094 8.460938 60.355469 8.460938 L 58.863281 8.460938 C 58.722656 8.460938 58.609375 8.574219 58.609375 8.714844 L 58.609375 16.320312 C 58.609375 16.460938 58.722656 16.574219 58.863281 16.574219 L 60.355469 16.574219 C 60.496094 16.574219 60.609375 16.460938 60.609375 16.320312 L 60.609375 12.382812 C 60.609375 11.109375 61.484375 10.382812 62.628906 10.382812 C 62.785156 10.382812 62.910156 10.390625 63.039062 10.402344 C 63.1875 10.414062 63.3125 10.296875 63.3125 10.148438 L 63.3125 8.679688 C 63.3125 8.546875 63.210938 8.433594 63.082031 8.425781 Z M 63.082031 8.425781 "/>
<path style=" stroke:none;fill-rule:nonzero;fill:rgb(100%,100%,100%);fill-opacity:1;" d="M 68.910156 8.308594 C 67.878906 8.308594 67.113281 8.71875 66.621094 9.3125 L 66.621094 8.714844 C 66.621094 8.574219 66.507812 8.460938 66.367188 8.460938 L 64.875 8.460938 C 64.734375 8.460938 64.621094 8.574219 64.621094 8.714844 L 64.621094 19.085938 C 64.621094 19.226562 64.734375 19.339844 64.875 19.339844 L 66.367188 19.339844 C 66.507812 19.339844 66.621094 19.226562 66.621094 19.085938 L 66.621094 15.734375 C 67.113281 16.335938 67.878906 16.746094 68.910156 16.746094 C 71.15625 16.746094 72.449219 14.832031 72.449219 12.523438 C 72.449219 10.222656 71.15625 8.308594 68.910156 8.308594 Z M 68.472656 15.007812 C 67.390625 15.007812 66.574219 14.199219 66.574219 12.761719 L 66.574219 12.300781 C 66.574219 10.839844 67.390625 10.042969 68.472656 10.042969 C 69.75 10.042969 70.433594 11.054688 70.433594 12.523438 C 70.433594 13.996094 69.75 15.007812 68.472656 15.007812 Z M 68.472656 15.007812 "/>
<path style=" stroke:none;fill-rule:nonzero;fill:rgb(100%,100%,100%);fill-opacity:1;" d="M 80.640625 15.058594 C 80.332031 15.046875 80.203125 14.886719 80.203125 14.523438 L 80.203125 11.117188 C 80.203125 9.242188 79.003906 8.308594 77.015625 8.308594 C 75.292969 8.308594 74.128906 9.242188 73.664062 10.464844 C 73.605469 10.609375 73.695312 10.773438 73.847656 10.804688 L 75.238281 11.09375 C 75.359375 11.121094 75.480469 11.050781 75.523438 10.933594 C 75.746094 10.316406 76.179688 10.007812 76.9375 10.007812 C 77.875 10.007812 78.25 10.460938 78.25 11.195312 L 78.25 11.328125 L 76.128906 11.75 C 74.539062 12.058594 73.316406 12.738281 73.316406 14.320312 C 73.316406 15.765625 74.492188 16.714844 76.050781 16.714844 C 77.105469 16.714844 77.9375 16.382812 78.453125 15.8125 C 78.746094 16.445312 79.449219 16.722656 80.660156 16.601562 C 80.789062 16.589844 80.886719 16.480469 80.886719 16.347656 L 80.886719 15.3125 C 80.886719 15.175781 80.777344 15.066406 80.640625 15.058594 Z M 78.25 13.703125 C 78.25 14.652344 77.351562 15.15625 76.40625 15.15625 C 75.730469 15.15625 75.292969 14.816406 75.292969 14.222656 C 75.292969 13.535156 75.84375 13.296875 76.589844 13.140625 L 78.25 12.792969 Z M 78.25 13.703125 "/>
<path style=" stroke:none;fill-rule:nonzero;fill:rgb(100%,100%,100%);fill-opacity:1;" d="M 88.648438 8.460938 L 87.15625 8.460938 C 87.050781 8.460938 86.953125 8.53125 86.917969 8.632812 L 85.117188 13.972656 L 83.269531 8.632812 C 83.234375 8.53125 83.136719 8.460938 83.03125 8.460938 L 81.492188 8.460938 C 81.316406 8.460938 81.191406 8.640625 81.253906 8.804688 L 84.046875 16.265625 L 83.761719 16.96875 C 83.515625 17.585938 83.21875 17.75 82.625 17.75 C 82.492188 17.75 82.390625 17.746094 82.28125 17.734375 C 82.136719 17.726562 82.011719 17.839844 82.011719 17.988281 L 82.011719 19.136719 C 82.011719 19.265625 82.109375 19.375 82.238281 19.386719 C 82.390625 19.402344 82.539062 19.410156 82.808594 19.410156 C 84.539062 19.410156 85.261719 18.519531 85.753906 17.1875 L 88.886719 8.804688 C 88.949219 8.640625 88.824219 8.460938 88.648438 8.460938 Z M 88.648438 8.460938 "/>
</g>
</svg>
