<svg width="12" height="12" viewBox="0 0 12 12" fill="none" xmlns="http://www.w3.org/2000/svg">
<g clip-path="url(#clip0_25_1199)">
<path d="M6 12C9.28235 12 12 9.28235 12 6C12 2.72353 9.27647 0 5.99412 0C2.71765 0 0 2.72353 0 6C0 9.28235 2.72353 12 6 12ZM6 11C3.22353 11 1.00588 8.77647 1.00588 6C1.00588 3.22941 3.21765 1 5.99412 1C8.77059 1 10.9941 3.22941 11 6C11.0059 8.77647 8.77647 11 6 11ZM5.94706 3.90588C6.37647 3.90588 6.71177 3.56471 6.71177 3.14118C6.71177 2.71176 6.37647 2.37059 5.94706 2.37059C5.52353 2.37059 5.18235 2.71176 5.18235 3.14118C5.18235 3.56471 5.52353 3.90588 5.94706 3.90588ZM4.97059 9.23529H7.36471C7.60588 9.23529 7.79412 9.06471 7.79412 8.82353C7.79412 8.59412 7.60588 8.41177 7.36471 8.41177H6.63529V5.41765C6.63529 5.1 6.47647 4.88824 6.17647 4.88824H5.18235C4.94118 4.88824 4.75294 5.07059 4.75294 5.3C4.75294 5.54118 4.94118 5.71176 5.18235 5.71176H5.7V8.41177H4.97059C4.72941 8.41177 4.54118 8.59412 4.54118 8.82353C4.54118 9.06471 4.72941 9.23529 4.97059 9.23529Z" fill="#1A1A1A" fill-opacity="0.7"/>
</g>
<defs>
<clipPath id="clip0_25_1199">
<rect width="12" height="12" fill="white"/>
</clipPath>
</defs>
</svg>
