<svg xmlns="http://www.w3.org/2000/svg" width="32" height="32" viewBox="0 0 32 32">
  <path d="M0,0h32v32H0z" fill="#F6F8FA"/>
  <path d="M10.827,26.832c4.82,2.305 10.77,1.164 14.366,-3.12 4.26,-5.075 3.6,-12.644 -1.478,-16.903l-3.376,4.021a9.372,9.372 0,0 1,1.155 13.206c-2.653,3.163 -7.024,4.218 -10.667,2.794" fill="none" fill-rule="evenodd"/>
  <path d="M10.827,26.832c4.82,2.305 10.77,1.164 14.366,-3.12 0.441,-0.523 0.827,-1.075 1.163,-1.647a10.493,10.493 0,0 0,-3.617 -9.72,10.497 10.497,0 0,0 -2.398,-1.515 9.374,9.374 0,0 1,1.154 13.206c-2.653,3.163 -7.024,4.218 -10.667,2.794" fill="none" fill-rule="evenodd"/>
  <path d="M21.175,5.168c-4.821,-2.305 -10.771,-1.164 -14.367,3.12 -4.26,5.076 -3.6,12.644 1.479,16.903l3.375,-4.021a9.372,9.372 0,0 1,-1.155 -13.206c2.654,-3.163 7.025,-4.22 10.668,-2.796Z" fill="none" fill-rule="evenodd"/>
  <path d="M21.175,5.168c-4.821,-2.305 -10.771,-1.164 -14.367,3.12 -0.44,0.523 -0.827,1.075 -1.163,1.647a10.493,10.493 0,0 0,3.618 9.72c0.746,0.626 1.553,1.13 2.398,1.515a9.374,9.374 0,0 1,-1.155 -13.206c2.655,-3.163 7.026,-4.22 10.669,-2.796Z" fill="none" fill-rule="evenodd"/>
</svg>
