<?xml version="1.0" encoding="UTF-8"?>
<svg xmlns="http://www.w3.org/2000/svg" xmlns:xlink="http://www.w3.org/1999/xlink" width="96px" height="px" viewBox="0 0 96 18" version="1.1">
<g id="surface1">
<path style=" stroke:none;fill-rule:nonzero;fill:rgb(0%,0%,0%);fill-opacity:1;" d="M 76.242188 4.234375 L 69.683594 17.796875 L 66.964844 17.796875 L 69.414062 12.730469 L 65.566406 4.234375 L 68.355469 4.234375 L 70.832031 9.925781 L 73.53125 4.234375 Z M 76.242188 4.234375 "/>
<path style=" stroke:none;fill-rule:nonzero;fill:rgb(0%,0%,0%);fill-opacity:1;" d="M 51.285156 9.046875 C 51.285156 7.492188 50.109375 6.292969 48.671875 6.292969 C 47.230469 6.292969 46.058594 7.453125 46.058594 9.046875 C 46.058594 10.628906 47.230469 11.804688 48.671875 11.804688 C 50.109375 11.804688 51.285156 10.605469 51.285156 9.046875 Z M 43.671875 17.796875 L 43.671875 4.234375 L 46.035156 4.234375 L 46.035156 5.480469 C 46.746094 4.597656 47.804688 4.054688 49.066406 4.054688 C 51.664062 4.054688 53.703125 6.195312 53.703125 9.023438 C 53.703125 11.855469 51.625 14.011719 49.011719 14.011719 C 47.796875 14.011719 46.804688 13.53125 46.109375 12.722656 L 46.109375 17.789062 L 43.671875 17.789062 Z M 43.671875 17.796875 "/>
<path style=" stroke:none;fill-rule:nonzero;fill:rgb(0%,0%,0%);fill-opacity:1;" d="M 62.226562 9.046875 C 62.226562 7.425781 61.054688 6.292969 59.613281 6.292969 C 58.175781 6.292969 57 7.453125 57 9.046875 C 57 10.628906 58.175781 11.804688 59.613281 11.804688 C 61.054688 11.804688 62.226562 10.664062 62.226562 9.046875 Z M 62.242188 13.863281 L 62.242188 12.617188 C 61.53125 13.484375 60.472656 14.019531 59.210938 14.019531 C 56.574219 14.019531 54.574219 11.902344 54.574219 9.046875 C 54.574219 6.21875 56.652344 4.0625 59.265625 4.0625 C 60.496094 4.0625 61.53125 4.605469 62.242188 5.449219 L 62.242188 4.234375 L 64.605469 4.234375 L 64.605469 13.863281 Z M 62.242188 13.863281 "/>
<path style=" stroke:none;fill-rule:nonzero;fill:rgb(0%,0%,0%);fill-opacity:1;" d="M 39.410156 5.171875 C 39.410156 5.171875 40.007812 4.054688 41.488281 4.054688 C 42.121094 4.054688 42.523438 4.273438 42.523438 4.273438 L 42.523438 6.730469 C 42.523438 6.730469 41.636719 6.179688 40.816406 6.292969 C 40 6.40625 39.484375 7.152344 39.484375 8.15625 L 39.484375 13.863281 L 37.042969 13.863281 L 37.042969 4.234375 L 39.402344 4.234375 L 39.402344 5.171875 Z M 39.410156 5.171875 "/>
<path style=" stroke:none;fill-rule:nonzero;fill:rgb(0%,0%,0%);fill-opacity:1;" d="M 94.585938 3.6875 L 91.785156 2.082031 L 88.949219 0.453125 C 87.070312 -0.625 84.726562 0.730469 84.726562 2.902344 L 84.726562 3.265625 C 84.726562 3.46875 84.832031 3.65625 85.007812 3.753906 L 86.328125 4.507812 C 86.691406 4.71875 87.144531 4.453125 87.144531 4.03125 L 87.144531 3.164062 C 87.144531 2.734375 87.605469 2.464844 87.976562 2.675781 L 90.566406 4.167969 L 93.144531 5.652344 C 93.515625 5.863281 93.515625 6.40625 93.144531 6.617188 L 90.566406 8.101562 L 87.976562 9.59375 C 87.605469 9.800781 87.144531 9.535156 87.144531 9.105469 L 87.144531 8.675781 C 87.144531 6.503906 84.796875 5.140625 82.921875 6.226562 L 80.082031 7.855469 L 77.285156 9.460938 C 75.402344 10.546875 75.402344 13.28125 77.285156 14.367188 L 80.082031 15.972656 L 82.921875 17.601562 C 84.796875 18.679688 87.144531 17.328125 87.144531 15.152344 L 87.144531 14.789062 C 87.144531 14.585938 87.039062 14.398438 86.859375 14.300781 L 85.542969 13.546875 C 85.179688 13.335938 84.726562 13.605469 84.726562 14.027344 L 84.726562 14.894531 C 84.726562 15.324219 84.265625 15.59375 83.894531 15.382812 L 81.304688 13.890625 L 78.726562 12.40625 C 78.351562 12.195312 78.351562 11.652344 78.726562 11.441406 L 81.304688 9.957031 L 83.894531 8.464844 C 84.265625 8.253906 84.726562 8.523438 84.726562 8.953125 L 84.726562 9.382812 C 84.726562 11.554688 87.070312 12.917969 88.949219 11.828125 L 91.785156 10.199219 L 94.585938 8.59375 C 96.46875 7.5 96.46875 4.777344 94.585938 3.6875 Z M 94.585938 3.6875 "/>
<path style=" stroke:none;fill-rule:nonzero;fill:rgb(0%,0%,0%);fill-opacity:1;" d="M 9.890625 10.273438 C 9.375 12.488281 7.472656 14.011719 5.015625 14.011719 C 2.175781 14.011719 0.0390625 11.871094 0.0390625 9.039062 C 0.0390625 6.210938 2.207031 4.054688 5.054688 4.054688 C 7.457031 4.054688 9.332031 5.578125 9.875 7.75 L 7.375 7.75 C 6.929688 6.882812 6.050781 6.308594 5.070312 6.308594 C 3.648438 6.308594 2.457031 7.484375 2.457031 9.039062 C 2.457031 10.597656 3.648438 11.773438 5.070312 11.773438 C 6.089844 11.773438 6.972656 11.199219 7.390625 10.273438 Z M 9.890625 10.273438 "/>
<path style=" stroke:none;fill-rule:nonzero;fill:rgb(0%,0%,0%);fill-opacity:1;" d="M 11.015625 13.855469 L 11.015625 0.265625 L 13.433594 0.265625 L 13.433594 13.855469 Z M 11.015625 13.855469 "/>
<path style=" stroke:none;fill-rule:nonzero;fill:rgb(0%,0%,0%);fill-opacity:1;" d="M 17.074219 9.679688 C 17.242188 11.109375 18.261719 11.910156 19.546875 11.910156 C 20.566406 11.910156 21.351562 11.433594 21.8125 10.664062 L 24.289062 10.664062 C 23.710938 12.707031 21.886719 14.011719 19.484375 14.011719 C 16.578125 14.011719 14.550781 11.96875 14.550781 9.066406 C 14.550781 6.164062 16.699219 4.0625 19.539062 4.0625 C 22.402344 4.0625 24.472656 6.179688 24.472656 9.066406 C 24.472656 9.277344 24.457031 9.488281 24.417969 9.679688 Z M 21.894531 8.171875 C 21.722656 6.925781 20.703125 6.171875 19.515625 6.171875 C 18.328125 6.171875 17.347656 6.898438 17.097656 8.171875 Z M 21.894531 8.171875 "/>
<path style=" stroke:none;fill-rule:nonzero;fill:rgb(0%,0%,0%);fill-opacity:1;" d="M 33.109375 13.855469 L 33.109375 12.609375 C 32.398438 13.476562 31.347656 14.011719 30.078125 14.011719 C 27.449219 14.011719 25.453125 11.894531 25.453125 9.039062 C 25.453125 6.210938 27.523438 4.054688 30.132812 4.054688 C 31.363281 4.054688 32.398438 4.589844 33.109375 5.441406 L 33.109375 4.222656 L 35.472656 4.222656 L 35.472656 13.847656 L 33.109375 13.847656 Z M 33.085938 9.039062 C 33.085938 7.425781 31.914062 6.285156 30.472656 6.285156 C 29.035156 6.285156 27.863281 7.433594 27.863281 9.039062 C 27.863281 10.621094 29.035156 11.796875 30.472656 11.796875 C 31.914062 11.796875 33.085938 10.664062 33.085938 9.039062 Z M 33.085938 9.039062 "/>
</g>
</svg>
