<svg viewBox="0 0 59 16" fill="none" xmlns="http://www.w3.org/2000/svg" role="presentation" focusable="false">
  <path fill-rule="evenodd" clip-rule="evenodd"
    d="M0 8.002V13h36.337V3.005H0v4.997Zm37.242-4.88c-.026.065-.035 2.304-.021 4.975l.025 4.856H39.349l.026-1.768.026-1.768h1.265c1.498-.001 2.202-.1 2.874-.407 1.046-.476 1.421-1.13 1.48-2.582.03-.735.001-1.083-.126-1.482-.304-.954-1.084-1.596-2.227-1.835-.738-.155-5.365-.145-5.425.012ZM48.29 4.244c-1.302.21-2.057.897-2.294 2.086l-.07.353h1.943l.121-.33c.165-.45.52-.613 1.334-.613.815 0 1.166.21 1.166.7 0 .537-.242.657-1.733.862-1.743.24-2.433.58-2.816 1.391-.464.982-.2 2.269.57 2.783 1.064.708 2.556.602 3.64-.26l.38-.3.101.359.102.359 1.073.026c1.156.03 1.22-.002.882-.425-.18-.226-.191-.382-.191-2.714 0-2.652-.056-3.038-.506-3.522-.303-.325-1.064-.635-1.858-.757-.777-.119-1.097-.118-1.844.002Zm4.92-.005c-.03.047.518 1.818 1.654 5.344l.342 1.06-.302 1.088c-.167.597-.303 1.129-.303 1.181 0 .06.381.085 1.022.069.997-.027 1.022-.033 1.089-.263.037-.13.283-1.02.547-1.98.263-.96.763-2.768 1.11-4.02.347-1.25.631-2.343.631-2.427 0-.132-.14-.154-1-.154h-1l-.108.401c-.546 2.046-.692 2.429-.793 2.084-.348-1.181-.757-2.39-.81-2.393-.982-.037-2.053-.032-2.079.01ZM6.437 4.5c.674.327.962.804 1.006 1.663.04.792-.142 1.247-.693 1.724-.477.413-.867.49-2.468.491H2.874l-.027 1.486-.026 1.485-.502.028-.502.029V5.645h1.052v1.904l1.362-.035c1.843-.046 2.176-.238 2.176-1.253 0-.514-.335-.945-.843-1.084-.194-.053-1.116-.097-2.05-.097H1.817v-.862l2.08.03c1.962.028 2.106.042 2.54.253Zm27.012.932.028.683h.275c.46 0 .577.088.577.435 0 .316-.005.32-.432.32h-.433l.026 1.862.026 1.862.383.048c.361.044.384.066.411.394.03.344.027.347-.399.41-.545.08-1.069-.085-1.283-.408-.138-.208-.168-.547-.194-2.202l-.031-1.956-.352-.028c-.284-.024-.358-.071-.383-.247-.034-.239.147-.518.282-.435.047.028.171.025.276-.008.166-.051.19-.143.19-.697 0-.351.031-.668.069-.705.037-.037.263-.055.502-.04l.434.028.028.684Zm8.817-.492c.485.278.691.723.638 1.376-.09 1.098-.476 1.337-2.24 1.386l-1.267.035V6.283c0-.8.032-1.487.072-1.527.04-.039.61-.057 1.267-.039.99.027 1.253.065 1.53.224Zm-31.48 1.563.029.436-.483.063c-.594.077-1.103.48-1.245.984-.053.19-.097 1.037-.098 1.883v1.537l-.455-.028-.454-.03-.025-2.564-.026-2.565.336-.062c.49-.09.624-.008.624.388v.34l.437-.379c.442-.384.66-.473 1.093-.45.214.011.242.058.267.447Zm3.944-.34c1.052.367 1.622 1.24 1.622 2.485 0 1.249-.496 2.198-1.385 2.649-.637.322-1.806.338-2.392.032-.856-.446-1.289-1.143-1.362-2.192-.102-1.473.516-2.574 1.673-2.982.482-.17 1.343-.165 1.844.009Zm5.93-.048c.187.052.462.218.61.37l.269.278.47-.319c1.008-.684 2.318-.482 2.781.428.145.283.168.617.168 2.426v2.098h-.956V9.468c0-1.212-.04-2.014-.107-2.158-.325-.704-1.642-.533-2.007.26-.151.33-.177.636-.18 2.111l-.001 1.726-.455-.028-.454-.03-.054-2.027c-.03-1.115-.063-2.036-.072-2.047-.388-.448-.993-.536-1.518-.22-.603.363-.646.517-.699 2.499l-.047 1.796-.456.029-.456.029.026-2.623.025-2.621.24-.016c.488-.032.668.066.668.36v.277l.359-.276c.595-.46 1.163-.58 1.846-.393Zm8.821-.006c.716.164 1.387.802 1.601 1.523.154.518.121 1.745-.061 2.319-.225.705-.806 1.288-1.48 1.486-.279.08-.595.147-.704.147-.345 0-.88-.183-1.234-.42l-.342-.229-.028.726-.028.725-.454.029-.454.029V6.2l.454.03c.387.024.458.059.485.24.037.262.091.265.36.016.427-.396 1.16-.542 1.885-.376Zm-16.268.786c-.429.135-.745.572-.93 1.283-.247.953.038 2.002.644 2.367.39.234 1.204.256 1.621.043.717-.366 1.034-2.047.565-3.001-.332-.678-1.081-.95-1.9-.692Zm14.727.166c-.463.278-.712.898-.717 1.788-.009 1.27.547 1.942 1.54 1.864.575-.046.928-.261 1.215-.741.153-.256.191-.49.191-1.17 0-.981-.183-1.466-.661-1.754-.403-.242-1.154-.236-1.568.013Zm22.534 1.831c-.026.518-.087.772-.23.967-.285.384-.95.688-1.503.688-.607 0-1.025-.365-1.025-.894 0-.693.309-.914 1.653-1.186.47-.095.879-.196.908-.225.172-.17.23.021.197.65Z"
    fill="#003E6A" />
</svg>