<svg xmlns="http://www.w3.org/2000/svg" width="24.00" height="6.51" viewBox="0 0 59 16">
  <path d="M0,8.002L0,13h36.337L36.337,3.005L0,3.005v4.997ZM37.242,3.122c-0.026,0.065 -0.035,2.304 -0.021,4.975l0.025,4.856L39.349,12.953l0.026,-1.768 0.026,-1.768h1.265c1.498,-0.001 2.202,-0.1 2.874,-0.407 1.046,-0.476 1.421,-1.13 1.48,-2.582 0.03,-0.735 0.001,-1.083 -0.126,-1.482 -0.304,-0.954 -1.084,-1.596 -2.227,-1.835 -0.738,-0.155 -5.365,-0.145 -5.425,0.012ZM48.29,4.244c-1.302,0.21 -2.057,0.897 -2.294,2.086l-0.07,0.353h1.943l0.121,-0.33c0.165,-0.45 0.52,-0.613 1.334,-0.613 0.815,0 1.166,0.21 1.166,0.7 0,0.537 -0.242,0.657 -1.733,0.862 -1.743,0.24 -2.433,0.58 -2.816,1.391 -0.464,0.982 -0.2,2.269 0.57,2.783 1.064,0.708 2.556,0.602 3.64,-0.26l0.38,-0.3 0.101,0.359 0.102,0.359 1.073,0.026c1.156,0.03 1.22,-0.002 0.882,-0.425 -0.18,-0.226 -0.191,-0.382 -0.191,-2.714 0,-2.652 -0.056,-3.038 -0.506,-3.522 -0.303,-0.325 -1.064,-0.635 -1.858,-0.757 -0.777,-0.119 -1.097,-0.118 -1.844,0.002ZM53.21,4.239c-0.03,0.047 0.518,1.818 1.654,5.344l0.342,1.06 -0.302,1.088c-0.167,0.597 -0.303,1.129 -0.303,1.181 0,0.06 0.381,0.085 1.022,0.069 0.997,-0.027 1.022,-0.033 1.089,-0.263 0.037,-0.13 0.283,-1.02 0.547,-1.98 0.263,-0.96 0.763,-2.768 1.11,-4.02 0.347,-1.25 0.631,-2.343 0.631,-2.427 0,-0.132 -0.14,-0.154 -1,-0.154h-1l-0.108,0.401c-0.546,2.046 -0.692,2.429 -0.793,2.084 -0.348,-1.181 -0.757,-2.39 -0.81,-2.393 -0.982,-0.037 -2.053,-0.032 -2.079,0.01ZM6.437,4.5c0.674,0.327 0.962,0.804 1.006,1.663 0.04,0.792 -0.142,1.247 -0.693,1.724 -0.477,0.413 -0.867,0.49 -2.468,0.491L2.874,8.378l-0.027,1.486 -0.026,1.485 -0.502,0.028 -0.502,0.029L1.817,5.645h1.052v1.904l1.362,-0.035c1.843,-0.046 2.176,-0.238 2.176,-1.253 0,-0.514 -0.335,-0.945 -0.843,-1.084 -0.194,-0.053 -1.116,-0.097 -2.05,-0.097L1.817,5.08v-0.862l2.08,0.03c1.962,0.028 2.106,0.042 2.54,0.253ZM33.449,5.432 L33.477,6.115h0.275c0.46,0 0.577,0.088 0.577,0.435 0,0.316 -0.005,0.32 -0.432,0.32h-0.433l0.026,1.862 0.026,1.862 0.383,0.048c0.361,0.044 0.384,0.066 0.411,0.394 0.03,0.344 0.027,0.347 -0.399,0.41 -0.545,0.08 -1.069,-0.085 -1.283,-0.408 -0.138,-0.208 -0.168,-0.547 -0.194,-2.202l-0.031,-1.956 -0.352,-0.028c-0.284,-0.024 -0.358,-0.071 -0.383,-0.247 -0.034,-0.239 0.147,-0.518 0.282,-0.435 0.047,0.028 0.171,0.025 0.276,-0.008 0.166,-0.051 0.19,-0.143 0.19,-0.697 0,-0.351 0.031,-0.668 0.069,-0.705 0.037,-0.037 0.263,-0.055 0.502,-0.04l0.434,0.028 0.028,0.684ZM42.266,4.94c0.485,0.278 0.691,0.723 0.638,1.376 -0.09,1.098 -0.476,1.337 -2.24,1.386l-1.267,0.035L39.397,6.283c0,-0.8 0.032,-1.487 0.072,-1.527 0.04,-0.039 0.61,-0.057 1.267,-0.039 0.99,0.027 1.253,0.065 1.53,0.224ZM10.786,6.503 L10.815,6.939 10.332,7.002c-0.594,0.077 -1.103,0.48 -1.245,0.984 -0.053,0.19 -0.097,1.037 -0.098,1.883v1.537l-0.455,-0.028 -0.454,-0.03 -0.025,-2.564 -0.026,-2.565 0.336,-0.062c0.49,-0.09 0.624,-0.008 0.624,0.388v0.34l0.437,-0.379c0.442,-0.384 0.66,-0.473 1.093,-0.45 0.214,0.011 0.242,0.058 0.267,0.447ZM14.73,6.163c1.052,0.367 1.622,1.24 1.622,2.485 0,1.249 -0.496,2.198 -1.385,2.649 -0.637,0.322 -1.806,0.338 -2.392,0.032 -0.856,-0.446 -1.289,-1.143 -1.362,-2.192 -0.102,-1.473 0.516,-2.574 1.673,-2.982 0.482,-0.17 1.343,-0.165 1.844,0.009ZM20.66,6.115c0.187,0.052 0.462,0.218 0.61,0.37l0.269,0.278 0.47,-0.319c1.008,-0.684 2.318,-0.482 2.781,0.428 0.145,0.283 0.168,0.617 0.168,2.426v2.098h-0.956L24.002,9.468c0,-1.212 -0.04,-2.014 -0.107,-2.158 -0.325,-0.704 -1.642,-0.533 -2.007,0.26 -0.151,0.33 -0.177,0.636 -0.18,2.111l-0.001,1.726 -0.455,-0.028 -0.454,-0.03 -0.054,-2.027c-0.03,-1.115 -0.063,-2.036 -0.072,-2.047 -0.388,-0.448 -0.993,-0.536 -1.518,-0.22 -0.603,0.363 -0.646,0.517 -0.699,2.499l-0.047,1.796 -0.456,0.029 -0.456,0.029 0.026,-2.623 0.025,-2.621 0.24,-0.016c0.488,-0.032 0.668,0.066 0.668,0.36v0.277l0.359,-0.276c0.595,-0.46 1.163,-0.58 1.846,-0.393ZM29.481,6.109c0.716,0.164 1.387,0.802 1.601,1.523 0.154,0.518 0.121,1.745 -0.061,2.319 -0.225,0.705 -0.806,1.288 -1.48,1.486 -0.279,0.08 -0.595,0.147 -0.704,0.147 -0.345,0 -0.88,-0.183 -1.234,-0.42l-0.342,-0.229 -0.028,0.726 -0.028,0.725 -0.454,0.029 -0.454,0.029L26.297,6.2l0.454,0.03c0.387,0.024 0.458,0.059 0.485,0.24 0.037,0.262 0.091,0.265 0.36,0.016 0.427,-0.396 1.16,-0.542 1.885,-0.376ZM13.213,6.895c-0.429,0.135 -0.745,0.572 -0.93,1.283 -0.247,0.953 0.038,2.002 0.644,2.367 0.39,0.234 1.204,0.256 1.621,0.043 0.717,-0.366 1.034,-2.047 0.565,-3.001 -0.332,-0.678 -1.081,-0.95 -1.9,-0.692ZM27.94,7.061c-0.463,0.278 -0.712,0.898 -0.717,1.788 -0.009,1.27 0.547,1.942 1.54,1.864 0.575,-0.046 0.928,-0.261 1.215,-0.741 0.153,-0.256 0.191,-0.49 0.191,-1.17 0,-0.981 -0.183,-1.466 -0.661,-1.754 -0.403,-0.242 -1.154,-0.236 -1.568,0.013ZM50.474,8.892c-0.026,0.518 -0.087,0.772 -0.23,0.967 -0.285,0.384 -0.95,0.688 -1.503,0.688 -0.607,0 -1.025,-0.365 -1.025,-0.894 0,-0.693 0.309,-0.914 1.653,-1.186 0.47,-0.095 0.879,-0.196 0.908,-0.225 0.172,-0.17 0.23,0.021 0.197,0.65Z" fill="#fff" fill-rule="evenodd"/>
</svg>
