<svg width="16" height="16" viewBox="0 0 16 16" fill="none" xmlns="http://www.w3.org/2000/svg">
<g clip-path="url(#clip0_5343_966)">
<path d="M0 0H16V16H0V0Z" fill="black"/>
<path d="M13.5 10.6124C13.5 10.7742 13.3837 10.9745 13.244 11.0515L8.256 13.9101C8.11635 13.9948 7.88365 13.9948 7.744 13.9101L2.756 11.0515C2.61636 10.9668 2.5 10.7742 2.5 10.6124V4.88759C2.5 4.72579 2.61636 4.52546 2.756 4.44841L7.744 1.58987C7.88365 1.50512 8.11635 1.50512 8.256 1.58987L13.244 4.44841C13.3837 4.53317 13.5 4.72579 13.5 4.88759V10.6124Z" fill="white"/>
<path d="M10.3164 7.64235L9.03678 9.4683L8.37778 8.48855L9.13638 7.39C9.27428 7.19705 9.58078 6.6552 9.22833 5.9204C8.94483 5.3266 8.33178 5.0371 7.79543 5.0371C7.25903 5.0371 6.66903 5.3043 6.36253 5.9204C6.01008 6.6255 6.31658 7.1822 6.44683 7.36775C6.44683 7.36775 6.86828 7.96895 7.22073 8.4737L7.79543 9.2753L8.65363 10.5446C8.66128 10.552 8.79923 10.7524 9.03678 10.7524C9.26663 10.7524 9.40458 10.552 9.42753 10.5297L11.4428 7.64235H10.3164ZM7.79543 7.6869C7.79543 7.6869 7.45828 7.1896 7.24373 6.8482C7.00618 6.47705 7.27438 5.9278 7.79543 5.9278C8.32413 5.9278 8.58468 6.47705 8.34713 6.8482C8.13258 7.19705 7.79543 7.6869 7.79543 7.6869Z" fill="url(#paint0_radial_5343_966)"/>
<path d="M6.55415 9.40885L5.28985 7.6943C5.28985 7.6943 4.95268 7.197 4.73813 6.85555C4.50059 6.48445 4.76878 5.9352 5.28985 5.9352C5.3588 5.9352 5.4201 5.9426 5.47375 5.95745L5.91815 5.1707C5.71125 5.08905 5.4967 5.0445 5.28985 5.0445C4.75346 5.0445 4.16344 5.3117 3.85694 5.92775C3.50446 6.6329 3.81096 7.18955 3.94123 7.37515L6.14805 10.5445C6.16335 10.5742 6.30895 10.7746 6.53885 10.7746C6.77635 10.7746 6.90665 10.5816 6.9296 10.5519L7.59625 9.57215L7.02155 8.7557L6.55415 9.40885Z" fill="url(#paint1_linear_5343_966)"/>
</g>
<defs>
<radialGradient id="paint0_radial_5343_966" cx="0" cy="0" r="1" gradientUnits="userSpaceOnUse" gradientTransform="translate(6.26303 4.42106) rotate(45) scale(10.6438)">
<stop stop-color="#FFCC00"/>
<stop offset="0.09157" stop-color="#FFC800"/>
<stop offset="0.1739" stop-color="#FFBD00"/>
<stop offset="0.2528" stop-color="#FFAB00"/>
<stop offset="0.3295" stop-color="#FF9100"/>
<stop offset="0.4046" stop-color="#FF7000"/>
<stop offset="0.4786" stop-color="#FF4700"/>
<stop offset="0.5503" stop-color="#FF1800"/>
<stop offset="0.5822" stop-color="#FF0000"/>
<stop offset="1" stop-color="#FF0000"/>
</radialGradient>
<linearGradient id="paint1_linear_5343_966" x1="3.36831" y1="6.01315" x2="7.7104" y2="10.3553" gradientUnits="userSpaceOnUse">
<stop stop-color="#00B4E6"/>
<stop offset="0.201" stop-color="#00B0E3"/>
<stop offset="0.3898" stop-color="#01A5DB"/>
<stop offset="0.5737" stop-color="#0292CD"/>
<stop offset="0.7546" stop-color="#0377BA"/>
<stop offset="0.9316" stop-color="#0455A1"/>
<stop offset="1" stop-color="#054696"/>
</linearGradient>
<clipPath id="clip0_5343_966">
<rect width="16" height="16" fill="white"/>
</clipPath>
</defs>
</svg>
