<svg xmlns="http://www.w3.org/2000/svg" width="32" height="32" viewBox="0 0 16 16">
  <g>
    <clipPath>
      <path d="M0,0h16v16h-16z"/>
    </clipPath>
    <path d="M0,0H16V16H0V0Z" fill="#000000"/>
    <path d="M13.5,10.612C13.5,10.774 13.384,10.974 13.244,11.052L8.256,13.91C8.116,13.995 7.884,13.995 7.744,13.91L2.756,11.052C2.616,10.967 2.5,10.774 2.5,10.612V4.888C2.5,4.726 2.616,4.525 2.756,4.448L7.744,1.59C7.884,1.505 8.116,1.505 8.256,1.59L13.244,4.448C13.384,4.533 13.5,4.726 13.5,4.888V10.612Z" fill="#ffffff"/>
    <path d="M10.316,7.642L9.037,9.468L8.378,8.489L9.136,7.39C9.274,7.197 9.581,6.655 9.228,5.92C8.945,5.327 8.332,5.037 7.795,5.037C7.259,5.037 6.669,5.304 6.363,5.92C6.01,6.626 6.317,7.182 6.447,7.368C6.447,7.368 6.868,7.969 7.221,8.474L7.795,9.275L8.654,10.545C8.661,10.552 8.799,10.752 9.037,10.752C9.267,10.752 9.405,10.552 9.428,10.53L11.443,7.642H10.316ZM7.795,7.687C7.795,7.687 7.458,7.19 7.244,6.848C7.006,6.477 7.274,5.928 7.795,5.928C8.324,5.928 8.585,6.477 8.347,6.848C8.133,7.197 7.795,7.687 7.795,7.687Z" fill="none"/>
    <path d="M6.554,9.409L5.29,7.694C5.29,7.694 4.953,7.197 4.738,6.856C4.501,6.484 4.769,5.935 5.29,5.935C5.359,5.935 5.42,5.943 5.474,5.957L5.918,5.171C5.711,5.089 5.497,5.044 5.29,5.044C4.753,5.044 4.163,5.312 3.857,5.928C3.504,6.633 3.811,7.19 3.941,7.375L6.148,10.545C6.163,10.574 6.309,10.775 6.539,10.775C6.776,10.775 6.907,10.582 6.93,10.552L7.596,9.572L7.022,8.756L6.554,9.409Z" fill="none"/>
  </g>
</svg>
