<svg viewBox="0 0 22 16" fill="none" xmlns="http://www.w3.org/2000/svg" role="presentation" focusable="false">
  <path fill-rule="evenodd" clip-rule="evenodd"
    d="M8.34 13.09a1.817 1.817 0 0 1-1.147.407H1.817C.8 13.497 0 12.647 0 11.659V6.254c0-.896.645-1.62 1.48-1.777a.897.897 0 0 1-.11-.42v-.765C1.423 1.62 2.817.3 4.504.3 6.223.3 7.64 1.67 7.64 3.389v.669c0 .157-.043.3-.11.42.843.16 1.48.905 1.48 1.79l-.001.6a3.552 3.552 0 0 1 2.898-1.504c1.237 0 2.32.635 2.957 1.594a2.5 2.5 0 0 1 2.326-1.594h3.538v2.808h-.047c.518.463.844 1.137.844 1.88 0 1.354-1.091 2.507-2.46 2.527H11.17V15.7H8.34v-2.61Z"
    fill="#fff" />
  <path
    d="M19.054 8.237c.974.014 1.771.83 1.771 1.814 0 .985-.797 1.814-1.77 1.828h-5.291c.66-.276.986-.826 1.321-1.47h3.944a.364.364 0 0 0 .376-.36.374.374 0 0 0-.376-.374h-1.84c-.99 0-1.796-.812-1.796-1.805 0-.994.806-1.806 1.797-1.806h2.838v1.408H17.19a.39.39 0 0 0-.376.391c0 .208.169.374.376.374h1.864Zm-7.147-2.173c1.58 0 2.86 1.297 2.86 2.896 0 1.6-1.283 2.919-2.863 2.919h-1.433V15H9.04V8.965c0-1.599 1.287-2.9 2.867-2.9Zm0 4.346a1.44 1.44 0 0 0 1.442-1.45c0-.81-.647-1.469-1.442-1.469-.795 0-1.436.66-1.436 1.47v1.449h1.436Z"
    fill="#5F6360" />
  <path
    d="M4.511 11.879h3.782c-.09.52-.549.918-1.1.918H1.817c-.615 0-1.117-.52-1.117-1.138V6.254a1.11 1.11 0 0 1 1.117-1.108h5.376c.614 0 1.117.506 1.117 1.123l-.006 4.14H4.511c-.581 0-1.085-.275-1.334-.764h4.22v-.702a2.9 2.9 0 0 0-2.892-2.895c-1.35 0-2.486.94-2.796 2.203 0 0-.085.423-.085.698 0 .276.09.695.09.695.307 1.266 1.444 2.235 2.797 2.235Zm-.006-4.457c.579 0 1.082.356 1.332.815H3.172c.25-.459.754-.815 1.333-.815ZM6.94 3.389v.669c0 .086-.075.17-.163.17h-.896c-.088 0-.159-.084-.159-.17v-.67c0-.658-.545-1.194-1.217-1.194s-1.218.536-1.218 1.195v.669c0 .086-.077.17-.164.17h-.896c-.088 0-.157-.084-.157-.17v-.735C2.105 2.034 3.18 1 4.504 1 5.85 1 6.94 2.07 6.94 3.389Z"
    fill="#A41760" />
</svg>