<svg xmlns="http://www.w3.org/2000/svg" width="22" height="16" viewBox="0 0 22 16">
  <path d="M8.34,13.0906C8.0264,13.3449 7.6264,13.4967 7.193,13.4967H1.8165C0.8001,13.4967 0,12.647 0,11.6589V6.2536C0,5.3578 0.6451,4.6331 1.4801,4.4774C1.4074,4.3429 1.3697,4.1948 1.3697,4.0577V3.3464L1.3705,3.2924C1.4227,1.6191 2.8171,0.3 4.5041,0.3C6.2229,0.3 7.6398,1.67 7.6398,3.3887V4.0577C7.6398,4.2149 7.5969,4.3577 7.5301,4.4779C8.3729,4.6374 9.0096,5.3832 9.0096,6.2689L9.0088,6.8687C9.6556,5.9597 10.7114,5.3645 11.9072,5.3645C13.1437,5.3645 14.2271,5.9987 14.8645,6.9582C15.2281,6.0282 16.131,5.3645 17.1898,5.3645H20.7282V8.1721H20.6814C21.1988,8.6351 21.525,9.3092 21.525,10.0512C21.525,11.4057 20.4337,12.5588 19.0643,12.5786L19.0542,12.5788L11.1706,12.5787V15.7H8.34V13.0906Z" fill="#ffffff" fill-rule="evenodd"/>
  <path d="M19.0542,8.2372C20.0282,8.2513 20.825,9.0665 20.825,10.0512C20.825,11.0359 20.0282,11.8646 19.0542,11.8787H13.764C14.4249,11.6033 14.7504,11.0525 15.0852,10.4098H19.0289C19.2363,10.4098 19.405,10.2567 19.405,10.0488C19.405,9.8408 19.2363,9.6754 19.0289,9.6754H17.1898C16.1991,9.6754 15.3931,8.8634 15.3931,7.8699C15.3931,6.8765 16.1991,6.0645 17.1898,6.0645H20.0282V7.4721H17.1898C16.9825,7.4721 16.8137,7.6552 16.8137,7.8631C16.8137,8.0711 16.9825,8.2372 17.1898,8.2372H19.0542ZM11.9072,6.0645C13.4874,6.0645 14.7669,7.361 14.7669,8.9604C14.7669,10.5598 13.4844,11.8787 11.9042,11.8787H10.4706V15H9.04V8.9655C9.04,7.3661 10.3271,6.0645 11.9072,6.0645ZM11.9072,10.4098C12.7024,10.4098 13.3493,9.7703 13.3493,8.9604C13.3493,8.1504 12.7024,7.4915 11.9072,7.4915C11.1121,7.4915 10.4706,8.1504 10.4706,8.9604V10.4098H11.9072Z" fill="#5F6360"/>
  <path d="M4.5109,11.8787H8.2926C8.2038,12.3989 7.7441,12.7967 7.193,12.7967H1.8164C1.2024,12.7967 0.7,12.2763 0.7,11.6589V6.2536C0.7,5.6363 1.2024,5.1465 1.8164,5.1465H7.193C7.8071,5.1465 8.3095,5.6515 8.3095,6.2689L8.3043,10.4098H4.5109C3.9297,10.4098 3.4258,10.1344 3.1766,9.6448H7.3964V8.9426C7.3964,7.3458 6.093,6.0478 4.5048,6.0478C3.1543,6.0478 2.0185,6.9881 1.7085,8.251C1.7085,8.251 1.6243,8.6739 1.6243,8.9495C1.6243,9.2251 1.7133,9.6437 1.7133,9.6437C2.021,10.9096 3.1582,11.8787 4.5109,11.8787ZM4.5048,7.4218C5.0837,7.4218 5.5872,7.7781 5.8374,8.2372H3.1721C3.4223,7.7781 3.9258,7.4218 4.5048,7.4218ZM6.9398,3.3887V4.0577C6.9398,4.1435 6.8645,4.2284 6.777,4.2284H5.8808C5.7933,4.2284 5.7222,4.1435 5.7222,4.0577V3.3887C5.7222,2.7299 5.1765,2.1939 4.5047,2.1939C3.833,2.1939 3.2872,2.7299 3.2872,3.3887V4.0577C3.2872,4.1435 3.2104,4.2284 3.1229,4.2284H2.2268C2.1392,4.2284 2.0697,4.1435 2.0697,4.0577V3.3398C2.0697,3.3342 2.0692,3.3289 2.0698,3.3235C2.1051,2.0345 3.1811,1 4.504,1C5.8492,1 6.9398,2.0694 6.9398,3.3887Z" fill="#A41760"/>
</svg>
