<svg xmlns="http://www.w3.org/2000/svg" width="32" height="32" viewBox="0 0 32 32">
  <path d="M2,0L30,0A2,2 0,0 1,32 2L32,30A2,2 0,0 1,30 32L2,32A2,2 0,0 1,0 30L0,2A2,2 0,0 1,2 0z" fill="#ffffff"/>
  <path d="M11.725,10.936H8V26H11.725V10.936ZM23.408,11.797C23.408,8.601 20.805,6 17.605,6H8V9.217H17.149C18.597,9.217 19.796,10.355 19.823,11.753C19.836,12.453 19.573,13.114 19.083,13.613C18.592,14.113 17.937,14.389 17.237,14.389H13.674C13.547,14.389 13.444,14.491 13.444,14.618V17.477C13.444,17.526 13.459,17.572 13.487,17.611L19.534,26H23.96L17.899,17.588C20.952,17.435 23.408,14.871 23.408,11.797Z" fill="#191C1F" fill-rule="evenodd"/>
</svg>
