<svg viewBox="0 0 12 16" fill="none" xmlns="http://www.w3.org/2000/svg" role="presentation" focusable="false">
  <path
    d="M0 8.138v-.345C0 4.11 3.33 1 7.272 1c1.482 0 2.539.169 3.422.545v1.2c-.849-.514-1.905-.744-3.422-.744a6.365 6.365 0 0 0-4.368 1.731C1.738 4.828 1.069 6.31 1.069 7.792v.346c0 1.572.584 3.032 1.646 4.111 1.066 1.085 2.513 1.68 4.076 1.68 2.397 0 3.62-.863 4.136-1.38l.004-.003V8.19h-4.4V7.12H12v5.757c-.035.05-.436.596-1.341 1.136-1.098.653-2.4.986-3.868.986a6.723 6.723 0 0 1-4.81-1.99C.703 11.723 0 9.993 0 8.138Z"
    fill="#1AAE48" />
  <path
    d="M10.694 3.539v1.265c-.829-.682-1.793-.946-3.422-.946-2.356 0-4.346 1.802-4.346 3.935v.345c0 1.065.4 2.058 1.13 2.796a3.813 3.813 0 0 0 2.735 1.139c1.306 0 2.004-.278 2.34-.413h.003l.01-.004v-1.609H6.53V8.978h3.613v3.211c-.232.23-1.14.954-3.353.954-2.721 0-4.934-2.245-4.934-5.005v-.345c0-1.324.569-2.577 1.601-3.53a5.608 5.608 0 0 1 3.814-1.475c1.4 0 2.455.232 3.422.751Z"
    fill="#1AAE48" />
</svg>