<svg width="16" height="16" viewBox="0 0 16 16" fill="none" xmlns="http://www.w3.org/2000/svg">
<path fill-rule="evenodd" clip-rule="evenodd" d="M0 3.5C0 2.67157 0.671573 2 1.5 2H14.5C15.3284 2 16 2.67157 16 3.5V5.7468L16 5.75L16 5.7532V12.5C16 13.3284 15.3284 14 14.5 14H1.5C0.671573 14 0 13.3284 0 12.5V3.5ZM1.5 3.5H14.5V5H1.5V3.5ZM14.5 6.5V12.5H1.5V6.5H14.5Z" fill="black"/>
<path fill-rule="evenodd" clip-rule="evenodd" d="M7 10.25C7 9.83579 7.33579 9.5 7.75 9.5H12.25C12.6642 9.5 13 9.83579 13 10.25C13 10.6642 12.6642 11 12.25 11H7.75C7.33579 11 7 10.6642 7 10.25Z" fill="black"/>
</svg>
