<svg
    xmlns="http://www.w3.org/2000/svg"
    viewBox="0 0 31 21"
    id="vector">
    <g
        id="group"
        transform="translate(1 1)">
        <path
            id="path"
            d="M 26.58 19 L 2.42 19 C 1.783 19.005 1.171 18.758 0.717 18.311 C 0.263 17.865 0.005 17.257 0 16.62 L 0 2.38 C 0.005 1.743 0.263 1.135 0.717 0.689 C 1.171 0.242 1.783 -0.005 2.42 0 L 26.58 0 C 27.217 -0.005 27.829 0.242 28.283 0.689 C 28.737 1.135 28.995 1.743 29 2.38 L 29 16.63 C 28.984 17.952 27.902 19.011 26.58 19 Z"
            fill="#000000"
            fill-opacity="0"
            stroke="#000000"
            stroke-width="1"/>
        <path
            id="path_1"
            d="M 5 11.82 C 5.738 12.032 6.502 12.14 7.27 12.14 C 9.38 12.14 10 11.2 10 10.02 L 10 7 L 8.1 7 L 8.1 10.02 C 8.1 10.76 7.67 11.3 6.9 11.3 C 6.227 11.274 5.573 11.074 5 10.72 L 5 5 C 5 3.12 6.09 2 7 2 L 11 2 L 11 15 C 11 15.88 9.91 17 9 17 L 5 17 L 5 11.82 Z"
            fill="#000000"
            stroke-width="1"/>
        <path
            id="path_2"
            d="M 12 11.3 C 12.58 11.86 13.58 12.21 15.2 12.13 C 16.08 12.09 17 11.82 17 11.82 L 17 10.72 C 16.474 11.04 15.883 11.238 15.27 11.3 C 14.04 11.4 13.29 10.71 13.29 9.5 C 13.29 8.29 14.04 7.6 15.27 7.71 C 15.882 7.767 16.474 7.962 17 8.28 L 17 7.17 C 17 7.17 16.08 6.91 15.2 6.87 C 13.58 6.79 12.58 7.14 12 7.7 L 12 5 C 12 3.12 13.09 2 14 2 L 18 2 L 18 15 C 18 15.88 16.91 17 16 17 L 12 17 L 12 11.3 Z"
            fill="#000000"
            stroke-width="1"/>
        <path
            id="path_3"
            d="M 19 12 L 22.55 12 C 23.38 12 24 11.5 24 10.7 C 24 9.97 23.43 9.5 22.69 9.45 L 22.69 9.42 C 23.36 9.3 23.73 8.8 23.73 8.22 C 23.73 7.48 23.19 7.05 22.46 7.01 L 22.23 7 L 19 7 L 19 5 C 19 3.12 20.09 2 21 2 L 25 2 L 25 15 C 25 15.88 23.91 17 23 17 L 19 17 L 19 12 Z M 21.45 7.79 C 21.7 7.84 21.91 8.07 21.91 8.41 C 21.91 8.75 21.7 8.98 21.45 9.04 L 20.12 9.04 L 20.12 7.78 L 21.32 7.78 C 21.364 7.78 21.407 7.784 21.45 7.79 Z M 21.6 9.83 C 21.86 9.9 22.06 10.15 22.06 10.5 C 22.06 10.85 21.85 11.11 21.6 11.17 L 21.44 11.19 L 20.12 11.19 L 20.12 9.82 L 21.44 9.82 C 21.494 9.818 21.547 9.822 21.6 9.83 Z"
            fill="#000000"
            stroke-width="1"/>
    </g>
</svg>
