<svg xmlns="http://www.w3.org/2000/svg" width="24.00" height="18.29" viewBox="0 0 21 16">
  <path d="M16.8928,16H1.9671C1.5872,16 1.2404,15.7795 1.0732,15.4316C0.2879,13.7983 -0.0768,11.9879 0.0135,10.171C0.1037,8.3541 0.6459,6.5906 1.589,5.0467C2.5321,3.5027 3.8451,2.2293 5.4041,1.3463C6.9631,0.4633 8.7169,0 10.5,0C12.2831,0 14.0369,0.4633 15.5959,1.3463C17.1549,2.2293 18.4679,3.5027 19.411,5.0467C20.3541,6.5906 20.8963,8.3541 20.9865,10.171C21.0768,11.9879 20.7121,13.7983 19.9268,15.4316C19.7596,15.7795 19.4128,16 19.0329,16H16.8928Z" fill="#ffffff"/>
  <path d="M4.1221,14.75C3.3635,13.5916 2.9322,12.2495 2.8737,10.8658C2.8152,9.4822 3.1318,8.1085 3.7899,6.8901C4.448,5.6717 5.4232,4.654 6.6122,3.9448C7.8011,3.2355 9.1597,2.8611 10.544,2.8611C11.9283,2.8611 13.2869,3.2355 14.4758,3.9448C15.6648,4.654 16.64,5.6717 17.2981,6.8901C17.9562,8.1085 18.2728,9.4822 18.2143,10.8658C18.1558,12.2495 17.7245,13.5916 16.9659,14.75H19.1152C19.8292,13.2941 20.1607,11.6804 20.0787,10.0608C19.9966,8.4412 19.5037,6.8693 18.6462,5.4931C17.7888,4.1168 16.5952,2.9817 15.178,2.1947C13.7607,1.4077 12.1664,0.9948 10.5455,0.9948C8.9245,0.9948 7.3302,1.4077 5.913,2.1947C4.4957,2.9817 3.3021,4.1168 2.4447,5.4931C1.5873,6.8693 1.0943,8.4412 1.0122,10.0608C0.9302,11.6804 1.2617,13.2941 1.9757,14.75H4.1221Z" fill="#4A4AF4"/>
  <path d="M10.6737,6.0114C9.2757,6.0114 7.6666,6.6714 6.7929,7.3677L7.5894,9.0475C8.2899,8.4065 9.4228,7.8587 10.4436,7.8587C11.4149,7.8587 11.9493,8.1821 11.9493,8.8377C11.9493,9.2747 11.594,9.5253 10.9227,9.5865C8.4049,9.8181 6.4478,10.6062 6.4478,12.5394C6.4478,14.0735 7.553,15 9.3718,15C9.9186,15.0007 10.4557,14.8558 10.9279,14.58C11.4001,14.3043 11.7903,13.9077 12.0585,13.431V14.7494H14.3273V9.2223C14.3273,6.9394 12.74,6.0173 10.6737,6.0173V6.0114ZM10.0111,13.2271C9.283,13.2271 8.8738,12.9124 8.8738,12.3967C8.8738,11.3186 10.1844,11.0593 11.9027,11.0593C11.9027,12.1869 11.1484,13.2271 10.0096,13.2271H10.0111Z" fill="#060809"/>
</svg>
