<svg width="56" height="40" viewBox="0 0 56 40" fill="none" xmlns="http://www.w3.org/2000/svg">
<path fill-rule="evenodd" clip-rule="evenodd" d="M15.1104 13.033C15.1104 12.1855 15.7733 11.5 16.5929 11.5C17.4125 11.5 18.0754 12.1855 18.0754 13.033C18.0754 13.8805 17.4125 14.566 16.5929 14.566C15.7733 14.566 15.1104 13.8805 15.1104 13.033ZM10 11.662H12.6516V28.2632H10V11.662ZM45.8689 16.423C44.3382 19.8006 42.6267 22.2558 42.6267 22.2558L46.2667 28.2507H43.133L40.8912 24.5491C38.6493 27.2038 36.4196 28.5 34.2742 28.5C31.6588 28.5 30.5861 26.5682 30.5861 24.3746C30.5861 24.1296 30.5893 23.8279 30.5924 23.5367L30.5924 23.5365V23.5363C30.5953 23.2648 30.5981 23.0026 30.5981 22.8042C30.5981 19.9003 30.3089 19.0777 29.3567 19.2148C27.5367 19.4765 24.7766 23.7514 22.9808 28.2632H20.4859V16.423H23.1375V22.3182C24.6561 19.6884 26.0422 17.4201 28.2719 16.5476C29.5616 16.0366 30.6584 16.261 31.2249 16.5227C33.2859 17.4575 33.2738 19.7507 33.2497 22.8167C33.2377 23.228 33.2377 23.6642 33.2377 24.1253C33.2377 25.247 33.539 25.7331 34.2742 25.8079C34.9853 25.8827 35.5277 25.5212 35.5277 25.5212V11.662H38.1793V23.552C38.1793 23.552 40.4814 21.3834 42.916 16.423H45.8689ZM17.9186 16.423H15.2669V28.2632H17.9186V16.423Z" fill="white"/>
</svg>
