<svg width="18" height="16" viewBox="0 0 18 16" fill="none" xmlns="http://www.w3.org/2000/svg">
<g clip-path="url(#clip0_788_23085)">
<path fill-rule="evenodd" clip-rule="evenodd" d="M0 2.75C0 1.23121 1.23122 0 2.75 0H10C14.4183 0 18 3.58173 18 8C18 12.4183 14.4183 16 10 16H2.75C1.23122 16 0 14.7688 0 13.25V2.75Z" fill="white"/>
<path d="M4.43316 7.51624C5.04791 7.51624 5.54626 7.01789 5.54626 6.40314C5.54626 5.78839 5.04791 5.29004 4.43316 5.29004C3.81842 5.29004 3.32007 5.78839 3.32007 6.40314C3.32007 7.01789 3.81842 7.51624 4.43316 7.51624Z" fill="black"/>
<path d="M5.27266 12.0043C4.33814 12.0043 3.58813 11.2483 3.58813 10.3198V9.0043C3.58813 8.54001 3.96314 8.15906 4.43338 8.15906C4.89766 8.15906 5.27862 8.53406 5.27862 9.0043V12.0043H5.27266Z" fill="black"/>
<path fill-rule="evenodd" clip-rule="evenodd" d="M1 2.75C1 1.7835 1.7835 1 2.75 1H10C13.866 1 17 4.13401 17 8C17 11.866 13.866 15 10 15H2.75C1.7835 15 1 14.2165 1 13.25V2.75ZM2.75 2C2.33579 2 2 2.33579 2 2.75V13.25C2 13.6642 2.33579 14 2.75 14H10C13.3137 14 16 11.3137 16 8C16 4.68629 13.3137 2 10 2H2.75Z" fill="black"/>
<path d="M6.55005 4.56079V12H9.78773C12.7275 12 14.0024 10.3395 14.0024 7.99124C14.0024 5.7437 12.7275 4 9.78773 4H7.11084C6.79977 4 6.55005 4.25411 6.55005 4.56079Z" fill="#E60073"/>
</g>
<defs>
<clipPath id="clip0_788_23085">
<rect width="18" height="16" fill="white"/>
</clipPath>
</defs>
</svg>
