<svg width="24" height="16" viewBox="0 0 24 16" fill="none" xmlns="http://www.w3.org/2000/svg">
<path d="M22 0H2C0.89543 0 0 0.89543 0 2V14C0 15.1046 0.89543 16 2 16H22C23.1046 16 24 15.1046 24 14V2C24 0.89543 23.1046 0 22 0Z" fill="#016FD0"/>
<path fill-rule="evenodd" clip-rule="evenodd" d="M13.764 13.3939V7.69247L23.9116 7.70158V9.27647L22.7387 10.5299L23.9116 11.7948V13.4031H22.039L21.0438 12.3049L20.0557 13.4072L13.764 13.3939Z" fill="#FFFFFE"/>
<path fill-rule="evenodd" clip-rule="evenodd" d="M14.4419 12.7688V8.31992H18.2142V9.3448H15.6633V10.0405H18.1534V11.0483H15.6633V11.7316H18.2142V12.7688H14.4419Z" fill="#016FD0"/>
<path fill-rule="evenodd" clip-rule="evenodd" d="M18.1953 12.7688L20.2826 10.5418L18.1952 8.32001H19.8108L21.0863 9.73004L22.3654 8.32001H23.9116V8.35501L21.8687 10.5418L23.9116 12.7057V12.7688H22.3499L21.0518 11.3446L19.767 12.7688H18.1953Z" fill="#016FD0"/>
<path fill-rule="evenodd" clip-rule="evenodd" d="M14.2374 2.63196H16.6834L17.5426 4.58281V2.63196H20.5624L21.0832 4.09353L21.6057 2.63196H23.9116V8.33335H11.7251L14.2374 2.63196Z" fill="#FFFFFE"/>
<path fill-rule="evenodd" clip-rule="evenodd" d="M14.7005 3.25137L12.7264 7.69654H14.0803L14.4528 6.80638H16.4707L16.8429 7.69654H18.2304L16.2647 3.25137H14.7005ZM14.8701 5.80881L15.4621 4.39374L16.0536 5.80881H14.8701Z" fill="#016FD0"/>
<path fill-rule="evenodd" clip-rule="evenodd" d="M18.2119 7.69572V3.25064L20.115 3.25718L21.0943 5.98991L22.0799 3.25064H23.9115V7.69572L22.7329 7.70615V4.65281L21.6204 7.69572H20.5446L19.4089 4.64238V7.69572H18.2119Z" fill="#016FD0"/>
</svg>
