<svg xmlns="http://www.w3.org/2000/svg" viewBox="0 0 32 32"><g fill="none" fill-rule="evenodd"><path fill="#00539B" d="M0 0h32v32H0z"/><path d="M26.125 17.068h-2.3l1.15-3.55 1.15 3.55zm-.36-4.96c.62 0 .77.14 1 .8l2.54 6.98h-2.26l-.54-1.68h-3.04l-.54 1.68h-1.3l2.55-7.78h1.59zm-4.47 0h1.26l-2.44 7.78h-1.92l-2.63-7.78h1.42c.55 0 .7.14.98 1.02l1.51 4.89 1.82-5.91m-8.86 3.42l.66-.96c.16-.25.2-.4.2-.57 0-.48-.42-.87-.91-.87h-1.02v5.72h.57c.93 0 1.65-.5 1.65-1.67 0-.97-.46-1.48-1.15-1.65zm.4 4.36h-3.33v-7.78h3.43c1.61 0 2.18 1.3 1.36 2.49l-.39.56c2.7 1.38 1.83 4.73-1.09 4.73zm-7.33-4.36l.66-.96c.17-.25.2-.4.2-.57 0-.48-.42-.87-.91-.87h-1v5.72h.56c.94 0 1.65-.5 1.65-1.67 0-.97-.46-1.48-1.15-1.65zm.4 4.36h-3.31v-7.78h3.44c1.6 0 2.17 1.3 1.35 2.49l-.38.56c2.7 1.38 1.82 4.73-1.1 4.73z" fill="#FFF"/></g></svg>