<svg width="32" height="32" viewBox="0 0 32 32" fill="none" xmlns="http://www.w3.org/2000/svg">
    <rect width="32" height="32" fill="#5B79FF"/>
    <path d="M15.9876 19.9057C18.0978 19.2638 19.8831 18.9411 21.3434 18.9375C23.7577 18.9315 25.7819 19.4098 27.416 20.3724V13.3723C25.7736 12.5235 23.9179 12.0704 21.8489 12.013C19.7798 11.9556 17.8261 12.3762 15.9876 13.2747V19.9057Z" fill="white"/>
    <path clip-rule="evenodd" d="M12.5591 12.2841L15.1635 18.4714V12.5417C16.5357 11.8083 17.9883 11.3383 19.5215 11.1317C21.0546 10.9251 22.7973 10.9584 24.7494 11.2317L23.3329 7.85391C21.2809 7.72165 19.3261 8.05161 17.4684 8.84379C15.6108 9.63597 13.9744 10.7827 12.5591 12.2841Z" fill="white"/>
    <path d="M17.4672 7.89495C17.2397 7.34298 16.8984 6.51503 16.4434 5.41108C15.9646 4.24928 14.6385 3.69404 13.4815 4.17091L6.40076 7.08937C5.24379 7.56624 4.69408 8.89464 5.17294 10.0564L11.9871 26.5889C12.466 27.7507 13.7921 28.306 14.9491 27.8291L22.0298 24.9106C23.1867 24.4338 23.7365 23.1054 23.2576 21.9436C22.8261 20.8966 22.5445 20.2133 22.4128 19.8939C22.0277 19.8715 21.7459 19.858 21.5674 19.8535C21.379 19.8488 21.1105 19.8484 20.7618 19.8524C20.9315 20.2639 21.2979 21.1529 21.861 22.5192C22.0206 22.9065 21.8374 23.3493 21.4517 23.5082L14.371 26.4267C13.9854 26.5856 13.5433 26.4006 13.3837 26.0133L6.56952 9.48081C6.4099 9.09354 6.59314 8.65074 6.9788 8.49178L14.0595 5.57332C14.4452 5.41437 14.8872 5.59945 15.0468 5.98671L16.0816 8.49733C16.4015 8.34129 16.6474 8.22882 16.8193 8.15993C16.9913 8.09103 17.2072 8.00271 17.4672 7.89495Z" fill="white"/>
</svg>