<svg xmlns="http://www.w3.org/2000/svg" width="16" height="16" viewBox="0 0 16 16">
  <path d="M7.353,10.604c1.412,-0.428 2.606,-0.643 3.583,-0.646 1.616,-0.004 2.97,0.315 4.064,0.957V6.248c-1.099,-0.566 -2.34,-0.868 -3.725,-0.906a8.306,8.306 0,0 0,-3.922 0.841v4.42Z" fill="#fff"/>
  <path d="m5.058,5.523 l1.743,4.125V5.694a8.589,8.589 0,0 1,2.916 -0.94c1.026,-0.137 2.192,-0.115 3.499,0.067l-0.948,-2.252a8.505,8.505 0,0 0,-3.925 0.66,9.71 9.71,0 0,0 -3.285,2.294Z" fill="#fff"/>
  <path d="M8.343,2.597 L7.658,0.94A1.521,1.521 0,0 0,5.676 0.114L0.937,2.06a1.512,1.512 0,0 0,-0.821 1.978l4.56,11.021a1.521,1.521 0,0 0,1.982 0.827l4.738,-1.946a1.512,1.512 0,0 0,0.821 -1.978l-0.565,-1.366a19.157,19.157 0,0 0,-0.566 -0.027,16.163 16.163,0 0,0 -0.539,0l0.736,1.777a0.504,0.504 0,0 1,-0.274 0.66L6.27,14.95a0.507,0.507 0,0 1,-0.66 -0.276L1.05,3.654a0.504,0.504 0,0 1,0.273 -0.66L6.062,1.05a0.507,0.507 0,0 1,0.661 0.275l0.692,1.674c0.214,-0.104 0.379,-0.179 0.494,-0.225l0.434,-0.176Z" fill="#fff"/>
</svg>
