<svg xmlns="http://www.w3.org/2000/svg" width="32" height="32" viewBox="0 0 32 32">
  <path d="M0,0h32v32h-32z" fill="#5B79FF"/>
  <path d="M15.988,19.906C18.098,19.264 19.883,18.941 21.343,18.938C23.758,18.931 25.782,19.41 27.416,20.372V13.372C25.774,12.524 23.918,12.07 21.849,12.013C19.78,11.956 17.826,12.376 15.988,13.275V19.906Z" fill="#ffffff"/>
  <path d="M12.559,12.284L15.163,18.471V12.542C16.536,11.808 17.988,11.338 19.521,11.132C21.055,10.925 22.797,10.958 24.749,11.232L23.333,7.854C21.281,7.722 19.326,8.052 17.468,8.844C15.611,9.636 13.974,10.783 12.559,12.284Z" fill="#ffffff"/>
  <path d="M17.467,7.895C17.24,7.343 16.898,6.515 16.443,5.411C15.965,4.249 14.639,3.694 13.481,4.171L6.401,7.089C5.244,7.566 4.694,8.895 5.173,10.056L11.987,26.589C12.466,27.751 13.792,28.306 14.949,27.829L22.03,24.911C23.187,24.434 23.736,23.105 23.258,21.944C22.826,20.897 22.545,20.213 22.413,19.894C22.028,19.872 21.746,19.858 21.567,19.854C21.379,19.849 21.111,19.848 20.762,19.852C20.931,20.264 21.298,21.153 21.861,22.519C22.021,22.906 21.837,23.349 21.452,23.508L14.371,26.427C13.985,26.586 13.543,26.401 13.384,26.013L6.57,9.481C6.41,9.094 6.593,8.651 6.979,8.492L14.059,5.573C14.445,5.414 14.887,5.599 15.047,5.987L16.082,8.497C16.402,8.341 16.647,8.229 16.819,8.16C16.991,8.091 17.207,8.003 17.467,7.895Z" fill="#ffffff"/>
</svg>
