<svg width="26" height="17" viewBox="0 0 26 17" fill="none" xmlns="http://www.w3.org/2000/svg">
<path d="M22 1H2C0.89543 1 0 1.89543 0 3V15C0 16.1046 0.89543 17 2 17H22C23.1046 17 24 16.1046 24 15V3C24 1.89543 23.1046 1 22 1Z" fill="#252525"/>
<path d="M9 14C11.7614 14 14 11.7614 14 9C14 6.23858 11.7614 4 9 4C6.23858 4 4 6.23858 4 9C4 11.7614 6.23858 14 9 14Z" fill="#EB001B"/>
<path d="M15 14C17.7614 14 20 11.7614 20 9C20 6.23858 17.7614 4 15 4C12.2386 4 10 6.23858 10 9C10 11.7614 12.2386 14 15 14Z" fill="#F79E1B"/>
<path fill-rule="evenodd" clip-rule="evenodd" d="M12 4.99963C13.2144 5.91184 14 7.36418 14 9C14 10.6358 13.2144 12.0882 12 13.0004C10.7856 12.0882 10 10.6358 10 9C10 7.36418 10.7856 5.91184 12 4.99963Z" fill="#FF5F00"/>
</svg>
