<svg
    xmlns="http://www.w3.org/2000/svg"
    viewBox="0 0 30 13"
    id="vector">
    <path
        id="path"
        d="M 4.178 1.172 C 4.178 0.524 4.72 0 5.39 0 C 6.06 0 6.601 0.524 6.601 1.172 C 6.601 1.82 6.06 2.345 5.39 2.345 C 4.72 2.345 4.178 1.82 4.178 1.172 Z M 0 0.124 L 2.168 0.124 L 2.168 12.819 L 0 12.819 L 0 0.124 Z M 29.322 3.765 C 28.071 6.347 26.671 8.225 26.671 8.225 L 29.647 12.809 L 27.085 12.809 L 25.253 9.979 C 23.42 12.009 21.597 13 19.844 13 C 17.705 13 16.829 11.523 16.829 9.845 C 16.829 9.658 16.831 9.427 16.834 9.204 L 16.834 9.204 L 16.834 9.204 C 16.836 8.997 16.838 8.796 16.838 8.644 C 16.838 6.424 16.602 5.795 15.824 5.9 C 14.336 6.1 12.08 9.369 10.611 12.819 L 8.572 12.819 L 8.572 3.765 L 10.74 3.765 L 10.74 8.273 C 11.981 6.262 13.114 4.527 14.937 3.86 C 15.991 3.469 16.888 3.641 17.351 3.841 C 19.036 4.556 19.026 6.309 19.006 8.654 C 18.996 8.968 18.996 9.302 18.996 9.654 L 18.996 9.655 C 18.996 10.512 19.243 10.884 19.844 10.941 C 20.425 10.998 20.868 10.722 20.868 10.722 L 20.868 0.124 L 23.036 0.124 L 23.036 9.216 C 23.036 9.216 24.918 7.558 26.908 3.765 L 29.322 3.765 Z M 6.473 3.765 L 4.306 3.765 L 4.306 12.819 L 6.473 12.819 L 6.473 3.765 Z"
        fill="#000000"
        fill-rule="evenodd"/>
</svg>
