<svg
    xmlns="http://www.w3.org/2000/svg"
    viewBox="0 0 26 18"
    id="vector">
    <path
        id="path"
        d="M 0 2.503 C 0 1.121 1.117 0 2.493 0 L 23.507 0 C 24.884 0 26 1.126 26 2.503 L 26 15.497 C 26 16.879 24.883 18 23.507 18 L 2.493 18 C 1.116 18 0 16.874 0 15.497 L 0 2.503 Z M 11.931 6.124 L 11.931 6.124 L 10.147 6.124 L 8.672 12.893 L 10.456 12.893 L 11.931 6.124 Z M 21.428 12.893 L 23.077 12.893 L 21.635 6.124 L 20.114 6.124 C 19.771 6.124 19.483 6.319 19.354 6.62 L 16.678 12.893 L 18.552 12.893 L 18.923 11.882 L 21.211 11.882 L 21.428 12.893 L 21.428 12.893 Z M 19.436 10.495 L 20.375 7.952 L 20.916 10.495 L 19.437 10.495 L 19.436 10.495 Z M 16.77 10.683 C 16.778 8.896 14.254 8.797 14.271 7.999 C 14.277 7.757 14.512 7.499 15.028 7.432 C 15.283 7.4 15.988 7.374 16.788 7.735 L 17.101 6.299 C 16.671 6.147 16.119 6 15.432 6 C 13.668 6 12.427 6.92 12.417 8.238 C 12.406 9.212 13.303 9.756 13.979 10.08 C 14.674 10.412 14.908 10.625 14.904 10.921 C 14.899 11.375 14.349 11.577 13.838 11.584 C 12.94 11.597 12.42 11.346 12.005 11.156 L 11.681 12.64 C 12.099 12.828 12.868 12.991 13.665 13 C 15.54 13 16.766 12.09 16.772 10.683 L 16.77 10.683 Z M 9.383 6.124 L 9.382 6.124 L 7.508 6.124 L 5.652 10.731 L 4.901 6.813 C 4.812 6.376 4.464 6.124 4.078 6.124 L 1.042 6.124 L 1 6.32 C 1.623 6.453 2.331 6.667 2.759 6.896 C 3.022 7.037 3.097 7.158 3.183 7.491 L 4.606 12.893 L 6.492 12.893 L 9.383 6.124 Z"
        fill="#8e8e93"
        stroke="#00000000"
        stroke-width="1"/>
</svg>
