<svg width="30" height="14" viewBox="0 0 30 14" fill="none" xmlns="http://www.w3.org/2000/svg">
<path fill-rule="evenodd" clip-rule="evenodd" d="M16.1538 0.358974V6.5812H26.0855C27.8037 6.5812 29.1966 5.1883 29.1966 3.47009C29.1966 1.75187 27.8037 0.358974 26.0855 0.358974H16.1538ZM15.3066 6.5812C15.2501 5.35731 14.9448 4.25973 14.4301 3.32779C13.8574 2.29075 13.0255 1.45881 11.9885 0.886118C10.9514 0.313429 9.70929 0 8.31624 0H7C5.60695 0 4.36483 0.313429 3.32779 0.886118C2.29075 1.45881 1.45881 2.29075 0.886117 3.32779C0.313429 4.36483 0 5.60695 0 7C0 8.39305 0.313429 9.63517 0.886117 10.6722C1.45881 11.7092 2.29075 12.5412 3.32779 13.1139C4.36483 13.6866 5.60695 14 7 14H8.31624C9.70929 14 10.9514 13.6866 11.9885 13.1139C13.0255 12.5412 13.8574 11.7092 14.4301 10.6722C14.9448 9.74026 15.2501 8.64269 15.3066 7.4188H7.89744V6.5812H15.3066ZM16.1538 7.4188V13.641H26.0855C27.8037 13.641 29.1966 12.2481 29.1966 10.5299C29.1966 8.8117 27.8037 7.4188 26.0855 7.4188H16.1538Z" fill="url(#paint0_linear_2894_25434)"/>
<defs>
<linearGradient id="paint0_linear_2894_25434" x1="24.6917" y1="-0.302858" x2="19.1942" y2="17.9744" gradientUnits="userSpaceOnUse">
<stop stop-color="#002253"/>
<stop offset="0.242548" stop-color="#0082B1"/>
<stop offset="1" stop-color="#0E9641"/>
</linearGradient>
</defs>
</svg>
