<svg width="16" height="16" viewBox="0 0 16 16" fill="none" xmlns="http://www.w3.org/2000/svg">
<rect width="16" height="16" rx="3" fill="#2E333A"/>
<path fill-rule="evenodd" clip-rule="evenodd" d="M12.288 12.9449C13.2852 12.9449 13.2952 11.8826 13.1936 11.3581C13.1381 11.0056 12.5405 11.0085 12.4747 11.3581V11.7673C12.4747 11.9542 12.3219 12.1073 12.1353 12.1073H3.76227C3.57569 12.1073 3.42305 11.9542 3.42305 11.7673V11.3581C3.35725 11.0085 2.75959 11.0056 2.70409 11.3581C2.60262 11.8826 2.6124 12.9449 3.60972 12.9449H12.288ZM11.5671 2.76978C12.0403 2.76978 12.4273 3.18032 12.4273 3.68215V4.1182C12.4273 4.73466 11.594 4.73232 11.594 4.12237V3.88416C11.594 3.73265 11.4704 3.60873 11.3192 3.60873H4.57136C4.42019 3.60873 4.29656 3.73265 4.29656 3.88416V4.11751C4.29656 4.73059 3.50244 4.72625 3.50244 4.13078V3.68215C3.50244 3.18032 3.88954 2.76978 4.36262 2.76978H11.5671Z" fill="#3A74C4"/>
<path d="M8.31783 10.3805C8.55948 10.3548 8.73463 10.1375 8.70892 9.89533L8.28381 5.9745L8.28364 5.97346L8.28346 5.97181C8.27835 5.92607 8.26892 5.8806 8.25506 5.836C8.24173 5.7927 8.22372 5.75 8.20164 5.70835C8.09307 5.50399 7.89325 5.36064 7.65489 5.32757L7.65403 5.3274C7.64606 5.32636 7.63818 5.32549 7.6303 5.3248C7.5929 5.32089 7.55567 5.31976 7.51905 5.3215L7.51732 5.32159C7.4697 5.32384 7.42519 5.32974 7.38424 5.33929C7.15688 5.39248 6.96372 5.55103 6.87281 5.78246L5.78459 8.55298L4.69628 5.78246C4.60537 5.55103 4.41221 5.39248 4.18485 5.33929C4.14381 5.32974 4.09931 5.32376 4.05177 5.3215H4.05004C4.01351 5.31976 3.97636 5.32089 3.93905 5.3248C3.93108 5.32549 3.92303 5.32636 3.91506 5.3274L3.9142 5.32757C3.67584 5.36064 3.4761 5.50399 3.36753 5.70835C3.34537 5.75 3.32745 5.7927 3.31403 5.836C3.30017 5.8806 3.29056 5.92607 3.28545 5.97172V5.97346L3.28528 5.9745L2.86017 9.89533C2.83446 10.1375 3.00952 10.3548 3.25125 10.3805C3.4929 10.4063 3.70961 10.2308 3.73532 9.98853L4.09593 6.6629L5.37454 9.91807L5.37697 9.92397L5.37749 9.92545L5.38 9.93126L5.38251 9.93699L5.38459 9.94159L5.38693 9.94662L5.38944 9.95183L5.39091 9.95495L5.39506 9.96285L5.39541 9.96371L5.39922 9.97066L5.40138 9.97447C5.41498 9.99869 5.43056 10.0212 5.44796 10.0419L5.44944 10.0435C5.45368 10.0486 5.45792 10.0534 5.46234 10.0581C5.46493 10.0609 5.46789 10.064 5.47057 10.0668C5.47146 10.0677 5.47236 10.0686 5.47325 10.0695C5.4768 10.0731 5.48052 10.0766 5.48424 10.0801C5.48884 10.0844 5.49378 10.0887 5.49854 10.0928L5.49905 10.0933L5.50069 10.0947C5.52138 10.1122 5.54381 10.1279 5.56796 10.1415L5.57186 10.1436L5.5787 10.1473L5.57948 10.1479L5.58753 10.1519L5.59056 10.1535L5.59584 10.156L5.60078 10.1583L5.60537 10.1604L5.61108 10.163L5.61697 10.1653L5.61844 10.166L5.62433 10.1683C5.67169 10.1869 5.72035 10.1967 5.7684 10.1984L5.77394 10.1986L5.78 10.1987H5.78909L5.79532 10.1986L5.80052 10.1984C5.84355 10.1969 5.88693 10.1889 5.92952 10.174L5.9329 10.1728L5.94242 10.1693L5.94476 10.1683L5.94883 10.1668L5.95333 10.1649L5.95809 10.1629L5.96355 10.1605L5.96814 10.1584L5.97342 10.1559L5.97835 10.1536L5.9819 10.1518L5.98961 10.1478L5.99827 10.1431L6.00017 10.142C6.02779 10.1265 6.05325 10.1085 6.07628 10.088L6.08286 10.082L6.08416 10.0809C6.11957 10.048 6.14987 10.0088 6.17342 9.96432L6.17463 9.96198L6.17801 9.9553L6.17948 9.95235L6.18251 9.94601L6.18441 9.94193L6.18745 9.93517L6.18814 9.93352L6.19099 9.92675L6.19454 9.91816L6.19593 9.91469L7.47316 6.6629L7.83377 9.98853C7.85939 10.2308 8.07619 10.4063 8.31783 10.3805Z" fill="white"/>
<path fill-rule="evenodd" clip-rule="evenodd" d="M13.0458 8.977C13.0458 8.45582 12.7238 8.00189 12.2574 7.782C12.4991 7.53009 12.6483 7.18862 12.6483 6.81383C12.6483 6.04403 12.0192 5.41412 11.2503 5.41412H9.42367C9.22211 5.41412 9.05726 5.57926 9.05726 5.78092V9.96279C9.05726 10.1554 9.22514 10.313 9.43025 10.313H11.6232C12.4057 10.313 13.0458 9.71183 13.0458 8.977ZM11.3169 7.4414H10.6206C10.4092 7.4414 10.2362 7.61478 10.2362 7.82669C10.2362 8.0386 10.4092 8.21189 10.6206 8.21189H11.3169V8.21354H11.5927C11.9688 8.21354 12.2765 8.52195 12.2765 8.8989C12.2765 9.27586 11.9688 9.58427 11.5927 9.58427H9.81415V6.11406H11.2167C11.5808 6.11406 11.8788 6.41275 11.8788 6.77773C11.8788 7.10861 11.634 7.38491 11.3169 7.43368V7.4414Z" fill="white"/>
</svg>
