<svg xmlns="http://www.w3.org/2000/svg" width="20.00" height="20.00" viewBox="0 0 16 16">
  <path d="M3,0L13,0A3,3 0,0 1,16 3L16,13A3,3 0,0 1,13 16L3,16A3,3 0,0 1,0 13L0,3A3,3 0,0 1,3 0z" fill="#2E333A"/>
  <path d="M12.89,7.912a1.577,1.577 0,0 1,0.894 1.409c0,0.866 -0.726,1.575 -1.614,1.575L9.68,10.896a0.42,0.42 0,0 1,-0.424 -0.413L9.256,5.551c0,-0.237 0.188,-0.432 0.417,-0.432h2.073c0.872,0 1.586,0.742 1.586,1.65a1.68,1.68 0,0 1,-0.443 1.143ZM11.032,7.51h0.79L11.822,7.5a0.776,0.776 0,0 0,0.638 -0.773c0,-0.431 -0.338,-0.783 -0.752,-0.783h-1.591v4.093h2.018c0.428,0 0.776,-0.364 0.776,-0.809 0,-0.444 -0.35,-0.808 -0.776,-0.808h-0.313l-0.79,-0.002a0.447,0.447 0,0 1,-0.437 -0.454c0,-0.25 0.197,-0.454 0.437,-0.454ZM8.862,10.404a0.515,0.515 0,0 1,-0.444 0.572,0.503 0.503,0 0,1 -0.549,-0.463l-0.41,-3.922 -1.45,3.835v0.004l-0.004,0.01 -0.004,0.008v0.002l-0.004,0.009 -0.006,0.011 -0.001,0.004 -0.004,0.008a0.52,0.52 0,0 1,-0.103 0.14l-0.009,0.009a0.498,0.498 0,0 1,-0.086 0.064h-0.002l-0.01,0.006 -0.01,0.005 -0.003,0.002 -0.012,0.005 -0.005,0.004 -0.006,0.002 -0.005,0.003 -0.01,0.004 -0.008,0.002 -0.006,0.003a0.49,0.49 0,0 1,-0.15 0.03h-0.036a0.48,0.48 0,0 1,-0.164 -0.035l-0.007,-0.004 -0.008,-0.002 -0.007,-0.004 -0.005,-0.002 -0.005,-0.003 -0.01,-0.005 -0.009,-0.005 -0.008,-0.005 -0.005,-0.002a0.494,0.494 0,0 1,-0.076 -0.056l-0.002,-0.001 -0.017,-0.015a0.587,0.587 0,0 1,-0.013 -0.013l-0.012,-0.013a0.56,0.56 0,0 1,-0.015 -0.018l-0.001,-0.002a0.524,0.524 0,0 1,-0.053 -0.08l-0.003,-0.004 -0.003,-0.007 -0.006,-0.011 -0.001,-0.004 -0.003,-0.006 -0.003,-0.006 -0.002,-0.005 -0.003,-0.007 -0.003,-0.007 -0.003,-0.009 -1.45,-3.838 -0.41,3.922a0.505,0.505 0,0 1,-0.55 0.462,0.515 0.515,0 0,1 -0.443,-0.572l0.482,-4.625v-0.003a0.875,0.875 0,0 1,0.413 -0.653,0.829 0.829,0 0,1 0.455,-0.114h0.001a0.832,0.832 0,0 1,0.732 0.544L5.543,8.82l1.234,-3.268a0.812,0.812 0,0 1,0.887 -0.536,0.827 0.827,0 0,1 0.621,0.449c0.05,0.097 0.082,0.202 0.093,0.31v0.003l0.484,4.625Z" fill="#fff"/>
  <path d="M3.075,14h9.849c1.132,0 1.143,-1.037 1.028,-1.655 -0.063,-0.417 -0.74,-0.413 -0.816,0v0.482a0.394,0.394 0,0 1,-0.385 0.401H3.248a0.395,0.395 0,0 1,-0.385 -0.401v-0.482c-0.074,-0.413 -0.753,-0.417 -0.815,0C1.932,12.963 1.943,14 3.075,14ZM12.106,2H3.929c-0.537,0 -0.976,0.244 -0.975,0.836v0.529c0,0.703 0.901,0.708 0.901,-0.015v-0.275a0.32,0.32 0,0 1,0.312 -0.325h7.658a0.32,0.32 0,0 1,0.312 0.325v0.281c0,0.72 0.945,0.722 0.945,-0.005v-0.515c0,-0.591 -0.44,-0.836 -0.976,-0.836Z" fill="#3A74C4"/>
</svg>
