<svg xmlns="http://www.w3.org/2000/svg" width="16" height="16" viewBox="0 0 16 16">
  <path d="M12.901,3.838c0.194,0.064 0.374,0.14 0.54,0.227 0.195,-1.244 -0.002,-2.092 -0.675,-2.859C12.024,0.362 10.686,0 8.973,0H3.999a0.71,0.71 0,0 0,-0.702 0.6L1.225,13.732c-0.04,0.26 0.16,0.494 0.422,0.494h3.07l0.77,-4.883 -0.023,0.145c0.055,-0.345 0.35,-0.6 0.7,-0.6h1.46c2.865,0 5.11,-1.164 5.765,-4.53 0.02,-0.1 0.037,-0.197 0.052,-0.292a3.55,3.55 0,0 0,-0.54 -0.227Z" fill="#253B80"/>
  <path d="M12.754,3.792a5.164,5.164 0,0 0,-0.638 -0.142,8.103 8.103,0 0,0 -1.286,-0.094H6.932a0.619,0.619 0,0 0,-0.615 0.526l-0.829,5.252 -0.024,0.153c0.055,-0.345 0.35,-0.6 0.7,-0.6h1.46c2.866,0 5.11,-1.164 5.765,-4.53 0.02,-0.1 0.036,-0.197 0.051,-0.292a3.5,3.5 0,0 0,-0.686 -0.274Z" fill="#222D65"/>
  <path d="M13.44,4.065a8.805,8.805 0,0 1,-0.05 0.292c-0.657,3.367 -2.9,4.53 -5.766,4.53h-1.46a0.709,0.709 0,0 0,-0.7 0.6l-0.747,4.738 -0.211,1.343a0.373,0.373 0,0 0,0.368 0.432h2.588a0.623,0.623 0,0 0,0.615 -0.525l0.026,-0.131 0.487,-3.093 0.031,-0.17a0.622,0.622 0,0 1,0.615 -0.525h0.387c2.508,0 4.47,-1.018 5.044,-3.964 0.24,-1.23 0.116,-2.258 -0.518,-2.98a2.475,2.475 0,0 0,-0.709 -0.547Z" fill="#179BD7"/>
</svg>
