<svg xmlns="http://www.w3.org/2000/svg" width="48" height="24" viewBox="0 0 48 24">
  <path d="M3.5,0L44.5,0A3.5,3.5 0,0 1,48 3.5L48,20.5A3.5,3.5 0,0 1,44.5 24L3.5,24A3.5,3.5 0,0 1,0 20.5L0,3.5A3.5,3.5 0,0 1,3.5 0z" fill="#1C1C1E"/>
  <path d="M15.201,9.844C15.201,10.261 15.155,10.718 15.068,11.145L15.069,11.144C15.894,11.792 16.382,12.776 16.382,13.817C16.382,15.701 14.821,17.235 12.905,17.235H8.25V9.917C8.25,8.978 8.649,8.07 9.344,7.427C9.992,6.829 10.837,6.5 11.722,6.5C11.797,6.5 11.873,6.503 11.949,6.507C13.741,6.618 15.201,8.115 15.201,9.844ZM11.478,15.636H12.902C13.921,15.636 14.75,14.821 14.75,13.819C14.75,13.318 14.545,12.867 14.213,12.538C13.585,13.715 12.689,14.731 11.478,15.636ZM13.494,10.699C13.539,10.446 13.574,10.146 13.574,9.843C13.574,8.944 12.799,8.162 11.847,8.104C11.33,8.071 10.838,8.245 10.462,8.593C10.085,8.941 9.878,9.412 9.878,9.919V10.699H13.494ZM12.902,12H9.878H9.875V15.148C11.334,14.233 12.336,13.225 13.004,12.003C12.97,12 12.935,12 12.902,12ZM21.91,6.689V15.586C21.91,16.76 22.573,17.422 23.695,17.422C24.152,17.422 24.581,17.313 24.885,17.179L24.498,15.964C24.388,16.003 24.248,16.03 24.096,16.03C23.791,16.03 23.681,15.868 23.681,15.531V6.5L21.91,6.689ZM26.183,6.689V15.586C26.183,16.76 26.846,17.422 27.968,17.422C28.425,17.422 28.854,17.313 29.158,17.179L28.771,15.964C28.661,16.003 28.521,16.03 28.369,16.03C28.064,16.03 27.954,15.868 27.954,15.531V6.5L26.183,6.689ZM40.209,14.189H35.666C35.803,15.629 36.487,16.097 37.446,16.097C38.088,16.097 38.622,15.897 39.252,15.47L39.977,16.445C39.265,17.006 38.389,17.392 37.294,17.392C35.049,17.392 33.845,15.938 33.845,13.707C33.845,11.477 35.008,9.93 37.061,9.93C39.114,9.93 40.25,11.264 40.25,13.494C40.25,13.678 40.232,13.897 40.218,14.073V14.073L40.218,14.073V14.073C40.215,14.114 40.212,14.153 40.209,14.189ZM38.481,12.991C38.481,11.829 38.058,11.135 37.071,11.135C36.25,11.135 35.73,11.67 35.634,13.071H38.481V12.991ZM20.023,7.567C20.023,8.14 19.57,8.594 18.914,8.594V8.593C18.27,8.593 17.819,8.153 17.819,7.565C17.819,6.978 18.256,6.524 18.914,6.524C19.572,6.524 20.023,6.993 20.023,7.567ZM18.054,9.964V17.137H19.825V9.776L18.054,9.964ZM32.368,7.567C32.368,8.14 31.915,8.594 31.258,8.594V8.593C30.615,8.593 30.163,8.153 30.163,7.565C30.163,6.978 30.602,6.524 31.258,6.524C31.915,6.524 32.368,6.993 32.368,7.567ZM30.353,9.964V17.137H32.124V9.776L30.353,9.964Z" fill="#ffffff" fill-rule="evenodd"/>
</svg>
