<svg width="48" height="24" viewBox="0 0 48 24" fill="none" xmlns="http://www.w3.org/2000/svg">
<rect width="48" height="24" rx="3.5" fill="#1C1C1E"/>
<path fill-rule="evenodd" clip-rule="evenodd" d="M15.2014 9.84396C15.2014 10.2613 15.1554 10.718 15.0676 11.1448L15.069 11.1435C15.894 11.7919 16.3818 12.776 16.3818 13.8173C16.3818 15.7013 14.8209 17.2346 12.9047 17.2346H8.25V9.91736C8.25 8.97806 8.64857 8.07003 9.34399 7.42706C9.99202 6.82896 10.8366 6.5 11.7215 6.5C11.7968 6.5 11.8734 6.50272 11.9487 6.5068C13.7408 6.61826 15.2014 8.11489 15.2014 9.84396ZM11.4776 15.6361H12.9019C13.9206 15.6361 14.7498 14.8205 14.7498 13.8186C14.7498 13.3184 14.545 12.8671 14.2133 12.5382C13.5848 13.7153 12.6887 14.7308 11.4776 15.6361ZM13.4942 10.699C13.5388 10.4461 13.5736 10.1457 13.5736 9.8426C13.5736 8.94408 12.7988 8.16246 11.8469 8.10401C11.3299 8.07139 10.8379 8.24538 10.4617 8.59337C10.0854 8.94136 9.87774 9.41169 9.87774 9.91872V10.699H13.4942ZM12.9019 11.9999H9.87774H9.87496V15.1481C11.3341 14.2332 12.3361 13.2246 13.0036 12.0026C12.9702 11.9999 12.9353 11.9999 12.9019 11.9999ZM21.9098 6.68895V15.5858C21.9098 16.7602 22.5732 17.4222 23.695 17.4222C24.1522 17.4222 24.5814 17.3135 24.8852 17.1789L24.4978 15.9637C24.3877 16.0031 24.2483 16.0303 24.0964 16.0303C23.7912 16.0303 23.6811 15.8685 23.6811 15.5314V6.5L21.9098 6.68895ZM26.1829 6.68895V15.5858C26.1829 16.7602 26.8462 17.4222 27.9681 17.4222C28.4252 17.4222 28.8544 17.3135 29.1582 17.1789L28.7708 15.9637C28.6607 16.0031 28.5214 16.0303 28.3694 16.0303C28.0642 16.0303 27.9542 15.8685 27.9542 15.5314V6.5L26.1829 6.68895ZM40.2095 14.1885H35.6663C35.8029 15.6294 36.4872 16.097 37.446 16.097C38.0884 16.097 38.6222 15.8971 39.2521 15.4703L39.9768 16.445C39.2646 17.0064 38.3894 17.3924 37.2941 17.3924C35.0489 17.3924 33.8449 15.9379 33.8449 13.7073C33.8449 11.4766 35.0085 9.92968 37.0613 9.92968C39.1141 9.92968 40.2499 11.2645 40.2499 13.4939C40.2499 13.6779 40.2325 13.8968 40.2185 14.073V14.0731L40.2185 14.0731V14.0731C40.2152 14.1142 40.2121 14.153 40.2095 14.1885ZM38.4814 12.9909C38.4814 11.8287 38.0578 11.1354 37.0711 11.1354C36.2502 11.1354 35.7304 11.6696 35.6343 13.0711H38.4814V12.9909ZM20.0233 7.56685C20.0233 8.14049 19.5704 8.5945 18.914 8.5945V8.59314C18.2701 8.59314 17.8186 8.15272 17.8186 7.56549C17.8186 6.97826 18.2562 6.52424 18.914 6.52424C19.5718 6.52424 20.0233 6.99321 20.0233 7.56685ZM18.0537 9.96406V17.1373H19.825V9.77648L18.0537 9.96406ZM32.3678 7.56685C32.3678 8.14049 31.9148 8.5945 31.2585 8.5945V8.59314C30.6146 8.59314 30.1631 8.15272 30.1631 7.56549C30.1631 6.97826 30.6021 6.52424 31.2585 6.52424C31.9148 6.52424 32.3678 6.99321 32.3678 7.56685ZM30.3526 9.96406V17.1373H32.1239V9.77648L30.3526 9.96406Z" fill="white"/>
</svg>
