<svg xmlns="http://www.w3.org/2000/svg" width="20.00" height="20.00" viewBox="0 0 16 16">
  <path d="M0,8V3C0,1.3432 1.3432,0 3,0H8H13C14.6569,0 16,1.3432 16,3V8V13C16,14.6569 14.6569,16 13,16H8H3C1.3432,16 0,14.6569 0,13V8Z" fill="#E13134"/>
  <path d="M6.0859,10.3996C6.0859,10.3851 6.1019,10.2789 6.1223,10.1655C6.2793,9.2582 6.2851,9.2262 6.3288,9.0939C6.4233,8.8017 6.6021,8.5472 6.8188,8.4003C7.018,8.2637 7.3611,8.143 8.0779,7.9583C8.5287,7.8405 8.9692,7.7184 9.0667,7.6821C9.2702,7.605 9.3647,7.5119 9.4156,7.3433C9.4447,7.2473 9.5319,6.6817 9.5319,6.5945C9.5305,6.5232 9.4825,6.4345 9.4258,6.3982C9.356,6.3545 9.1481,6.3298 8.6988,6.308C8.1724,6.2833 7.8424,6.3167 7.6563,6.4113C7.5269,6.4767 7.4294,6.7369 7.3611,7.2037L7.3436,7.32L6.9685,7.3244C6.7286,7.3258 6.5948,7.3229 6.5948,7.3127C6.5948,7.2648 6.6879,6.7733 6.7184,6.6584C6.8885,6.0216 7.1997,5.7497 7.8744,5.6479C8.1913,5.5999 8.9154,5.5825 9.26,5.613C9.4549,5.6304 9.6555,5.677 9.7791,5.7322C9.9507,5.8093 10.1034,5.9576 10.1906,6.135C10.2357,6.2266 10.2371,6.2339 10.2415,6.4621C10.2517,6.8664 10.2037,7.2008 10.0888,7.5454C9.9885,7.8449 9.8722,8.0165 9.6817,8.1444C9.4505,8.2986 9.3167,8.348 8.5287,8.5632C7.3742,8.8773 7.3029,8.902 7.1779,8.9994C7.0834,9.075 7.0369,9.1841 6.9932,9.4342C6.9743,9.5432 6.9554,9.6494 6.9525,9.6726L6.9453,9.7119H8.3542C9.1306,9.7119 9.7646,9.7162 9.7646,9.7206C9.7646,9.7322 9.6643,10.3342 9.6541,10.3851L9.6454,10.4243H7.8656C6.1804,10.4243 6.0859,10.4229 6.0859,10.3996Z" fill="#E4EAF0"/>
  <path d="M12.2843,10.3923C12.2959,10.3458 12.4544,9.3992 12.4544,9.3789C12.4544,9.3672 12.1185,9.3629 11.2504,9.3629H10.045L10.1076,8.9892C10.1672,8.6373 10.173,8.6141 10.2123,8.5719C10.2355,8.5472 10.4929,8.2724 10.7822,7.9598C11.073,7.6486 11.6736,7.0016 12.1185,6.5247L12.9269,5.6551H13.3704H13.8154L13.5667,7.1499L13.3166,8.6431L13.6583,8.6475L14,8.6504L13.9913,8.7202C13.9811,8.7987 13.8982,9.28 13.8866,9.3309L13.8793,9.3629H13.5376C13.3501,9.3629 13.1959,9.3658 13.1959,9.3701C13.1959,9.3818 13.036,10.3516 13.0273,10.3923L13.0215,10.4243H12.6492H12.277L12.2843,10.3923ZM12.7466,7.6471C12.8383,7.0961 12.9095,6.6439 12.9037,6.6439C12.8979,6.6439 12.8804,6.6599 12.8659,6.6788C12.8513,6.6977 12.4442,7.1339 11.9615,7.6486C11.4787,8.1633 11.0701,8.5995 11.0541,8.6184L11.0251,8.6504H11.8015H12.578L12.7466,7.6471Z" fill="#E4EAF0"/>
  <path d="M2,10.4112C2,10.4039 2.1076,9.7438 2.2399,8.9456C2.3722,8.1473 2.5467,7.099 2.6252,6.6148C2.7052,6.1306 2.775,5.7177 2.7794,5.6959L2.7881,5.6551H3.9019C4.7917,5.6551 5.0535,5.6595 5.1989,5.677C5.7281,5.7395 5.9767,5.8965 6.0771,6.2339C6.1207,6.3851 6.1207,6.4985 6.0727,6.8329C5.9898,7.4072 5.9259,7.7504 5.8764,7.8914C5.8197,8.0485 5.7296,8.1924 5.6118,8.3116C5.5115,8.4149 5.4751,8.441 5.3573,8.4948C5.2148,8.5617 5.1218,8.5908 4.9197,8.633C4.8135,8.6548 4.6899,8.6577 3.912,8.6577H3.0251L2.9582,9.0575C2.9218,9.2771 2.8564,9.6755 2.8128,9.9401L2.7343,10.4243H2.3679C2.1556,10.4243 2,10.4185 2,10.4112ZM4.7772,7.9307C4.8528,7.9176 4.9415,7.8943 4.9749,7.8798C5.0433,7.8463 5.1189,7.7751 5.1494,7.7155C5.1858,7.6457 5.3443,6.7951 5.3443,6.6715C5.3443,6.5188 5.2948,6.449 5.1596,6.4156C5.0694,6.3923 4.4006,6.3705 3.7492,6.3691L3.4133,6.3676L3.4046,6.4083C3.4002,6.4301 3.3435,6.7675 3.2795,7.1586C3.2141,7.5497 3.1574,7.8885 3.153,7.9118L3.1458,7.9525H3.8917C4.4936,7.9525 4.6652,7.9481 4.7772,7.9307Z" fill="#ffffff"/>
</svg>
