<svg fill="none" xmlns="http://www.w3.org/2000/svg" viewBox="0 0 24 16" role="presentation" focusable="false">
  <path fill-rule="evenodd" clip-rule="evenodd"
    d="M14.105 13.325l-.144.663H7.91l.284-1.31c.159-.735.434-1.216.829-1.444.394-.227 1.25-.403 2.57-.525 1.054-.095 1.708-.224 1.957-.388.252-.163.45-.585.598-1.268.13-.6.094-.988-.108-1.166-.202-.178-.706-.268-1.515-.268-1.01 0-1.661.072-1.957.217-.297.144-.505.492-.623 1.043l-.101.52h-.929L9 9.037c.18-.833.512-1.388.997-1.665.485-.277 1.366-.416 2.642-.416 1.131 0 1.862.15 2.187.448.324.3.393.883.205 1.75-.18.833-.48 1.39-.904 1.67-.425.28-1.255.47-2.49.569-1.086.088-1.75.21-1.988.366-.24.157-.438.6-.596 1.332l-.05.234h5.102zm7.96-6.285l-1.016 4.691h1.257l-.144.663h-1.255L20.557 14h-.945l.347-1.606h-4.7l.198-.923L20.6 7.04h1.465-.002zm-1.963 4.691l.905-4.186h-.018L16.18 11.73h3.92zM5.669 4.4l-.934-.543a22.29 22.29 0 013.431-1.124l.172.741a16.3 16.3 0 00-2.668.927V4.4zm10.598-.407a10.996 10.996 0 00-2.76-.813L14.26 2h.02c2.181.009 3.915.25 5.28.585l-3.294 1.41v-.002zm-12.38.244l.954.568c-.435.22-.88.463-1.332.734H1.655s.766-.598 2.23-1.302h.001zM13.14 2.04l-.447 1.047a12.936 12.936 0 00-3.707.214l-.127-.749a25.357 25.357 0 014.28-.512zm8.16 1.058c1.975.762 2.7 1.629 2.7 1.629h-6.388s-.21-.16-.608-.384l4.297-1.245z"
    fill="#99A0A6" />
  <path fill-rule="evenodd" clip-rule="evenodd"
    d="M0 13.974l1.529-7.019h3.94c.97 0 1.6.153 1.886.458.286.305.339.876.157 1.712-.175.803-.478 1.35-.91 1.64-.43.292-1.153.437-2.165.437l-.38.005H1.575L.97 13.974H0zm1.719-3.434H4.02c.962 0 1.597-.08 1.903-.242.307-.161.523-.531.648-1.11.148-.68.15-1.11.007-1.29-.144-.18-.558-.27-1.244-.27l-.37-.004h-2.61l-.635 2.916z"
    fill="#D13239" />
</svg>