<svg xmlns="http://www.w3.org/2000/svg" width="16" height="16" viewBox="0 0 16 16">
  <defs>
    <linearGradient id="cashapp-gradient" x1="0" y1="8" x2="16" y2="8" gradientUnits="userSpaceOnUse">
      <stop offset="0" stop-color="#00C244"/>
      <stop offset="1" stop-color="#00D64B"/>
    </linearGradient>
  </defs>
  <path d="M12,0H4C1.791,0 0,1.791 0,4V12C0,14.209 1.791,16 4,16H12C14.209,16 16,14.209 16,12V4C16,1.791 14.209,0 12,0Z" fill="url(#cashapp-gradient)"/>
  <path d="M8.407,5.298C9.177,5.3 9.921,5.575 10.509,6.072C10.57,6.127 10.65,6.157 10.732,6.155C10.815,6.154 10.893,6.121 10.952,6.063L11.552,5.454C11.582,5.424 11.606,5.387 11.622,5.348C11.638,5.308 11.645,5.265 11.644,5.222C11.642,5.18 11.632,5.137 11.614,5.099C11.595,5.06 11.569,5.026 11.536,4.998C11.061,4.594 10.512,4.286 9.92,4.092L10.11,3.195C10.119,3.149 10.118,3.102 10.107,3.056C10.096,3.011 10.075,2.968 10.045,2.932C10.015,2.896 9.978,2.867 9.936,2.847C9.893,2.826 9.847,2.816 9.8,2.816H8.629C8.556,2.816 8.486,2.841 8.429,2.886C8.373,2.932 8.334,2.995 8.318,3.066L8.148,3.863C6.588,3.939 5.268,4.71 5.268,6.289C5.268,7.656 6.358,8.241 7.512,8.647C8.602,9.053 9.178,9.203 9.178,9.774C9.178,10.345 8.602,10.705 7.754,10.705C6.93,10.718 6.135,10.406 5.539,9.837C5.479,9.779 5.4,9.747 5.317,9.747C5.234,9.747 5.154,9.779 5.095,9.837L4.443,10.473C4.413,10.503 4.389,10.538 4.372,10.577C4.356,10.616 4.347,10.657 4.347,10.7C4.347,10.742 4.356,10.784 4.372,10.822C4.389,10.861 4.413,10.896 4.443,10.926C4.973,11.426 5.621,11.784 6.327,11.966L6.152,12.8C6.143,12.847 6.143,12.894 6.154,12.94C6.165,12.986 6.186,13.029 6.216,13.066C6.245,13.104 6.282,13.134 6.324,13.155C6.367,13.176 6.413,13.188 6.46,13.189H7.64C7.713,13.19 7.784,13.165 7.841,13.12C7.898,13.075 7.938,13.011 7.953,12.939L8.122,12.14C9.986,12.02 11.122,11.023 11.122,9.553C11.122,8.202 9.985,7.633 8.602,7.165C7.814,6.879 7.132,6.685 7.132,6.098C7.132,5.511 7.77,5.298 8.407,5.298Z" fill="#ffffff"/>
</svg>
