<svg xmlns="http://www.w3.org/2000/svg" width="15" height="16" viewBox="0 0 15 16">
  <g>
    <clipPath>
      <path d="M0,0h15v16h-15z"/>
    </clipPath>
    <path d="M2.749,15.937H7.27L14.413,9.272C14.77,8.938 14.976,8.463 14.976,7.97C14.976,7.477 14.77,7.002 14.413,6.668L7.27,0.003H2.749C2.574,0.003 2.468,0.12 2.428,0.228C2.387,0.337 2.389,0.495 2.516,0.615L10.167,7.755C10.226,7.81 10.26,7.89 10.26,7.972C10.26,8.053 10.226,8.133 10.167,8.188L2.516,15.328C2.387,15.448 2.385,15.607 2.428,15.715C2.468,15.823 2.574,15.94 2.749,15.94V15.937Z" fill="#FF3D00"/>
    <path d="M4.125,3.343L0.563,6.667C0.205,7 0,7.475 0,7.968C0,8.462 0.205,8.937 0.563,9.27L4.125,12.593L6.828,10.07L4.807,8.183C4.748,8.128 4.714,8.048 4.714,7.967C4.714,7.885 4.748,7.805 4.807,7.75L6.828,5.863L4.125,3.34V3.343Z" fill="#FF3D00"/>
    <path d="M12.227,0H8.587L10.851,2.112L12.458,0.612C12.587,0.492 12.589,0.333 12.548,0.225C12.507,0.117 12.401,0 12.227,0Z" fill="#FF3D00"/>
    <path d="M10.851,13.825L8.587,15.937H12.227C12.401,15.937 12.507,15.82 12.548,15.712C12.589,15.603 12.587,15.445 12.458,15.325L10.851,13.825Z" fill="#FF3D00"/>
  </g>
</svg>
