<svg xmlns="http://www.w3.org/2000/svg" width="16.00" height="16.00" viewBox="0 0 16 16">
  <path d="M2,0L14,0A2,2 0,0 1,16 2L16,14A2,2 0,0 1,14 16L2,16A2,2 0,0 1,0 14L0,2A2,2 0,0 1,2 0z" fill="#FF3D00"/>
  <g>
    <clipPath>
      <path d="M3,2.5h10v11h-10z"/>
    </clipPath>
    <path d="M4.833,13.457H7.847L12.609,8.875C12.847,8.646 12.984,8.319 12.984,7.98C12.984,7.641 12.847,7.314 12.609,7.085L7.847,2.503H4.833C4.716,2.503 4.646,2.583 4.618,2.657C4.591,2.732 4.592,2.841 4.677,2.923L9.778,7.832C9.817,7.87 9.84,7.925 9.84,7.981C9.84,8.037 9.817,8.092 9.778,8.13L4.677,13.039C4.591,13.121 4.59,13.23 4.618,13.304C4.646,13.379 4.716,13.459 4.833,13.459V13.457Z" fill="#ffffff"/>
    <path d="M5.75,4.799L3.375,7.083C3.137,7.313 3,7.639 3,7.978C3,8.317 3.137,8.644 3.375,8.873L5.75,11.158L7.552,9.423L6.204,8.126C6.165,8.088 6.142,8.033 6.142,7.977C6.142,7.921 6.165,7.866 6.204,7.828L7.552,6.531L5.75,4.796V4.799Z" fill="#ffffff"/>
    <path d="M11.151,2.5H8.725L10.234,3.952L11.305,2.921C11.391,2.838 11.392,2.729 11.365,2.655C11.338,2.58 11.267,2.5 11.151,2.5Z" fill="#ffffff"/>
    <path d="M10.234,12.005L8.725,13.457H11.151C11.267,13.457 11.338,13.376 11.365,13.302C11.392,13.227 11.391,13.118 11.305,13.036L10.234,12.005Z" fill="#ffffff"/>
  </g>
</svg>
