<svg width="15" height="16" viewBox="0 0 15 16" fill="none" xmlns="http://www.w3.org/2000/svg">
  <g clip-path="url(#clip0_5269_1215)">
    <path d="M2.74891 15.9367H7.27011L14.413 9.27167C14.7701 8.93834 14.9755 8.46334 14.9755 7.97001C14.9755 7.47667 14.7701 7.00167 14.413 6.66834L7.27011 0.00334167H2.74891C2.57446 0.00334167 2.46848 0.120008 2.42772 0.228341C2.38696 0.336675 2.38859 0.495008 2.51576 0.615008L10.1674 7.75501C10.2261 7.81001 10.2603 7.89001 10.2603 7.97167C10.2603 8.05334 10.2261 8.13334 10.1674 8.18834L2.51576 15.3283C2.38696 15.4483 2.38533 15.6067 2.42772 15.715C2.46848 15.8233 2.57446 15.94 2.74891 15.94V15.9367Z" fill="#FF3D00"/>
    <path d="M4.125 3.34335L0.5625 6.66668C0.205435 7.00001 0 7.47501 0 7.96835C0 8.46168 0.205435 8.93668 0.5625 9.27001L4.125 12.5933L6.82826 10.07L4.80652 8.18335C4.74783 8.12835 4.71359 8.04835 4.71359 7.96668C4.71359 7.88501 4.74783 7.80501 4.80652 7.75001L6.82826 5.86334L4.125 3.34001V3.34335Z" fill="#FF3D00"/>
    <path d="M12.2266 0H8.5875L10.8505 2.11167L12.4582 0.611666C12.587 0.491666 12.5886 0.333333 12.5478 0.225C12.5071 0.116666 12.4011 0 12.2266 0Z" fill="#FF3D00"/>
    <path d="M10.8505 13.825L8.5875 15.9367H12.2266C12.4011 15.9367 12.5071 15.82 12.5478 15.7117C12.5886 15.6033 12.587 15.445 12.4582 15.325L10.8505 13.825Z" fill="#FF3D00"/>
  </g>
  <defs>
    <clipPath id="clip0_5269_1215">
      <rect width="15" height="16" fill="white"/>
    </clipPath>
  </defs>
</svg>
