<svg width="16" height="16" viewBox="0 0 16 16" fill="none" xmlns="http://www.w3.org/2000/svg">
  <rect width="16" height="16" rx="2" fill="#FF3D00"/>
  <g clip-path="url(#clip0_5269_1213)">
    <path d="M4.83261 13.4569H7.84674L12.6087 8.87473C12.8467 8.64557 12.9837 8.319 12.9837 7.97984C12.9837 7.64067 12.8467 7.31411 12.6087 7.08494L7.84674 2.50275H4.83261C4.7163 2.50275 4.64565 2.58296 4.61848 2.65744C4.5913 2.73192 4.59239 2.84077 4.67717 2.92327L9.77826 7.83203C9.81739 7.86984 9.84022 7.92484 9.84022 7.98098C9.84022 8.03713 9.81739 8.09213 9.77826 8.12994L4.67717 13.0387C4.5913 13.1212 4.59022 13.23 4.61848 13.3045C4.64565 13.379 4.7163 13.4592 4.83261 13.4592V13.4569Z" fill="white"/>
    <path d="M5.75 4.79855L3.375 7.08334C3.13696 7.31251 3 7.63907 3 7.97824C3 8.3174 3.13696 8.64397 3.375 8.87313L5.75 11.1579L7.55217 9.42313L6.20435 8.12605C6.16522 8.08824 6.14239 8.03324 6.14239 7.97709C6.14239 7.92094 6.16522 7.86594 6.20435 7.82813L7.55217 6.53105L5.75 4.79626V4.79855Z" fill="white"/>
    <path d="M11.1511 2.5H8.725L10.2337 3.95177L11.3054 2.92052C11.3913 2.83802 11.3924 2.72917 11.3652 2.65469C11.338 2.58021 11.2674 2.5 11.1511 2.5Z" fill="white"/>
    <path d="M10.2337 12.0047L8.725 13.4565H11.1511C11.2674 13.4565 11.338 13.3762 11.3652 13.3018C11.3924 13.2273 11.3913 13.1184 11.3054 13.0359L10.2337 12.0047Z" fill="white"/>
  </g>
  <defs>
    <clipPath id="clip0_5269_1213">
      <rect width="10" height="11" fill="white" transform="translate(3 2.5)"/>
    </clipPath>
  </defs>
</svg>
