<svg width="16" height="16" viewBox="0 0 16 16" fill="none" xmlns="http://www.w3.org/2000/svg">
<g clip-path="url(#clip0_23_1479)">
<path d="M0 2.5C0 1.11929 1.11929 0 2.5 0H13.5C14.8807 0 16 1.11929 16 2.5V13.5C16 14.8807 14.8807 16 13.5 16H2.5C1.11929 16 0 14.8807 0 13.5V2.5Z" fill="#FFA8CD"/>
<path d="M4.5 12.2854H6.44452V3.7143H4.5V12.2854ZM11.3013 3.7143C11.3013 5.56986 10.5862 7.296 9.31213 8.57904L12 12.2857H9.59827L6.67715 8.25738L7.43105 7.68639C8.68129 6.73926 9.3984 5.29155 9.3984 3.71428L11.3013 3.7143Z" fill="#0B051D"/>
</g>
<defs>
<clipPath id="clip0_23_1479">
<rect width="16" height="16" fill="white"/>
</clipPath>
</defs>
</svg>
