<svg xmlns="http://www.w3.org/2000/svg" width="20.00" height="20.00" viewBox="0 0 16 16">
  <path d="M0,2.5C0,1.1193 1.1193,0 2.5,0H13.5C14.8807,0 16,1.1193 16,2.5V13.5C16,14.8807 14.8807,16 13.5,16H2.5C1.1193,16 0,14.8807 0,13.5V2.5Z" fill="#FFB3C7"/>
  <path d="M5.8149,11.9997H4V4H5.8149V11.9997ZM8.4913,8.5405C9.6805,7.3429 10.3479,5.7319 10.3479,4L8.5718,4C8.5718,5.4721 7.9025,6.8233 6.7356,7.7073L6.032,8.2402L8.7584,12H11L8.4913,8.5405ZM12.5,10C11.9477,10 11.5,10.4477 11.5,11C11.5,11.5522 11.9477,12 12.5,12C13.0522,12 13.5,11.5522 13.5,11C13.5,10.4477 13.0522,10 12.5,10Z" fill="#0A0B09" fill-rule="evenodd"/>
</svg>
