<svg role="presentation" xmlns="http://www.w3.org/2000/svg" viewBox="0 0 16 16" focusable="false">
<path fill-rule="evenodd" clip-rule="evenodd" d="M1.01934 6C0.46674 6.01011 -0.000512842 5.54912 4.41612e-07 5C0.000323181 4.65473 0.179641 4.31903 0.500157 4.13397C0.819012 3.94988 3.31896 2.57189 8 0C9.33899 0.735679 12.25 2.8782 12.25 2.8782L10.75 6H1.01934Z"/>
<path fill-rule="evenodd" clip-rule="evenodd" d="M10.75 14L9.75 16H0.000130135V15C0.000130135 14.4477 0.447846 14 1.00013 14H1.99996V7.5H4.75V14H6.25V7.5H9V14H10.75Z"/>
<path fill-rule="evenodd" clip-rule="evenodd" d="M14.9138 2.58988C15.4166 2.81842 15.6389 3.41127 15.4104 3.91405L13.553 8.00024H15C15.5472 8.00024 16.0019 8.45998 16 9.00386C15.9995 9.13284 15.9741 9.26231 15.9231 9.38486L13.4231 15.3849C13.2107 15.8947 12.6252 16.1357 12.1154 15.9233C11.6056 15.7109 11.3645 15.1254 11.5769 14.6156L13.5 10.0002H12C11.66 10.0002 11.3433 9.82749 11.1592 9.54163C10.9752 9.25577 10.9489 8.89596 11.0896 8.58644L13.5896 3.08644C13.8182 2.58366 14.411 2.36134 14.9138 2.58988Z"/>
</svg>
