<svg xmlns="http://www.w3.org/2000/svg" width="74" height="46" viewBox="0 0 74 46">
  <path d="M1,4.667C1,2.642 2.642,1 4.667,1H69.333C71.358,1 73,2.642 73,4.667V41.333C73,43.358 71.358,45 69.333,45H4.667C2.642,45 1,43.358 1,41.333V4.667Z" fill="#FFFFFA"/>
  <path d="M27.466,16.689L29.343,31.96H47.697L45.82,16.689H27.466Z" fill="#AA8FFF"/>
  <path d="M32.702,10.862C33.873,11.962 34.033,13.693 33.061,14.728C32.088,15.762 30.351,15.709 29.18,14.608C28.01,13.508 27.849,11.777 28.822,10.742C29.794,9.708 31.531,9.761 32.702,10.862Z" fill="#1A0826"/>
  <path d="M66.932,22.188C66.51,18.753 63.812,16.677 60.148,16.689H47.944L49.822,31.96H55.314L54.94,28.906H60.752C65.321,28.906 67.415,26.057 66.932,22.188ZM60.154,24.626L54.409,24.632L53.956,20.969L59.732,20.975C61.09,20.993 61.784,21.753 61.898,22.803C61.971,23.473 61.663,24.626 60.154,24.626Z" fill="#1A0826" fill-rule="evenodd"/>
  <path d="M8.352,27.693L8.877,31.96H27.213L26.609,27.077H18.063L17.985,26.467L25.861,20.969L25.336,16.689H7L7.598,21.578H16.162L16.24,22.188L8.352,27.693Z" fill="#1A0826"/>
  <path d="M4.667,2H69.333V0H4.667V2ZM72,4.667V41.333H74V4.667H72ZM69.333,44H4.667V46H69.333V44ZM2,41.333V4.667H0V41.333H2ZM4.667,44C3.194,44 2,42.806 2,41.333H0C0,43.911 2.089,46 4.667,46V44ZM72,41.333C72,42.806 70.806,44 69.333,44V46C71.911,46 74,43.911 74,41.333H72ZM69.333,2C70.806,2 72,3.194 72,4.667H74C74,2.089 71.911,0 69.333,0V2ZM4.667,0C2.089,0 0,2.089 0,4.667H2C2,3.194 3.194,2 4.667,2V0Z" fill="#1A0826"/>
</svg>
