<svg width="26" height="17" viewBox="0 0 26 17" fill="none" xmlns="http://www.w3.org/2000/svg">
<path d="M22 1H2C0.89543 1 0 1.89543 0 3V15C0 16.1046 0.89543 17 2 17H22C23.1046 17 24 16.1046 24 15V3C24 1.89543 23.1046 1 22 1Z" fill="#016FD0"/>
<path fill-rule="evenodd" clip-rule="evenodd" d="M13.764 14.3939V8.6925L23.9116 8.70161V10.2765L22.7387 11.5299L23.9116 12.7948V14.4031H22.039L21.0438 13.3049L20.0557 14.4072L13.764 14.3939Z" fill="#FFFFFE"/>
<path fill-rule="evenodd" clip-rule="evenodd" d="M14.4418 13.7688V9.31995H18.2141V10.3448H15.6632V11.0405H18.1533V12.0483H15.6632V12.7317H18.2141V13.7688H14.4418Z" fill="#016FD0"/>
<path fill-rule="evenodd" clip-rule="evenodd" d="M18.1953 13.7688L20.2826 11.5418L18.1952 9.32001H19.8108L21.0863 10.73L22.3654 9.32001H23.9116V9.35501L21.8687 11.5418L23.9116 13.7057V13.7688H22.3499L21.0518 12.3446L19.767 13.7688H18.1953Z" fill="#016FD0"/>
<path fill-rule="evenodd" clip-rule="evenodd" d="M14.2374 3.63196H16.6834L17.5426 5.58281V3.63196H20.5624L21.0832 5.09353L21.6057 3.63196H23.9116V9.33335H11.7251L14.2374 3.63196Z" fill="#FFFFFE"/>
<path fill-rule="evenodd" clip-rule="evenodd" d="M14.7005 4.25134L12.7264 8.69651H14.0803L14.4528 7.80635H16.4707L16.8429 8.69651H18.2304L16.2647 4.25134H14.7005ZM14.8701 6.80878L15.4621 5.39371L16.0536 6.80878H14.8701Z" fill="#016FD0"/>
<path fill-rule="evenodd" clip-rule="evenodd" d="M18.212 8.69569V4.25061L20.1151 4.25715L21.0944 6.98988L22.08 4.25061H23.9116V8.69569L22.733 8.70612V5.65278L21.6204 8.69569H20.5446L19.409 5.64235V8.69569H18.212Z" fill="#016FD0"/>
</svg>
