<?xml version="1.0" encoding="UTF-8"?>
<svg xmlns="http://www.w3.org/2000/svg" xmlns:xlink="http://www.w3.org/1999/xlink" width="96px" height="px" viewBox="0 0 98 19" version="1.1">
<g id="surface1">
<path style=" stroke:none;fill-rule:nonzero;fill:rgb(100%,100%,100%);fill-opacity:1;" d="M 96.464844 3.894531 L 93.515625 2.199219 L 90.527344 0.480469 C 88.550781 -0.660156 86.078125 0.769531 86.078125 3.0625 L 86.078125 3.449219 C 86.078125 3.664062 86.1875 3.859375 86.375 3.960938 L 87.765625 4.757812 C 88.148438 4.980469 88.625 4.699219 88.625 4.253906 L 88.625 3.335938 C 88.625 2.882812 89.113281 2.601562 89.503906 2.824219 L 92.230469 4.398438 L 94.949219 5.964844 C 95.339844 6.1875 95.339844 6.761719 94.949219 6.984375 L 92.230469 8.550781 L 89.503906 10.125 C 89.113281 10.347656 88.625 10.066406 88.625 9.609375 L 88.625 9.15625 C 88.625 6.863281 86.15625 5.425781 84.179688 6.574219 L 81.1875 8.292969 L 78.238281 9.988281 C 76.253906 11.132812 76.253906 14.019531 78.238281 15.164062 L 81.1875 16.859375 L 84.179688 18.582031 C 86.15625 19.71875 88.625 18.289062 88.625 15.996094 L 88.625 15.609375 C 88.625 15.398438 88.515625 15.199219 88.328125 15.097656 L 86.9375 14.300781 C 86.554688 14.078125 86.078125 14.359375 86.078125 14.804688 L 86.078125 15.722656 C 86.078125 16.175781 85.59375 16.457031 85.199219 16.234375 L 82.472656 14.660156 L 79.753906 13.09375 C 79.363281 12.871094 79.363281 12.296875 79.753906 12.074219 L 82.472656 10.511719 L 85.199219 8.933594 C 85.59375 8.710938 86.078125 8.996094 86.078125 9.449219 L 86.078125 9.902344 C 86.078125 12.195312 88.550781 13.632812 90.527344 12.488281 L 93.515625 10.765625 L 96.464844 9.070312 C 98.453125 7.917969 98.453125 5.039062 96.464844 3.894531 Z M 96.464844 3.894531 "/>
<path style=" stroke:none;fill-rule:nonzero;fill:rgb(100%,100%,100%);fill-opacity:1;" d="M 77.121094 4.460938 L 70.21875 18.777344 L 67.355469 18.777344 L 69.9375 13.429688 L 65.871094 4.460938 L 68.8125 4.460938 L 71.421875 10.46875 L 74.265625 4.460938 Z M 77.121094 4.460938 "/>
<path style=" stroke:none;fill-rule:nonzero;fill:rgb(100%,100%,100%);fill-opacity:1;" d="M 8.105469 9.542969 C 8.105469 7.832031 6.867188 6.632812 5.351562 6.632812 C 3.835938 6.632812 2.597656 7.855469 2.597656 9.542969 C 2.597656 11.210938 3.835938 12.453125 5.351562 12.453125 C 6.867188 12.453125 8.105469 11.253906 8.105469 9.542969 Z M 8.128906 14.625 L 8.128906 13.308594 C 7.378906 14.222656 6.261719 14.789062 4.933594 14.789062 C 2.15625 14.789062 0.0507812 12.554688 0.0507812 9.542969 C 0.0507812 6.554688 2.242188 4.277344 4.992188 4.277344 C 6.289062 4.277344 7.378906 4.851562 8.128906 5.742188 L 8.128906 4.460938 L 10.617188 4.460938 L 10.617188 14.625 Z M 8.128906 14.625 "/>
<path style=" stroke:none;fill-rule:nonzero;fill:rgb(100%,100%,100%);fill-opacity:1;" d="M 22.71875 12.367188 C 21.851562 12.367188 21.601562 12.042969 21.601562 11.1875 L 21.601562 6.675781 L 23.203125 6.675781 L 23.203125 4.460938 L 21.601562 4.460938 L 21.601562 1.976562 L 19.054688 1.976562 L 19.054688 4.460938 L 15.765625 4.460938 L 15.765625 3.449219 C 15.765625 2.59375 16.089844 2.269531 16.984375 2.269531 L 17.546875 2.269531 L 17.546875 0.300781 L 16.320312 0.300781 C 14.214844 0.300781 13.21875 0.992188 13.21875 3.105469 L 13.21875 4.46875 L 11.800781 4.46875 L 11.800781 6.675781 L 13.21875 6.675781 L 13.21875 14.625 L 15.765625 14.625 L 15.765625 6.675781 L 19.054688 6.675781 L 19.054688 11.65625 C 19.054688 13.726562 19.847656 14.625 21.910156 14.625 L 23.222656 14.625 L 23.222656 12.367188 Z M 22.71875 12.367188 "/>
<path style=" stroke:none;fill-rule:nonzero;fill:rgb(100%,100%,100%);fill-opacity:1;" d="M 31.871094 8.628906 C 31.691406 7.308594 30.617188 6.511719 29.355469 6.511719 C 28.105469 6.511719 27.066406 7.285156 26.808594 8.628906 Z M 26.785156 10.210938 C 26.960938 11.714844 28.035156 12.574219 29.398438 12.574219 C 30.472656 12.574219 31.300781 12.066406 31.785156 11.253906 L 34.402344 11.253906 C 33.796875 13.410156 31.871094 14.789062 29.339844 14.789062 C 26.28125 14.789062 24.132812 12.632812 24.132812 9.558594 C 24.132812 6.488281 26.398438 4.269531 29.398438 4.269531 C 32.417969 4.269531 34.605469 6.503906 34.605469 9.558594 C 34.605469 9.78125 34.589844 10.003906 34.546875 10.210938 Z M 26.785156 10.210938 "/>
<path style=" stroke:none;fill-rule:nonzero;fill:rgb(100%,100%,100%);fill-opacity:1;" d="M 50.832031 9.542969 C 50.832031 7.898438 49.597656 6.632812 48.078125 6.632812 C 46.5625 6.632812 45.328125 7.855469 45.328125 9.542969 C 45.328125 11.210938 46.5625 12.453125 48.078125 12.453125 C 49.597656 12.453125 50.832031 11.195312 50.832031 9.542969 Z M 42.8125 18.777344 L 42.8125 4.460938 L 45.300781 4.460938 L 45.300781 5.777344 C 46.050781 4.84375 47.167969 4.269531 48.496094 4.269531 C 51.234375 4.269531 53.378906 6.53125 53.378906 9.515625 C 53.378906 12.503906 51.191406 14.78125 48.4375 14.78125 C 47.160156 14.78125 46.109375 14.277344 45.378906 13.417969 L 45.378906 18.769531 L 42.8125 18.769531 Z M 42.8125 18.777344 "/>
<path style=" stroke:none;fill-rule:nonzero;fill:rgb(100%,100%,100%);fill-opacity:1;" d="M 62.355469 9.542969 C 62.355469 7.832031 61.117188 6.632812 59.601562 6.632812 C 58.085938 6.632812 56.847656 7.855469 56.847656 9.542969 C 56.847656 11.210938 58.085938 12.453125 59.601562 12.453125 C 61.117188 12.453125 62.355469 11.253906 62.355469 9.542969 Z M 62.378906 14.625 L 62.378906 13.308594 C 61.628906 14.222656 60.511719 14.789062 59.183594 14.789062 C 56.40625 14.789062 54.300781 12.554688 54.300781 9.542969 C 54.300781 6.554688 56.492188 4.277344 59.242188 4.277344 C 60.539062 4.277344 61.628906 4.851562 62.378906 5.742188 L 62.378906 4.460938 L 64.867188 4.460938 L 64.867188 14.625 Z M 62.378906 14.625 "/>
<path style=" stroke:none;fill-rule:nonzero;fill:rgb(100%,100%,100%);fill-opacity:1;" d="M 38.320312 5.453125 C 38.320312 5.453125 38.953125 4.269531 40.511719 4.269531 C 41.175781 4.269531 41.601562 4.5 41.601562 4.5 L 41.601562 7.09375 C 41.601562 7.09375 40.664062 6.511719 39.804688 6.632812 C 38.945312 6.753906 38.398438 7.539062 38.398438 8.601562 L 38.398438 14.617188 L 35.824219 14.617188 L 35.824219 4.460938 L 38.3125 4.460938 L 38.3125 5.453125 Z M 38.320312 5.453125 "/>
</g>
</svg>
