<svg
    xmlns="http://www.w3.org/2000/svg"
    viewBox="0 0 32 22"
    id="vector">
    <path
        id="path_1"
        d="M 3.3 0 C 1.477 0 0 1.477 0 3.3 L 0 18.7 C 0 20.522 1.477 22 3.3 22 L 28.7 22 C 30.522 22 32 20.522 32 18.7 L 32 3.3 C 32 1.477 30.522 0 28.7 0 L 3.3 0 Z M 17.414 10.726 L 17.414 5.078 L 26.365 5.078 C 27.913 5.078 29.169 6.342 29.169 7.902 C 29.169 9.462 27.913 10.726 26.365 10.726 L 17.414 10.726 Z M 15.86 7.773 C 16.324 8.619 16.599 9.615 16.65 10.726 L 9.972 10.726 L 9.972 11.486 L 16.65 11.486 C 16.599 12.597 16.324 13.594 15.86 14.44 C 15.344 15.381 14.594 16.136 13.659 16.656 C 12.725 17.176 11.605 17.461 10.35 17.461 L 9.163 17.461 C 7.908 17.461 6.788 17.176 5.854 16.656 C 4.919 16.136 4.169 15.381 3.653 14.44 C 3.137 13.498 2.854 12.371 2.854 11.106 C 2.854 9.842 3.137 8.714 3.653 7.773 C 4.169 6.831 4.919 6.076 5.854 5.556 C 6.788 5.036 7.908 4.752 9.163 4.752 L 10.35 4.752 C 11.605 4.752 12.725 5.036 13.659 5.556 C 14.594 6.076 15.344 6.831 15.86 7.773 Z M 17.414 17.135 L 17.414 11.486 L 26.365 11.486 C 27.913 11.486 29.169 12.751 29.169 14.311 C 29.169 15.87 27.913 17.135 26.365 17.135 L 17.414 17.135 Z"
        fill="#8e8e93"
        fill-rule="evenodd"/>
</svg>
