<svg fill="none" height="16" viewBox="0 0 25 16" width="25" xmlns="http://www.w3.org/2000/svg" xmlns:xlink="http://www.w3.org/1999/xlink"><clipPath id="a"><path d="m0 0h25v16h-25z"/></clipPath><g clip-path="url(#a)"><path d="m22.7612 0h-20.52233c-.08548 0-.1711 0-.25642.00049828-.07212.00051337-.14408.00131364-.21603.00327655-.15693.0042429-.3152.01349877-.47017.04134187-.15744.0283263-.303948.0745303-.446875.1472783-.140511.071435-.26915.16487-.38063.276363-.111528.111493-.204991.239883-.276432.380503-.072785.142884-.1190329.289389-.1471713.446909-.028001.15496-.03732155.31316-.04155062.46988-.00193328.07193-.00276248.14386-.00323221.21578-.00049843.08548-.00033229.17089-.00033229.25652v11.52345c0 .0856-.00016614.1709.00033229.2566.00046973.0719.00129893.1438.00323221.2157.00422907.1566.01354962.3148.04155062.4697.0281384.1576.0743863.3041.1471713.447.071441.1406.164904.2691.276432.3805.11148.1116.240119.2051.38063.2763.142927.0729.289435.1192.446875.1475.15497.0276.31324.0371.47017.0413.07195.0016.14391.0026.21603.0029.08532.0007.17094.0007.25642.0007h20.52233c.0853 0 .1709 0 .2562-.0007.072-.0003.1439-.0013.2162-.0029.1566-.0042.3148-.0137.4702-.0413.1572-.0283.3038-.0746.4467-.1475.1407-.0712.2689-.1647.3806-.2763.1114-.1114.2048-.2399.2765-.3805.0729-.1429.1191-.2894.1471-.447.028-.1549.0371-.3131.0414-.4697.0019-.0719.0029-.1438.0032-.2157.0007-.0857.0007-.171.0007-.2566v-11.52345c0-.08563 0-.17104-.0007-.25652-.0003-.07192-.0013-.14385-.0032-.21578-.0043-.15672-.0134-.31492-.0414-.46988-.028-.15752-.0742-.304025-.1471-.446909-.0717-.14062-.1651-.26901-.2765-.380503-.1117-.111493-.2399-.204928-.3806-.276363-.1429-.072748-.2895-.118952-.4467-.1472783-.1554-.0278431-.3136-.03709897-.4702-.04134187-.0723-.00196291-.1442-.00276318-.2162-.00327655-.0853-.00049828-.1709-.00049828-.2562-.00049828z" fill="#10298d"/><path d="m22.761.53331.2525.000483c.0684.000483.1367.001223.2055.003095.1196.003232.2596.009709.39.033083.1134.020414.2085.051459.2997.097904.0901.045766.1727.10574.2448.177689.0723.072431.1324.155086.1788.246146.0462.09052.077.18514.0973.29932.0233.12897.0298.26925.0331.38957.0018.06792.0027.13584.003.20537.0007.08409.0007.16813.0007.25238v11.52345c0 .0843 0 .1682-.0007.254-.0003.0679-.0012.1359-.0031.2039-.0032.1201-.0097.2603-.0333.3908-.02.1127-.0508.2073-.0973.2983-.0462.0908-.1062.1734-.1782.2453-.0725.0725-.1548.1323-.246.1785-.0905.0462-.1855.0772-.2977.0974-.1331.0237-.2789.0303-.3887.0332-.0691.0016-.1379.0025-.2083.0029-.0839.0006-.1681.0006-.2521.0006h-20.52229c-.00112 0-.0022 0-.00334 0-.08298 0-.16612 0-.25061-.0007-.06889-.0003-.13763-.0012-.20409-.0027-.11231-.003-.2582-.0095-.39019-.0331-.11323-.0204-.20816-.0514-.29993-.0982-.0903-.0458-.172515-.1055-.245029-.1781-.071954-.0718-.13175-.1542-.177983-.2451-.046278-.0909-.077241-.1858-.0976-.2998-.023533-.1302-.029997-.2699-.033228-.3892-.001844-.0683-.002614-.1366-.003053-.2045l-.000332-.2005.000015-.053v-11.52345l-.000015-.05293.000317-.20008c.000453-.06833.001224-.13664.003068-.2049.003231-.11945.009695-.25915.033423-.39049.020179-.11292.051127-.20784.097646-.29917.045871-.09028.105772-.172694.178106-.24499.072045-.072054.154525-.131953.245405-.178157.09079-.046219.1859-.077248.29913-.097617.13047-.023434.2705-.029896.39042-.033143.06836-.001857.13672-.002597.20457-.003065l.2533-.000498z" fill="#10298d"/><g clip-rule="evenodd" fill-rule="evenodd"><path d="m21.1403 9.90528h-2.0648l-.278 1.00812h-1.5969l1.7224-5.83338h2.3316l1.7454 5.83338h-1.564l-.2951-1.00812zm-.3069-1.13634-.7229-2.52854-.7032 2.52854zm-7.8497 2.14446v-5.83338h2.877c.3949 0 .6966.0334.9029.0982.4732.15098.7906.45961.9535.9259.0842.24451.1262.61327.1262 1.10561 0 .59189-.046 1.01676-.138 1.27596-.1853.51172-.5651.80633-1.1388.88315-.0677.01136-.3549.02138-.8609.03006l-.2563.00869h-.9213v1.50581zm1.5443-2.85926h.9627c.3056-.01136.4909-.03541.5586-.07215.0907-.05144.1518-.15365.182-.30663.0197-.10221.0296-.25386.0296-.45427 0-.24718-.0191-.43022-.0585-.5498-.0552-.16701-.1886-.26922-.3989-.30596-.0997-.008-.1997-.0109-.2997-.00869h-.9758zm-7.86221-1.11296h-1.43719c0-.2405-.02826-.40083-.08281-.48233-.08543-.12158-.322-.1817-.70709-.1817-.37524 0-.6243.03473-.74587.10421-.12092.07015-.18138.22246-.18138.45761 0 .21244.05389.35206.16101.41886.07754.04676.17874.07549.30623.08417l.29046.02004c.38809.02441.77584.05403 1.16316.08885.49155.05011.84642.18305 1.06788.39816.17349.16701.27797.38746.31083.65802.01906.16233.02826.34537.02826.54913 0 .46963-.04337.81367-.13143 1.0321-.16035.3995-.52047.652-1.07971.7582-.23394.0448-.59143.0669-1.07444.0669-.80436 0-1.36557-.0481-1.68231-.147-.38772-.1189-.64401-.3621-.76822-.7282-.06966-.2024-.10317-.5411-.10317-1.01674h1.43785v.12158c0 .25319.07163.41619.21489.48767.09857.05077.21818.07683.35881.08017h.52835c.26943 0 .44095-.01403.51586-.04209.13143-.05344.21818-.13762.26024-.25519.02103-.07349.03285-.16701.03285-.28125 0-.25652-.092-.41285-.27666-.46896-.069-.02205-.38969-.05344-.96141-.09219-.4587-.0334-.77742-.06547-.95616-.0962-.47052-.08952-.78464-.2739-.94039-.55314-.138-.23715-.207-.59589-.207-1.07621 0-.36609.03811-.65936.11171-.87981.07426-.22045.19387-.38813.36012-.50237.24118-.17636.55201-.27924.92922-.30997.34753-.02943.69615-.04347 1.04487-.04208.60261 0 1.03239.03473 1.28934.10488.62561.17102.9371.64933.9371 1.43495 0 .0648-.00394.16033-.01314.28993z" fill="#fff"/><path d="m10.7919 5.86028c.6591 0 1.2461.30302 1.6327.77687l.3444-.7362c-.5621-.52908-1.3062-.8229-2.079-.82095-1.25823 0-2.33441.75858-2.77602 1.8317h-.67126l-.39677.84737h.86352c-.01463.17511-.01327.35119.00408.52605h-.43414l-.3961.84738h1.05105c.45384 1.0467 1.51712 1.7808 2.75564 1.7808.6237 0 1.2033-.1864 1.6822-.505v-1.03922c-.3984.4551-.9746.71612-1.5803.71582-.7099-.0007-1.37154-.35859-1.75962-.95173h2.19922l.3968-.84805h-2.92078c-.02547-.1742-.02958-.35085-.01222-.52605h3.1783l.3961-.84737h-3.29992c.37563-.65001 1.07022-1.05078 1.82212-1.05142z" fill="#ffcc02"/></g></g></svg>