<svg xmlns="http://www.w3.org/2000/svg" width="50" height="32" viewBox="0 0 25 16">
  <path d="M22.761,0H1.982l-0.216,0.004a3.14,3.14 0,0 0,-0.47 0.041A1.5,1.5 0,0 0,0.192 0.85a1.58,1.58 0,0 0,-0.147 0.447,3.116 3.116,0 0,0 -0.041,0.47A10.61,10.61 0,0 0,0 1.982v12.036c0,0.072 0.002,0.144 0.004,0.216 0.004,0.157 0.013,0.315 0.041,0.47a1.496,1.496 0,0 0,0.804 1.104c0.143,0.072 0.29,0.119 0.447,0.147 0.155,0.028 0.313,0.037 0.47,0.041l0.216,0.003 0.257,0.001h20.778l0.217,-0.004c0.156,-0.004 0.314,-0.013 0.47,-0.04 0.157,-0.03 0.304,-0.075 0.447,-0.148a1.492,1.492 0,0 0,0.657 -0.657c0.073,-0.143 0.119,-0.29 0.147,-0.447 0.028,-0.155 0.037,-0.313 0.041,-0.47l0.003,-0.216 0.001,-0.256V1.982l-0.004,-0.216a3.126,3.126 0,0 0,-0.041 -0.47,1.507 1.507,0 0,0 -1.25,-1.251 3.15,3.15 0,0 0,-0.471 -0.041A10.787,10.787 0,0 0,23.017 0h-0.256Z" fill="#10298D"/>
  <path d="M22.761,0.533h0.253l0.205,0.004c0.12,0.003 0.26,0.01 0.39,0.033 0.113,0.02 0.208,0.051 0.3,0.098a0.966,0.966 0,0 1,0.423 0.424c0.046,0.09 0.077,0.185 0.098,0.299 0.023,0.129 0.03,0.27 0.033,0.39 0.002,0.068 0.002,0.135 0.003,0.205v12.03l-0.003,0.204c-0.004,0.12 -0.01,0.26 -0.034,0.39a0.964,0.964 0,0 1,-0.521 0.722c-0.09,0.047 -0.186,0.078 -0.298,0.098 -0.133,0.024 -0.279,0.03 -0.389,0.033 -0.069,0.002 -0.137,0.003 -0.208,0.003H1.985c-0.07,0 -0.138,-0.001 -0.204,-0.003a2.709,2.709 0,0 1,-0.39 -0.033,1.05 1.05,0 0,1 -0.3,-0.098 0.958,0.958 0,0 1,-0.423 -0.423,1.047 1.047,0 0,1 -0.098,-0.3c-0.024,-0.13 -0.03,-0.27 -0.033,-0.39a9.968,9.968 0,0 1,-0.003 -0.204V1.985c0,-0.068 0,-0.136 0.003,-0.205 0.003,-0.119 0.01,-0.259 0.033,-0.39 0.02,-0.113 0.051,-0.208 0.098,-0.3A0.962,0.962 0,0 1,1.09 0.669c0.091,-0.047 0.186,-0.078 0.3,-0.098 0.13,-0.023 0.27,-0.03 0.39,-0.033l0.204,-0.003h20.776" fill="#10298D"/>
  <path d="M21.14,9.905h-2.064l-0.279,1.008h-1.596l1.722,-5.833h2.332L23,10.913h-1.564l-0.295,-1.008ZM20.833,8.769L20.11,6.24l-0.703,2.529h1.426ZM12.983,10.913L12.983,5.08h2.878c0.395,0 0.696,0.033 0.903,0.098 0.473,0.151 0.79,0.46 0.953,0.926 0.084,0.245 0.126,0.613 0.126,1.106 0,0.592 -0.046,1.016 -0.138,1.276 -0.185,0.511 -0.565,0.806 -1.138,0.883 -0.068,0.011 -0.355,0.021 -0.861,0.03l-0.257,0.009h-0.921v1.505h-1.544ZM14.528,8.054h0.963c0.305,-0.011 0.49,-0.035 0.558,-0.072 0.091,-0.051 0.152,-0.154 0.182,-0.307 0.02,-0.102 0.03,-0.253 0.03,-0.454 0,-0.247 -0.02,-0.43 -0.059,-0.55 -0.055,-0.167 -0.188,-0.269 -0.399,-0.306 -0.1,-0.008 -0.2,-0.01 -0.3,-0.008h-0.975v1.697ZM6.666,6.941L5.229,6.941c0,-0.24 -0.029,-0.4 -0.083,-0.482 -0.086,-0.122 -0.322,-0.182 -0.707,-0.182 -0.376,0 -0.625,0.035 -0.746,0.104 -0.121,0.07 -0.182,0.223 -0.182,0.458 0,0.212 0.054,0.352 0.161,0.419a0.677,0.677 0,0 0,0.307 0.084l0.29,0.02c0.388,0.024 0.776,0.054 1.163,0.089 0.492,0.05 0.847,0.183 1.068,0.398 0.174,0.167 0.278,0.388 0.311,0.658 0.02,0.162 0.028,0.345 0.028,0.55 0,0.469 -0.043,0.813 -0.131,1.031 -0.16,0.4 -0.52,0.652 -1.08,0.759 -0.234,0.044 -0.591,0.066 -1.074,0.066 -0.805,0 -1.366,-0.048 -1.683,-0.147 -0.387,-0.118 -0.644,-0.362 -0.768,-0.728C2.033,9.836 2,9.498 2,9.021h1.438v0.122c0,0.253 0.071,0.416 0.215,0.488a0.82,0.82 0,0 0,0.359 0.08h0.528c0.27,0 0.44,-0.014 0.516,-0.042a0.428,0.428 0,0 0,0.26 -0.255c0.021,-0.074 0.033,-0.167 0.033,-0.282 0,-0.256 -0.092,-0.412 -0.277,-0.469 -0.069,-0.022 -0.39,-0.053 -0.961,-0.092a11.565,11.565 0,0 1,-0.956 -0.096c-0.47,-0.09 -0.785,-0.274 -0.94,-0.553 -0.139,-0.237 -0.208,-0.596 -0.208,-1.076 0,-0.366 0.038,-0.66 0.112,-0.88a0.956,0.956 0,0 1,0.36 -0.503c0.241,-0.176 0.552,-0.279 0.93,-0.31 0.347,-0.029 0.695,-0.043 1.044,-0.042 0.603,0 1.033,0.035 1.29,0.105 0.625,0.171 0.937,0.65 0.937,1.435 0,0.065 -0.004,0.16 -0.014,0.29Z" fill="#fff" fill-rule="evenodd"/>
  <path d="M10.792,5.86c0.659,0 1.246,0.303 1.633,0.777l0.344,-0.736a3.022,3.022 0,0 0,-2.079 -0.821,2.992 2.992,0 0,0 -2.776,1.832h-0.671l-0.397,0.847h0.863a2.89,2.89 0,0 0,0.005 0.526h-0.435l-0.396,0.848h1.051a2.993,2.993 0,0 0,2.756 1.78,3.03 3.03,0 0,0 1.682,-0.505V9.37a2.105,2.105 0,0 1,-3.34 -0.236h2.2l0.396,-0.848h-2.92a2.162,2.162 0,0 1,-0.013 -0.526h3.179l0.396,-0.847h-3.3a2.106,2.106 0,0 1,1.822 -1.052Z" fill="#FFCC02" fill-rule="evenodd"/>
</svg>
