<svg width="16" height="16" viewBox="0 0 16 16" fill="none" xmlns="http://www.w3.org/2000/svg">
<g clip-path="url(#clip0_5888_1220)">
<g opacity="0.5">
<path d="M10.1927 10.8657L12.0023 14.3284C12.0975 14.4955 12.288 14.5433 12.4308 14.4239C13.1689 13.8985 13.8118 13.2538 14.3118 12.5373C14.407 12.394 14.3594 12.1791 14.2166 12.1075L10.788 10.2926C10.788 10.2926 10.788 10.2926 10.7642 10.2926C10.5975 10.4836 10.407 10.6985 10.1927 10.8657Z" fill="white"/>
<path d="M8.40703 11.6776L8.26418 15.4746C8.26418 15.6896 8.43084 15.8567 8.64513 15.8567C9.50227 15.7612 10.3118 15.5463 11.0975 15.212C11.3118 15.1164 11.3832 14.8538 11.2642 14.6866L9.24037 11.4866C9.24037 11.4866 9.24037 11.4627 9.21656 11.4627C8.95465 11.5582 8.69275 11.6299 8.43084 11.6776C8.40703 11.6538 8.40703 11.6538 8.40703 11.6776Z" fill="white"/>
<path d="M15.407 8.35823L11.5737 8.50152C11.5737 8.50152 11.5737 8.50152 11.5499 8.50152C11.5023 8.78808 11.4308 9.05077 11.3356 9.31346L11.3594 9.33734L14.5975 11.3911C14.7642 11.4866 14.9785 11.4388 15.0737 11.2478C15.4308 10.4358 15.6689 9.60002 15.7404 8.71644C15.7642 8.50152 15.5975 8.33435 15.407 8.35823Z" fill="white"/>
<path d="M4.97846 10.2687L1.52608 12.0836C1.35942 12.1791 1.3118 12.3702 1.43085 12.5135C1.95466 13.2538 2.59751 13.8985 3.3118 14.4C3.45465 14.4955 3.66894 14.4478 3.74037 14.3045L5.54989 10.8657C5.54989 10.8657 5.54989 10.8657 5.54989 10.8418C5.33561 10.6985 5.14513 10.4836 4.97846 10.2687Z" fill="white"/>
<path d="M6.50227 11.4388L4.47846 14.6388C4.35941 14.8299 4.43084 15.0926 4.64513 15.1642C5.43084 15.5224 6.24037 15.7373 7.09751 15.809C7.31179 15.8329 7.50227 15.6657 7.47846 15.4269L7.3356 11.6299C7.3356 11.606 7.3356 11.606 7.3356 11.5821C7.04989 11.5344 6.78799 11.4627 6.54989 11.3672C6.52608 11.4388 6.52608 11.4388 6.50227 11.4388Z" fill="white"/>
<path d="M4.16894 8.50179L0.335608 8.35851C0.145132 8.35851 -0.0215349 8.52567 0.0022746 8.71671C0.0737032 9.6003 0.311798 10.46 0.668941 11.2481C0.74037 11.4152 0.978465 11.4869 1.14513 11.3913L4.38323 9.31373L4.40704 9.28985C4.3118 9.05104 4.24037 8.78836 4.16894 8.50179C4.19275 8.50179 4.19275 8.50179 4.16894 8.50179Z" fill="white"/>
</g>
<g opacity="0.8">
<path d="M9.21657 4.41796L11.2404 1.21796C11.3594 1.02691 11.288 0.764227 11.0737 0.692585C10.288 0.334376 9.47847 0.119451 8.62133 0.0478087C8.40704 0.0239281 8.21657 0.191092 8.24038 0.429898L8.38323 4.22691V4.25079C8.69276 4.27467 8.95466 4.34632 9.21657 4.41796C9.21657 4.44184 9.21657 4.44184 9.21657 4.41796Z" fill="white"/>
<path d="M10.7642 5.58811L14.1928 3.77318C14.3594 3.67766 14.407 3.48661 14.288 3.34333C13.7642 2.60303 13.1213 1.95826 12.407 1.45676C12.2642 1.36124 12.0499 1.409 11.9785 1.55229L10.1689 4.99109C10.407 5.18214 10.5975 5.37318 10.7642 5.58811Z" fill="white"/>
<path d="M11.5499 7.37915L15.3832 7.52244C15.5737 7.52244 15.7404 7.35527 15.7166 7.16423C15.6451 6.28065 15.407 5.42094 15.0499 4.63288C14.9785 4.46572 14.7404 4.39408 14.5737 4.4896L11.3356 6.54333C11.3356 6.54333 11.3356 6.54333 11.3118 6.54333C11.4308 6.8299 11.5023 7.09259 11.5499 7.37915Z" fill="white"/>
<path d="M5.5499 5.01497L3.74037 1.55228C3.64514 1.38512 3.45466 1.33736 3.3118 1.45676C2.57371 1.98213 1.93085 2.62691 1.43085 3.34333C1.33561 3.48661 1.38323 3.70154 1.52609 3.77318L4.95466 5.58811C4.95466 5.58811 4.95466 5.58811 4.97847 5.58811C5.14514 5.39706 5.33561 5.18213 5.5499 5.01497Z" fill="white"/>
<path d="M7.3356 4.20303L7.47846 0.406016C7.47846 0.191091 7.31179 0.0239258 7.09751 0.0239258C6.24037 0.119448 5.43084 0.334374 4.64513 0.668702C4.43084 0.764224 4.35941 1.02691 4.47846 1.19408L6.50227 4.39408L6.52608 4.41796C6.78799 4.32243 7.04989 4.25079 7.3118 4.20303C7.3356 4.22691 7.3356 4.22691 7.3356 4.20303Z" fill="white"/>
<path d="M4.38323 6.54333L1.14513 4.48959C0.978465 4.39407 0.764179 4.44183 0.668941 4.63288C0.311798 5.44482 0.0737032 6.28064 0.0022746 7.16422C-0.0215349 7.35527 0.145132 7.52243 0.335608 7.52243L4.16894 7.37915C4.16894 7.37915 4.16894 7.37915 4.19275 7.37915C4.24037 7.09258 4.3118 6.82989 4.40704 6.56721C4.40704 6.56721 4.38323 6.56721 4.38323 6.54333Z" fill="white"/>
</g>
</g>
<defs>
<clipPath id="clip0_5888_1220">
<rect width="16" height="16" fill="white"/>
</clipPath>
</defs>
</svg>
