<svg xmlns="http://www.w3.org/2000/svg" width="16" height="16" viewBox="0 0 16 16">
  <g>
    <clipPath>
      <path d="M0,0h16v16h-16z"/>
    </clipPath>
    <path d="M10.193,10.866L12.002,14.328C12.097,14.495 12.288,14.543 12.431,14.424C13.169,13.899 13.812,13.254 14.312,12.537C14.407,12.394 14.359,12.179 14.217,12.108L10.788,10.293C10.788,10.293 10.788,10.293 10.764,10.293C10.597,10.484 10.407,10.698 10.193,10.866Z" fill="#3156DB"/>
    <path d="M8.407,11.678L8.264,15.475C8.264,15.69 8.431,15.857 8.645,15.857C9.502,15.761 10.312,15.546 11.097,15.212C11.312,15.116 11.383,14.854 11.264,14.687L9.24,11.487C9.24,11.487 9.24,11.463 9.217,11.463C8.955,11.558 8.693,11.63 8.431,11.678C8.407,11.654 8.407,11.654 8.407,11.678Z" fill="#3156DB"/>
    <path d="M15.407,8.358L11.574,8.502C11.574,8.502 11.574,8.502 11.55,8.502C11.502,8.788 11.431,9.051 11.336,9.313L11.359,9.337L14.597,11.391C14.764,11.487 14.979,11.439 15.074,11.248C15.431,10.436 15.669,9.6 15.74,8.716C15.764,8.502 15.597,8.334 15.407,8.358Z" fill="#3156DB"/>
    <path d="M4.978,10.269L1.526,12.084C1.359,12.179 1.312,12.37 1.431,12.514C1.955,13.254 2.598,13.899 3.312,14.4C3.455,14.495 3.669,14.448 3.74,14.304L5.55,10.866C5.55,10.866 5.55,10.866 5.55,10.842C5.336,10.698 5.145,10.484 4.978,10.269Z" fill="#3156DB"/>
    <path d="M6.502,11.439L4.478,14.639C4.359,14.83 4.431,15.093 4.645,15.164C5.431,15.522 6.24,15.737 7.098,15.809C7.312,15.833 7.502,15.666 7.478,15.427L7.336,11.63C7.336,11.606 7.336,11.606 7.336,11.582C7.05,11.534 6.788,11.463 6.55,11.367C6.526,11.439 6.526,11.439 6.502,11.439Z" fill="#3156DB"/>
    <path d="M4.169,8.502L0.336,8.358C0.145,8.358 -0.022,8.525 0.002,8.716C0.074,9.6 0.312,10.46 0.669,11.248C0.74,11.415 0.978,11.487 1.145,11.391L4.383,9.313L4.407,9.29C4.312,9.051 4.24,8.788 4.169,8.502C4.193,8.502 4.193,8.502 4.169,8.502Z" fill="#3156DB"/>
    <path d="M9.217,4.418L11.24,1.218C11.359,1.027 11.288,0.764 11.074,0.693C10.288,0.334 9.478,0.119 8.621,0.048C8.407,0.024 8.217,0.191 8.24,0.43L8.383,4.227V4.251C8.693,4.275 8.955,4.346 9.217,4.418C9.217,4.442 9.217,4.442 9.217,4.418Z" fill="#FF9E4E"/>
    <path d="M10.764,5.588L14.193,3.773C14.359,3.678 14.407,3.487 14.288,3.343C13.764,2.603 13.121,1.958 12.407,1.457C12.264,1.361 12.05,1.409 11.979,1.552L10.169,4.991C10.407,5.182 10.597,5.373 10.764,5.588Z" fill="#FF9E4E"/>
    <path d="M11.55,7.379L15.383,7.522C15.574,7.522 15.74,7.355 15.717,7.164C15.645,6.281 15.407,5.421 15.05,4.633C14.979,4.466 14.74,4.394 14.574,4.49L11.336,6.543C11.336,6.543 11.336,6.543 11.312,6.543C11.431,6.83 11.502,7.093 11.55,7.379Z" fill="#FF9E4E"/>
    <path d="M5.55,5.015L3.74,1.552C3.645,1.385 3.455,1.337 3.312,1.457C2.574,1.982 1.931,2.627 1.431,3.343C1.336,3.487 1.383,3.702 1.526,3.773L4.955,5.588C4.955,5.588 4.955,5.588 4.978,5.588C5.145,5.397 5.336,5.182 5.55,5.015Z" fill="#FF9E4E"/>
    <path d="M7.336,4.203L7.478,0.406C7.478,0.191 7.312,0.024 7.098,0.024C6.24,0.119 5.431,0.334 4.645,0.669C4.431,0.764 4.359,1.027 4.478,1.194L6.502,4.394L6.526,4.418C6.788,4.322 7.05,4.251 7.312,4.203C7.336,4.227 7.336,4.227 7.336,4.203Z" fill="#FF9E4E"/>
    <path d="M4.383,6.543L1.145,4.49C0.978,4.394 0.764,4.442 0.669,4.633C0.312,5.445 0.074,6.281 0.002,7.164C-0.022,7.355 0.145,7.522 0.336,7.522L4.169,7.379C4.169,7.379 4.169,7.379 4.193,7.379C4.24,7.093 4.312,6.83 4.407,6.567C4.407,6.567 4.383,6.567 4.383,6.543Z" fill="#FF9E4E"/>
  </g>
</svg>
