<svg xmlns="http://www.w3.org/2000/svg" width="22.50" height="20.00" viewBox="0 0 18 16">
  <path d="M0,2.75C0,1.2312 1.2312,0 2.75,0H10C14.4183,0 18,3.5817 18,8C18,12.4183 14.4183,16 10,16H2.75C1.2312,16 0,14.7688 0,13.25V2.75Z" fill="#ffffff" fill-rule="evenodd"/>
  <path d="M4.4332,7.5162C5.0479,7.5162 5.5463,7.0179 5.5463,6.4031C5.5463,5.7884 5.0479,5.29 4.4332,5.29C3.8184,5.29 3.3201,5.7884 3.3201,6.4031C3.3201,7.0179 3.8184,7.5162 4.4332,7.5162Z" fill="#000000"/>
  <path d="M5.2727,12.0043C4.3381,12.0043 3.5881,11.2483 3.5881,10.3198V9.0043C3.5881,8.54 3.9631,8.1591 4.4334,8.1591C4.8977,8.1591 5.2786,8.5341 5.2786,9.0043V12.0043H5.2727Z" fill="#000000"/>
  <path d="M1,2.75C1,1.7835 1.7835,1 2.75,1H10C13.866,1 17,4.134 17,8C17,11.866 13.866,15 10,15H2.75C1.7835,15 1,14.2165 1,13.25V2.75ZM2.75,2C2.3358,2 2,2.3358 2,2.75V13.25C2,13.6642 2.3358,14 2.75,14H10C13.3137,14 16,11.3137 16,8C16,4.6863 13.3137,2 10,2H2.75Z" fill="#000000" fill-rule="evenodd"/>
  <path d="M6.55,4.5608V12H9.7877C12.7275,12 14.0024,10.3395 14.0024,7.9912C14.0024,5.7437 12.7275,4 9.7877,4H7.1108C6.7998,4 6.55,4.2541 6.55,4.5608Z" fill="#E60073"/>
</svg>
