<svg
    xmlns="http://www.w3.org/2000/svg"
    viewBox="0 0 33 20"
    id="vector">
    <path
        id="path_1"
        d="M 2.933 0 L 30.933 0 C 31.463 0 31.972 0.211 32.347 0.586 C 32.722 0.961 32.933 1.47 32.933 2 L 32.933 18 C 32.933 18.53 32.722 19.039 32.347 19.414 C 31.972 19.789 31.463 20 30.933 20 L 2.933 20 C 2.403 20 1.894 19.789 1.519 19.414 C 1.144 19.039 0.933 18.53 0.933 18 L 0.933 2 C 0.933 1.47 1.144 0.961 1.519 0.586 C 1.894 0.211 2.403 0 2.933 0 Z"
        fill="#33ddb3"/>
    <path
        id="path_2"
        d="M 9.109 5.902 C 9.109 5.403 9.512 5 10.01 5 C 10.509 5 10.912 5.403 10.912 5.902 C 10.912 6.4 10.509 6.804 10.01 6.804 C 9.512 6.804 9.109 6.4 9.109 5.902 Z M 6 5.095 L 7.613 5.095 L 7.613 14.861 L 6 14.861 L 6 5.095 Z M 27.818 7.896 C 26.887 9.883 25.846 11.327 25.846 11.327 L 28.06 14.853 L 26.154 14.853 L 24.79 12.676 C 23.427 14.238 22.07 15 20.765 15 C 19.174 15 18.522 13.864 18.522 12.573 C 18.522 12.429 18.524 12.252 18.526 12.08 L 18.526 12.08 L 18.526 12.08 L 18.526 12.08 L 18.526 12.08 C 18.528 11.92 18.529 11.766 18.529 11.649 C 18.529 9.941 18.353 9.457 17.774 9.538 C 16.667 9.692 14.988 12.207 13.896 14.861 L 12.378 14.861 L 12.378 7.896 L 13.991 7.896 L 13.991 11.364 C 14.915 9.817 15.758 8.482 17.114 7.969 C 17.899 7.669 18.566 7.801 18.911 7.955 C 20.164 8.504 20.157 9.853 20.142 11.657 C 20.135 11.899 20.135 12.155 20.135 12.427 C 20.135 13.087 20.318 13.372 20.765 13.416 C 21.198 13.46 21.528 13.248 21.528 13.248 L 21.528 5.095 L 23.141 5.095 L 23.141 12.089 C 23.141 12.089 24.541 10.814 26.022 7.896 L 27.818 7.896 Z M 10.817 7.896 L 9.204 7.896 L 9.204 14.861 L 10.817 14.861 L 10.817 7.896 Z"
        fill="#1d3944"
        fill-rule="evenodd"/>
</svg>
