<svg
    xmlns="http://www.w3.org/2000/svg"
    viewBox="0 0 26 18"
    id="vector">
    <path
        id="path"
        d="M 0 2.503 C 0 1.121 1.117 0 2.493 0 L 23.507 0 C 24.884 0 26 1.126 26 2.503 L 26 15.497 C 26 16.879 24.883 18 23.507 18 L 2.493 18 C 1.116 18 0 16.874 0 15.497 L 0 2.503 Z M 25 10.903 L 24.998 10.904 L 23.792 9.296 C 24.355 9.181 24.665 8.798 24.665 8.213 C 24.665 7.498 24.172 7.087 23.31 7.087 L 22.202 7.087 L 22.202 10.902 L 22.95 10.902 L 22.95 9.369 L 23.047 9.369 L 24.08 10.903 L 25 10.903 Z M 23.898 8.253 L 23.898 8.253 C 23.898 8.636 23.646 8.843 23.168 8.843 L 22.951 8.843 L 22.951 7.686 L 23.179 7.686 C 23.646 7.686 23.898 7.88 23.898 8.253 Z M 19.594 7.087 L 19.592 7.087 L 19.592 10.903 L 21.711 10.903 L 21.711 10.256 L 20.339 10.256 L 20.339 9.225 L 21.658 9.225 L 21.658 8.579 L 20.339 8.579 L 20.339 7.733 L 21.711 7.733 L 21.711 7.087 L 19.594 7.087 Z M 17.199 11 L 17.6 11 L 19.254 7.087 L 18.445 7.087 L 17.411 9.649 L 16.389 7.087 L 15.574 7.087 L 17.199 11 Z M 13.686 10.989 L 13.686 10.989 C 14.823 10.989 15.721 10.116 15.721 8.999 C 15.721 7.887 14.829 7.014 13.686 7.014 C 12.559 7.014 11.645 7.893 11.645 8.976 C 11.645 10.128 12.52 10.989 13.686 10.989 Z M 10.425 10.989 L 10.427 10.988 C 10.748 10.988 11.024 10.924 11.362 10.766 L 11.362 9.89 C 11.063 10.187 10.799 10.307 10.46 10.307 C 9.709 10.307 9.174 9.764 9.174 8.99 C 9.174 8.258 9.725 7.68 10.426 7.68 C 10.782 7.68 11.052 7.806 11.362 8.109 L 11.362 7.233 C 11.034 7.068 10.764 7 10.443 7 C 9.312 7 8.405 7.887 8.405 8.996 C 8.405 10.118 9.289 10.989 10.425 10.989 Z M 8.17 9.741 L 8.169 9.741 C 8.169 9.134 7.917 8.86 7.068 8.55 C 6.619 8.384 6.488 8.275 6.488 8.07 C 6.488 7.83 6.722 7.646 7.044 7.646 C 7.268 7.646 7.452 7.738 7.648 7.954 L 8.038 7.446 C 7.716 7.165 7.332 7.022 6.912 7.022 C 6.236 7.022 5.719 7.492 5.719 8.115 C 5.719 8.642 5.961 8.911 6.661 9.163 C 6.953 9.266 7.103 9.334 7.177 9.381 C 7.327 9.478 7.402 9.615 7.402 9.775 C 7.402 10.084 7.155 10.313 6.821 10.313 C 6.465 10.313 6.178 10.136 6.006 9.804 L 5.523 10.268 C 5.868 10.771 6.281 10.995 6.849 10.995 C 7.624 10.995 8.17 10.48 8.17 9.741 Z M 4.496 7.087 L 4.496 10.903 L 5.242 10.903 L 5.242 7.087 L 4.496 7.087 Z M 2.092 10.903 L 2.092 10.903 C 2.671 10.903 3.09 10.766 3.457 10.462 C 3.893 10.102 4.152 9.558 4.152 8.996 C 4.152 7.87 3.308 7.087 2.098 7.087 L 1 7.087 L 1 10.903 L 2.092 10.903 Z M 2.97 8.041 L 2.97 8.04 C 3.228 8.269 3.381 8.624 3.381 8.99 C 3.381 9.357 3.228 9.724 2.97 9.952 C 2.734 10.164 2.43 10.256 1.948 10.256 L 1.748 10.256 L 1.748 7.732 L 1.948 7.732 C 2.43 7.732 2.722 7.818 2.97 8.041 Z"
        fill="#8e8e93"
        stroke="#00000000"
        stroke-width="1"/>
</svg>
