<svg xmlns="http://www.w3.org/2000/svg" width="20.00" height="20.00" viewBox="0 0 16 16">
  <path d="M7.674,0.075C7.88,-0.025 8.12,-0.025 8.326,0.075L15.435,3.506C15.78,3.673 16,4.023 16,4.407V6C16,6.552 15.552,7 15,7H13.5V11.786L15.447,12.76C15.786,12.929 16,13.276 16,13.655V15C16,15.552 15.552,16 15,16H1C0.448,16 0,15.552 0,15V13.655C0,13.275 0.216,12.927 0.557,12.759L2.527,11.785L2.504,7H1C0.448,7 0,6.552 0,6V4.407C0,4.023 0.22,3.673 0.565,3.506L7.674,0.075ZM12,12.25V7H10.5V12.25C10.5,12.664 10.164,13 9.75,13C9.336,13 9,12.664 9,12.25V7H7V12.25C7,12.664 6.664,13 6.25,13C5.836,13 5.5,12.664 5.5,12.25V7H4.004L4.029,12.246C4.03,12.533 3.868,12.795 3.611,12.922L1.5,13.966V14.5H14.5V13.964L12.415,12.921C12.16,12.794 12,12.534 12,12.25ZM14.5,5.5V4.721L8,1.583L1.5,4.721V5.5H14.5Z" fill="#FFFFFF" fill-rule="evenodd"/>
</svg>
