<svg width="125" height="24" viewBox="0 0 125 24" fill="none" xmlns="http://www.w3.org/2000/svg">
<path d="M12 24C18.6275 24 24 18.6274 24 12C24 5.37257 18.6275 0 12 0C5.37259 0 0 5.37257 0 12C0 18.6274 5.37259 24 12 24Z" fill="#00D66F"/>
<path d="M11.4479 4.80066H7.74707C8.46707 7.81026 10.5695 10.3831 13.1999 12.0007C10.5647 13.6183 8.46707 16.1911 7.74707 19.2007H11.4479C12.3647 16.4167 14.9039 13.9975 18.0239 13.5031V10.4935C14.8991 10.0039 12.3599 7.58466 11.4479 4.80066Z" fill="#011E0F"/>
<path d="M82.449 2.01094H86.0486V22.1703H82.449V2.01094Z" fill="white"/>
<path d="M88.6895 3.65325C88.6895 2.52577 89.64 1.60876 90.7581 1.60876C91.8762 1.60876 92.8267 2.52979 92.8267 3.65325C92.8267 4.77672 91.9097 5.72187 90.7581 5.72187C89.6065 5.72187 88.6895 4.80487 88.6895 3.65325Z" fill="white"/>
<path d="M92.4753 7.65643H88.8462V22.0563H92.4753V7.65643Z" fill="white"/>
<path d="M118.563 14.487C121.294 12.8072 123.152 10.3055 123.887 7.77171H120.258C119.313 10.1916 117.142 12.0095 114.757 12.783V2.01094H111.128V22.1716H114.757V16.1762C117.527 16.868 119.715 19.2624 120.464 22.1716H124.117C123.561 19.119 121.472 16.262 118.565 14.487H118.563Z" fill="white"/>
<path d="M98.9082 9.3697C99.8587 8.10681 101.711 7.37347 103.214 7.37347C106.018 7.37347 108.336 9.42332 108.341 12.5189V22.1528H104.712V13.3206C104.712 12.0483 104.145 10.5803 102.307 10.5803C100.147 10.5803 98.9028 12.4961 98.9028 14.7377V22.1635H95.2737V7.76628H98.9068V9.3697H98.9082Z" fill="white"/>
<path d="M50.9441 22.1152V7.73545H54.5679V9.61906C55.3092 8.53447 56.9931 7.50754 59.2467 7.50754C62.357 7.50754 64.5825 9.5051 64.5825 12.8715V22.1152H60.9587V13.641C60.9587 11.7869 59.846 10.6741 58.1916 10.6741C55.938 10.6741 54.5679 12.5859 54.5679 15.8665V22.1152H50.9441Z" fill="white"/>
<path d="M39.0057 22.3499C33.1417 22.3499 28.8235 18.0303 28.8235 12.11C28.8235 6.18975 33.1417 1.87152 39.0057 1.87152C44.8697 1.87152 49.1585 6.18975 49.1585 12.11C49.1585 18.0303 44.8107 22.3486 39.0057 22.3486V22.3499ZM39.0057 19.0318C42.6375 19.0318 45.2411 16.0864 45.2411 12.11C45.2411 8.13369 42.6389 5.18828 39.0057 5.18828C35.3726 5.18828 32.7141 8.13369 32.7141 12.11C32.7141 16.0864 35.3163 19.0318 39.0057 19.0318Z" fill="white"/>
<path d="M80.4349 15.6695C81.0637 11.0965 78.1773 7.46738 73.4904 7.46738C69.2325 7.46738 66.2307 10.5535 66.2307 14.8986C66.1061 18.9313 69.3759 22.4384 73.4863 22.3043C76.6114 22.362 79.6976 20.5065 80.3853 17.4177H76.85C75.4021 20.8095 69.8183 19.2584 69.7607 15.6708H80.4349V15.6695ZM73.4904 10.268C75.3485 10.268 76.606 11.3539 76.6918 13.0123H70.0328C70.49 11.24 71.7475 10.268 73.4917 10.268H73.4904Z" fill="white"/>
</svg>
