<svg xmlns="http://www.w3.org/2000/svg" width="16.00" height="16.00" viewBox="0 0 16 16">
  <path d="m4.867,6a2.227,2.227 45,0 1,1.16 -1.867c0.547,-0.4 0.72,-0.533 0.72,-0.88s-0.173,-0.587 -0.493,-0.587 -0.533,0.24 -0.587,0.573l-0.813,0a1.333,1.333 0,0 1,1.4 -1.24c1,0 1.333,0.6 1.333,1.187s-0.227,0.813 -0.92,1.36c-0.48,0.333 -0.667,0.56 -0.733,0.733l1.813,0l-0.107,0.72z" fill="#FF000000"/>
  <path d="m9.893,6l0,-0.88l-1.773,0l0,-0.747l1.627,-2.293l0.92,0l0,2.347l0.467,0l0,0.693l-0.467,0l0,0.88zM9.893,3.733c0,-0.427 0,-0.667 0,-0.92a17.107,17.107 0,0 1,-1.04 1.613l1.027,0z" fill="#FF000000"/>
  <path d="m12,1.333l0,5.333l-8,0l0,-5.333zM12,0l-8,0a1.333,1.333 0,0 0,-1.333 1.333l0,5.333a1.333,1.333 0,0 0,1.333 1.333l8,0a1.333,1.333 0,0 0,1.333 -1.333l0,-5.333a1.333,1.333 0,0 0,-1.333 -1.333z" fill="#FF000000"/>
  <path d="m10.667,10.667l0,4l-5.333,0l0,-4zM10.667,9.333l-5.333,0a1.333,1.333 0,0 0,-1.333 1.333l0,4a1.333,1.333 0,0 0,1.333 1.333l5.333,0a1.333,1.333 0,0 0,1.333 -1.333l0,-4a1.333,1.333 0,0 0,-1.333 -1.333z" fill="#FF000000"/>
  <path d="m7.333,10l1.333,0l0,5.187l-1.333,0z" fill="#FF000000"/>
  <path d="m1.093,5.333l2.707,0l0,2.667l-2.707,0z" fill="#FF000000"/>
  <path d="m1.093,2.667l2.52,0l0,1.36l-2.52,0z" fill="#FF000000"/>
  <path d="m12.413,2.667l2.52,0l0,1.36l-2.52,0z" fill="#FF000000"/>
  <path d="m12.133,5.333l2.987,0l0,2.667l-2.987,0z" fill="#FF000000"/>
  <path d="m14.667,1.333l-2.667,0l0,1.333l2.667,0l0,12l-13.333,0l0,-12l2.667,0l0,-1.333l-2.667,0a1.333,1.333 0,0 0,-1.333 1.333l0,12a1.333,1.333 0,0 0,1.333 1.333l13.333,0a1.333,1.333 0,0 0,1.333 -1.333l0,-12a1.333,1.333 0,0 0,-1.333 -1.333z" fill="#FF000000"/>
</svg>
