<svg xmlns="http://www.w3.org/2000/svg" width="52" height="33" viewBox="0 0 25 16">
  <g>
    <clipPath>
      <path d="M1,0L24,0A1,1 0,0 1,25 1L25,15A1,1 0,0 1,24 16L1,16A1,1 0,0 1,0 15L0,1A1,1 0,0 1,1 0z"/>
    </clipPath>
    <path d="M1,0L24,0A1,1 0,0 1,25 1L25,15A1,1 0,0 1,24 16L1,16A1,1 0,0 1,0 15L0,1A1,1 0,0 1,1 0z" fill="#ffffff"/>
    <path d="M24.038,0H0.962C0.43,0 0,0.434 0,0.97V15.03C0,15.566 0.43,16 0.962,16H24.038C24.569,16 25,15.566 25,15.03V0.97C25,0.434 24.569,0 24.038,0Z" fill="#00000000" stroke="#EAEAEA" stroke-width="1"/>
    <g>
      <clipPath>
        <path d="M22,2H3V14.806H22V2Z"/>
      </clipPath>
      <path d="M19.916,11.72C17.916,13.208 15.017,14 12.521,14C9.023,14 5.873,12.695 3.489,10.524C3.302,10.354 3.468,10.121 3.694,10.253C6.265,11.763 9.446,12.672 12.731,12.672C14.947,12.672 17.383,12.208 19.625,11.249C19.963,11.104 20.246,11.473 19.916,11.72ZM20.747,10.762C21.003,11.093 20.463,12.453 20.222,13.061C20.148,13.245 20.305,13.319 20.47,13.18C21.543,12.275 21.82,10.379 21.601,10.105C21.383,9.833 19.508,9.6 18.363,10.41C18.187,10.535 18.217,10.707 18.412,10.683C19.057,10.606 20.492,10.432 20.747,10.762Z" fill="#FF9900" fill-rule="evenodd"/>
      <path d="M17.852,8.621L19.934,3.279C19.977,3.171 20,3.095 20,3.05C20,2.974 19.955,2.936 19.867,2.936H19.337C19.236,2.936 19.167,2.952 19.129,2.983C19.091,3.016 19.053,3.085 19.015,3.194L17.738,6.895L16.414,3.194C16.376,3.085 16.339,3.016 16.301,2.983C16.263,2.952 16.193,2.936 16.092,2.936H15.525C15.436,2.936 15.392,2.974 15.392,3.05C15.392,3.095 15.414,3.171 15.458,3.279L17.284,7.82L17.104,8.306C16.997,8.612 16.877,8.822 16.745,8.936C16.612,9.051 16.426,9.108 16.187,9.108C16.079,9.108 15.994,9.101 15.932,9.088C15.869,9.076 15.821,9.069 15.79,9.069C15.695,9.069 15.648,9.13 15.648,9.25V9.498C15.648,9.587 15.663,9.653 15.695,9.694C15.726,9.735 15.777,9.766 15.847,9.784C16.004,9.828 16.184,9.851 16.386,9.851C16.745,9.851 17.037,9.756 17.261,9.565C17.485,9.375 17.682,9.06 17.852,8.621Z" fill="#232F3E" fill-rule="evenodd"/>
      <path d="M10.083,4.248C9.992,3.94 9.861,3.677 9.691,3.461C9.521,3.245 9.313,3.08 9.067,2.965C8.821,2.851 8.547,2.794 8.244,2.794C7.96,2.794 7.682,2.847 7.411,2.956C7.14,3.064 6.885,3.223 6.645,3.433L6.598,3.127C6.579,3 6.506,2.936 6.38,2.936H5.964C5.838,2.936 5.775,3 5.775,3.127V9.547C5.775,9.675 5.838,9.738 5.964,9.738H6.522C6.648,9.738 6.711,9.674 6.711,9.547V7.315C7.121,7.69 7.61,7.878 8.177,7.878C8.486,7.878 8.766,7.816 9.019,7.692C9.271,7.568 9.485,7.395 9.662,7.172C9.838,6.95 9.976,6.68 10.073,6.361C10.171,6.043 10.22,5.687 10.22,5.292C10.221,4.905 10.175,4.557 10.083,4.248ZM7.96,7.115C7.531,7.115 7.115,6.962 6.711,6.657V3.995C7.108,3.703 7.531,3.557 7.979,3.557C8.837,3.557 9.266,4.152 9.266,5.34C9.265,6.523 8.83,7.115 7.96,7.115Z" fill="#232F3E" fill-rule="evenodd"/>
      <path d="M14.349,3.168C14.065,2.921 13.623,2.797 13.025,2.797C12.728,2.797 12.432,2.824 12.136,2.877C11.839,2.932 11.59,3.003 11.388,3.092C11.313,3.124 11.262,3.157 11.236,3.192C11.211,3.227 11.198,3.289 11.198,3.378V3.635C11.198,3.75 11.239,3.807 11.321,3.807C11.347,3.807 11.374,3.802 11.402,3.793C11.431,3.783 11.455,3.776 11.473,3.769C11.959,3.623 12.422,3.549 12.864,3.549C13.242,3.549 13.507,3.619 13.658,3.76C13.81,3.9 13.885,4.141 13.885,4.484V5.114C13.444,5.006 13.047,4.952 12.693,4.952C12.138,4.952 11.697,5.09 11.369,5.367C11.041,5.643 10.877,6.014 10.877,6.478C10.877,6.911 11.009,7.255 11.274,7.513C11.539,7.771 11.899,7.899 12.353,7.899C12.624,7.899 12.896,7.845 13.171,7.737C13.445,7.629 13.696,7.476 13.923,7.279L13.97,7.594C13.989,7.715 14.059,7.775 14.179,7.775H14.585C14.711,7.775 14.775,7.711 14.775,7.584V4.323C14.774,3.801 14.632,3.416 14.349,3.168ZM13.885,6.698C13.677,6.857 13.46,6.978 13.233,7.061C13.006,7.144 12.788,7.185 12.58,7.185C12.334,7.185 12.145,7.12 12.012,6.989C11.88,6.859 11.814,6.673 11.814,6.431C11.814,5.878 12.17,5.601 12.883,5.601C13.047,5.601 13.215,5.613 13.388,5.635C13.562,5.657 13.728,5.688 13.885,5.725V6.698Z" fill="#232F3E" fill-rule="evenodd"/>
    </g>
  </g>
</svg>
