<svg width="25" height="16" viewBox="0 0 25 16" fill="none" xmlns="http://www.w3.org/2000/svg">
<g clip-path="url(#clip0_6080_1729)">
<rect width="25" height="16" rx="1" fill="white"/>
<path d="M24.0385 0H0.961538C0.430495 0 0 0.434148 0 0.969697V15.0303C0 15.5659 0.430495 16 0.961538 16H24.0385C24.5695 16 25 15.5659 25 15.0303V0.969697C25 0.434148 24.5695 0 24.0385 0Z" stroke="#EAEAEA"/>
<mask id="mask0_6080_1729" style="mask-type:luminance" maskUnits="userSpaceOnUse" x="3" y="2" width="19" height="13">
<path d="M22 2H3V14.8058H22V2Z" fill="white"/>
</mask>
<g mask="url(#mask0_6080_1729)">
<path fill-rule="evenodd" clip-rule="evenodd" d="M19.9156 11.7201C17.9161 13.2082 15.0175 13.9995 12.5213 13.9995C9.02283 13.9995 5.87257 12.6952 3.48882 10.5245C3.30169 10.354 3.46839 10.1213 3.69354 10.2535C6.26533 11.7627 9.44601 12.6718 12.7312 12.6718C14.9472 12.6718 17.3832 12.2081 19.6249 11.2492C19.9626 11.1041 20.2462 11.4734 19.9156 11.7201ZM20.7472 10.7621C21.0032 11.0926 20.4627 12.4534 20.2215 13.0612C20.1483 13.2451 20.305 13.3193 20.4703 13.18C21.5427 12.2752 21.8201 10.379 21.6007 10.105C21.3827 9.83343 19.5076 9.59965 18.363 10.4101C18.1868 10.5346 18.2172 10.707 18.4124 10.6831C19.0569 10.6055 20.4917 10.4316 20.7472 10.7621Z" fill="#FF9900"/>
<path fill-rule="evenodd" clip-rule="evenodd" d="M17.8524 8.62089L19.9336 3.27894C19.9773 3.17069 19.9996 3.09454 19.9996 3.04999C19.9996 2.97384 19.9554 2.93552 19.8671 2.93552H19.3375C19.2363 2.93552 19.1675 2.9518 19.129 2.98341C19.091 3.0155 19.0535 3.08543 19.0155 3.19368L17.7384 6.89466L16.4143 3.19368C16.3763 3.08543 16.3387 3.0155 16.3008 2.98341C16.2628 2.9518 16.1934 2.93552 16.0922 2.93552H15.5247C15.4364 2.93552 15.3922 2.97384 15.3922 3.04999C15.3922 3.09454 15.4141 3.17069 15.4582 3.27894L17.2839 7.81955L17.1044 8.30621C16.997 8.6118 16.8773 8.82157 16.7448 8.93603C16.6123 9.05054 16.4261 9.10755 16.1868 9.10755C16.0794 9.10755 15.9944 9.10082 15.9317 9.08834C15.8686 9.07591 15.821 9.06919 15.7897 9.06919C15.6952 9.06919 15.6477 9.12958 15.6477 9.25026V9.49839C15.6477 9.58743 15.6634 9.65257 15.6952 9.69381C15.7265 9.73499 15.7769 9.76561 15.8467 9.78431C16.0039 9.82838 16.1839 9.85137 16.3858 9.85137C16.7453 9.85137 17.0369 9.75607 17.2606 9.56494C17.4853 9.37477 17.6824 9.05964 17.8524 8.62089Z" fill="#232F3E"/>
<path fill-rule="evenodd" clip-rule="evenodd" d="M10.0834 4.24833C9.99179 3.93987 9.8612 3.6774 9.69068 3.46138C9.52065 3.24537 9.31265 3.07964 9.06661 2.96517C8.82107 2.85069 8.54657 2.7937 8.24355 2.7937C7.95998 2.7937 7.68217 2.84734 7.41142 2.95559C7.14023 3.06384 6.88472 3.22286 6.64489 3.43264L6.59789 3.12706C6.57884 3.00014 6.50619 2.93643 6.37986 2.93643H5.96379C5.83797 2.93643 5.77478 3.00014 5.77478 3.12706V9.54717C5.77478 9.67457 5.83797 9.73779 5.96379 9.73779H6.52187C6.6482 9.73779 6.71088 9.67412 6.71088 9.54717V7.31519C7.12079 7.69021 7.60951 7.87794 8.17706 7.87794C8.48573 7.87794 8.76645 7.81568 9.01865 7.69213C9.2708 7.56806 9.48502 7.39468 9.66171 7.17197C9.8384 6.94972 9.97565 6.67961 10.073 6.36109C10.1708 6.04301 10.2197 5.68669 10.2197 5.29246C10.2207 4.90502 10.1746 4.55677 10.0834 4.24833ZM7.95998 7.11451C7.53063 7.11451 7.11462 6.9622 6.71139 6.65662V3.99543C7.10841 3.70278 7.53114 3.5567 7.97897 3.5567C8.83675 3.5567 9.26559 4.15158 9.26559 5.34037C9.26514 6.52345 8.83009 7.11451 7.95998 7.11451Z" fill="#232F3E"/>
<path fill-rule="evenodd" clip-rule="evenodd" d="M14.3488 3.16822C14.0647 2.92059 13.6235 2.79654 13.0246 2.79654C12.7283 2.79654 12.4319 2.82384 12.1356 2.87749C11.8387 2.93161 11.5898 3.00298 11.388 3.09206C11.3125 3.12415 11.2616 3.1572 11.2365 3.19217C11.2113 3.22713 11.1985 3.2894 11.1985 3.37801V3.63522C11.1985 3.74969 11.2394 3.80717 11.3215 3.80717C11.3467 3.80717 11.3737 3.80238 11.4023 3.7928C11.4307 3.78322 11.4545 3.77556 11.473 3.76885C11.9589 3.62276 12.4219 3.54948 12.8636 3.54948C13.2417 3.54948 13.5067 3.61941 13.6582 3.75975C13.8097 3.89961 13.8852 4.14101 13.8852 4.48441V5.11377C13.444 5.00552 13.0465 4.95191 12.6931 4.95191C12.1384 4.95191 11.6972 5.09032 11.369 5.3667C11.0413 5.64308 10.877 6.01381 10.877 6.47792C10.877 6.9109 11.0094 7.25525 11.2745 7.51298C11.539 7.77066 11.8985 7.89902 12.3526 7.89902C12.6238 7.89902 12.8964 7.8449 13.1709 7.7371C13.4454 7.62936 13.6957 7.47609 13.9227 7.2792L13.9702 7.59388C13.9892 7.71462 14.0586 7.77495 14.1788 7.77495H14.5853C14.7112 7.77495 14.7748 7.71123 14.7748 7.58434V4.32254C14.7743 3.80094 14.6323 3.41633 14.3488 3.16822ZM13.8852 6.69825C13.6772 6.85723 13.4597 6.97797 13.2327 7.06079C13.0056 7.14367 12.7881 7.18485 12.5801 7.18485C12.334 7.18485 12.145 7.11971 12.0125 6.98943C11.88 6.85916 11.814 6.67334 11.814 6.43142C11.814 5.87822 12.1702 5.60139 12.8826 5.60139C13.0465 5.60139 13.2151 5.61291 13.3884 5.63489C13.5618 5.65743 13.7276 5.6876 13.8852 5.72545V6.69825Z" fill="#232F3E"/>
</g>
</g>
<defs>
<clipPath id="clip0_6080_1729">
<rect width="25" height="16" rx="1" fill="white"/>
</clipPath>
</defs>
</svg>
