<svg width="125" height="24" viewBox="0 0 125 24" fill="none" xmlns="http://www.w3.org/2000/svg">
<g clip-path="url(#clip0_15196_6177)">
<path d="M12 0C18.6275 0 24 5.37257 24 12C24 18.6274 18.6275 24 12 24C5.37259 24 0 18.6274 0 12C0 5.37257 5.37259 0 12 0ZM7.74707 4.80078C8.4671 7.81033 10.5698 10.3834 13.2002 12.001C10.565 13.6186 8.46707 16.1916 7.74707 19.2012H11.4482C12.365 16.4173 14.9036 13.9975 18.0234 13.5029V10.4932C14.8989 10.0034 12.3603 7.58454 11.4482 4.80078H7.74707Z" fill="#011E0F"/>
<path d="M82.4492 2.01099H86.0488V22.1703H82.4492V2.01099Z" fill="#011E0F"/>
<path d="M88.6895 3.65325C88.6895 2.52577 89.64 1.60876 90.7581 1.60876C91.8762 1.60876 92.8267 2.52979 92.8267 3.65325C92.8267 4.77672 91.9097 5.72187 90.7581 5.72187C89.6065 5.72187 88.6895 4.80487 88.6895 3.65325Z" fill="#011E0F"/>
<path d="M92.4758 7.65637H88.8467V22.0562H92.4758V7.65637Z" fill="#011E0F"/>
<path d="M118.563 14.487C121.294 12.8072 123.152 10.3055 123.887 7.77176H120.258C119.313 10.1916 117.142 12.0095 114.757 12.783V2.01099H111.128V22.1716H114.757V16.1762C117.527 16.868 119.715 19.2624 120.464 22.1716H124.117C123.561 19.119 121.472 16.262 118.565 14.487H118.563Z" fill="#011E0F"/>
<path d="M98.9079 9.36964C99.8584 8.10675 101.711 7.37341 103.214 7.37341C106.018 7.37341 108.336 9.42326 108.341 12.5188V22.1527H104.712V13.3205C104.712 12.0482 104.145 10.5802 102.307 10.5802C100.147 10.5802 98.9025 12.496 98.9025 14.7376V22.1634H95.2734V7.76622H98.9065V9.36964H98.9079Z" fill="#011E0F"/>
<path d="M50.9443 22.1152V7.73548H54.5681V9.61909C55.3094 8.5345 56.9933 7.50757 59.2469 7.50757C62.3572 7.50757 64.5827 9.50513 64.5827 12.8715V22.1152H60.9589V13.641C60.9589 11.7869 59.8462 10.6741 58.1918 10.6741C55.9382 10.6741 54.5681 12.5859 54.5681 15.8665V22.1152H50.9443Z" fill="#011E0F"/>
<path d="M39.0054 22.3498C33.1414 22.3498 28.8232 18.0302 28.8232 12.1099C28.8232 6.18969 33.1414 1.87146 39.0054 1.87146C44.8694 1.87146 49.1582 6.18969 49.1582 12.1099C49.1582 18.0302 44.8104 22.3485 39.0054 22.3485V22.3498ZM39.0054 19.0317C42.6372 19.0317 45.2408 16.0863 45.2408 12.1099C45.2408 8.13363 42.6386 5.18822 39.0054 5.18822C35.3723 5.18822 32.7138 8.13363 32.7138 12.1099C32.7138 16.0863 35.316 19.0317 39.0054 19.0317Z" fill="#011E0F"/>
<path d="M80.4352 15.6695C81.064 11.0965 78.1776 7.46741 73.4907 7.46741C69.2328 7.46741 66.231 10.5535 66.231 14.8986C66.1064 18.9313 69.3762 22.4384 73.4866 22.3043C76.6117 22.362 79.6979 20.5065 80.3856 17.4177H76.8503C75.4024 20.8095 69.8186 19.2584 69.761 15.6708H80.4352V15.6695ZM73.4907 10.268C75.3488 10.268 76.6063 11.3539 76.6921 13.0123H70.0331C70.4903 11.24 71.7478 10.268 73.492 10.268H73.4907Z" fill="#011E0F"/>
</g>
<defs>
<clipPath id="clip0_15196_6177">
<rect width="125" height="24" fill="white"/>
</clipPath>
</defs>
</svg>
