<svg width="12" height="12" viewBox="0 0 12 12" fill="none" xmlns="http://www.w3.org/2000/svg">
<path fill-rule="evenodd" clip-rule="evenodd" d="M0.975001 7.87468C0.991113 7.63299 1.0944 7.40537 1.26568 7.23409L7.43933 1.06043C8.02512 0.474647 8.97487 0.474647 9.56065 1.06043L10.9393 2.43911C11.5251 3.0249 11.5251 3.97465 10.9393 4.56043L4.76568 10.7341C4.5944 10.9054 4.36678 11.0087 4.12509 11.0248L1.03508 11.2308C0.884155 11.2408 0.758938 11.1156 0.769 10.9647L0.975001 7.87468ZM2.3607 9.63906L2.45918 8.16191L6.53031 4.09078L7.90899 5.46946L3.83786 9.54059L2.3607 9.63906ZM8.96965 4.4088L9.87867 3.49977L8.49999 2.12109L7.59097 3.03012L8.96965 4.4088Z" fill="#171717"/>
</svg>
