<svg fill="none" height="20" viewBox="0 0 20 20" width="20" xmlns="http://www.w3.org/2000/svg"><path clip-rule="evenodd" d="m6.625 9.4375v7.3125h1.6875v-7.3125h3.375v7.3125h1.6875v-7.3125h3.375v7.3125h1.1248c.6213 0 1.125.5037 1.125 1.125v1.125h-17.99961v-1.125c0-.6213.50368-1.125 1.125-1.125h1.12481v-7.3125zm3.375-8.4375c5.2662 2.89337 8.0786 4.44361 8.4373 4.65072.5381.31066.7224.9987.4118 1.53678-.212.36727-.5999.56974-.9959.5625h-15.70644c-.39597.00724-.78382-.19523-.99585-.5625-.310657-.53808-.1263-1.22612.41176-1.53678.35872-.20711 3.17116-1.75735 8.43733-4.65072z" fill="#000" fill-rule="evenodd"/></svg>