<svg width="683" height="164" viewBox="0 0 683 164" fill="none" xmlns="http://www.w3.org/2000/svg">
<path fill-rule="evenodd" clip-rule="evenodd" d="M454.942 0C441.175 0 430.015 11.1602 430.015 24.927V138.295C430.015 152.062 441.175 163.222 454.942 163.222H658.072C671.839 163.222 682.999 152.062 682.999 138.295V24.927C682.999 11.1602 671.839 0 658.072 0H454.942ZM490.023 113.902V85.1661H508.1C524.616 85.1661 533.399 75.9057 533.399 61.872C533.399 47.8383 524.616 39.4371 508.1 39.4371H478.376V113.902H490.023ZM490.023 50.5114H505.427C516.119 50.5114 521.37 54.9029 521.37 62.2539C521.37 69.6049 516.31 73.9964 505.904 73.9964H490.023V50.5114ZM553.933 115.429C562.811 115.429 568.635 111.515 571.308 104.832C572.072 112.279 576.559 116.098 586.296 113.52L586.392 105.596C582.477 105.978 581.714 104.546 581.714 100.441V80.9655C581.714 69.5094 574.172 62.7312 560.234 62.7312C546.486 62.7312 538.562 69.6049 538.562 81.2519H549.255C549.255 75.7148 553.169 72.3734 560.043 72.3734C567.298 72.3734 570.64 75.5239 570.544 80.9655V83.4477L558.229 84.7842C544.386 86.3117 536.749 91.5624 536.749 100.727C536.749 108.269 542.095 115.429 553.933 115.429ZM556.319 106.837C550.305 106.837 547.918 103.591 547.918 100.345C547.918 95.9539 552.883 93.9491 562.62 92.8035L570.258 91.9443C569.78 100.345 564.148 106.837 556.319 106.837ZM621.754 117.625C616.886 129.463 609.057 132.995 596.837 132.995H591.587V123.258H597.219C603.902 123.258 607.148 121.157 610.68 115.143L589.009 64.2587H601.038L616.504 101.396L630.251 64.2587H641.994L621.754 117.625Z" fill="white"/>
<path d="M57.3946 71.7445C41.4473 68.2852 34.3428 66.9315 34.3428 60.7862C34.3428 55.0063 39.1507 52.127 48.7663 52.127C57.2229 52.127 63.4044 55.8228 67.9546 63.0638C68.298 63.6225 69.0063 63.8159 69.5858 63.5151L87.5293 54.4476C88.1732 54.1253 88.4093 53.3088 88.0444 52.6857C80.5966 39.7721 66.8385 32.7029 48.7234 32.7029C24.9204 32.7029 10.1321 44.4347 10.1321 63.0853C10.1321 82.8962 28.1399 87.9027 44.1087 91.3621C60.0775 94.8215 67.2034 96.1751 67.2034 102.32C67.2034 108.466 62.0092 111.366 51.6424 111.366C42.0697 111.366 34.9653 106.983 30.6726 98.4742C30.3506 97.8511 29.5994 97.5933 28.977 97.9156L11.0765 106.79C10.454 107.112 10.1965 107.864 10.5184 108.509C17.6228 122.797 32.1965 130.833 51.6639 130.833C76.4541 130.833 91.4356 119.295 91.4356 100.064C91.4356 80.8335 73.3419 75.2469 57.3946 71.7875V71.7445Z" fill="white"/>
<path d="M153.551 32.7032C143.377 32.7032 134.384 36.3129 127.924 42.7375C127.516 43.1243 126.85 42.845 126.85 42.2863V1.26785C126.85 0.558781 126.292 0.00012207 125.584 0.00012207H103.133C102.425 0.00012207 101.867 0.558781 101.867 1.26785V128.578C101.867 129.287 102.425 129.845 103.133 129.845H125.584C126.292 129.845 126.85 129.287 126.85 128.578V72.7332C126.85 61.9468 135.114 53.6743 146.253 53.6743C157.393 53.6743 165.463 61.7749 165.463 72.7332V128.578C165.463 129.287 166.021 129.845 166.729 129.845H189.18C189.889 129.845 190.447 129.287 190.447 128.578V72.7332C190.447 49.2695 175.079 32.7246 153.551 32.7246V32.7032Z" fill="white"/>
<path d="M235.991 29.0505C223.8 29.0505 212.381 32.7893 204.182 38.1825C203.624 38.5477 203.431 39.2998 203.774 39.8799L213.669 56.7901C214.034 57.3917 214.806 57.6066 215.407 57.2413C221.632 53.4811 228.758 51.5258 236.034 51.5688C255.63 51.5688 270.032 65.4063 270.032 83.6917C270.032 99.2697 258.506 110.808 243.889 110.808C231.977 110.808 223.714 103.868 223.714 94.0698C223.714 88.4618 226.096 83.8636 232.299 80.619C232.943 80.2753 233.179 79.4802 232.793 78.8571L223.456 63.0428C223.156 62.5271 222.512 62.2907 221.932 62.5056C209.419 67.1468 200.641 78.3199 200.641 93.3178C200.641 116.008 218.691 132.94 243.868 132.94C273.273 132.94 294.414 112.549 294.414 83.3049C294.414 51.9556 269.817 29.0505 235.991 29.0505Z" fill="white"/>
<path d="M360.069 32.5311C348.715 32.5311 338.584 36.7211 331.179 44.1126C330.771 44.5208 330.106 44.22 330.106 43.6613V34.7658C330.106 34.0567 329.548 33.498 328.84 33.498H306.968C306.26 33.498 305.702 34.0567 305.702 34.7658V161.882C305.702 162.591 306.26 163.15 306.968 163.15H329.419C330.127 163.15 330.685 162.591 330.685 161.882V120.198C330.685 119.639 331.351 119.36 331.759 119.725C339.142 126.601 348.908 130.619 360.09 130.619C386.426 130.619 406.966 109.282 406.966 81.5642C406.966 53.8461 386.404 32.5096 360.09 32.5096L360.069 32.5311ZM355.841 109.089C340.859 109.089 329.505 97.1637 329.505 81.3923C329.505 65.6209 340.838 53.6957 355.841 53.6957C370.843 53.6957 382.155 65.4275 382.155 81.3923C382.155 97.357 370.994 109.089 355.819 109.089H355.841Z" fill="white"/>
</svg>
