<svg xmlns="http://www.w3.org/2000/svg" width="24.00" height="7.25" viewBox="0 0 53 16">
  <path d="M34.98,4.21c-1.019,0.327 -1.612,0.67 -2.221,1.282 -2.538,2.556 -1.546,7.013 1.823,8.188 0.949,0.332 1.822,0.406 2.609,0.221 2.023,-0.473 3.447,-1.968 3.882,-4.075 0.27,-1.313 -0.216,-3.028 -1.174,-4.14 -0.235,-0.272 -0.497,-0.495 -0.581,-0.495 -0.085,0 -0.779,0.872 -1.542,1.937s-1.444,1.918 -1.513,1.896c-0.068,-0.023 -0.422,-0.39 -0.786,-0.818 -0.364,-0.427 -0.726,-0.792 -0.804,-0.812 -0.169,-0.042 -0.79,0.729 -0.79,0.98 0,0.25 2.319,3.007 2.484,2.954 0.075,-0.024 0.757,-0.91 1.515,-1.971 0.758,-1.06 1.45,-1.944 1.537,-1.963 0.533,-0.12 0.68,2.183 0.202,3.158 -0.338,0.688 -1.161,1.54 -1.76,1.823 -2.467,1.161 -5.316,-0.646 -5.316,-3.373 0,-1.838 1.277,-3.336 3.14,-3.684 0.525,-0.098 0.83,-0.07 1.916,0.172 0.318,0.07 0.394,0.034 0.58,-0.279 0.347,-0.587 0.282,-0.69 -0.614,-0.97 -0.991,-0.311 -1.688,-0.32 -2.586,-0.032ZM0.082,4.787C0.037,4.832 0,6.738 0,9.023v4.154h2.186l0.035,-1.483 0.034,-1.482 1.28,-0.06c1.437,-0.068 1.833,-0.218 2.41,-0.912 1.187,-1.43 0.65,-3.656 -1.054,-4.362 -0.301,-0.125 -0.989,-0.17 -2.57,-0.17 -1.187,0 -2.195,0.036 -2.24,0.08ZM10.232,4.962c-0.079,0.146 -0.404,0.952 -0.722,1.79a1139.82,1139.82 0,0 1,-2.38 6.212c-0.078,0.191 0.01,0.212 0.909,0.212h0.995l0.298,-0.67 0.298,-0.668 1.614,0.033 1.613,0.034 0.23,0.635 0.23,0.636h1.034c0.936,0 1.025,-0.02 0.947,-0.212a134.49,134.49 0,0 1,-0.548 -1.422,669.215 669.215,0 0,0 -2.3,-5.928l-0.337,-0.847 -0.869,-0.036c-0.789,-0.032 -0.882,-0.01 -1.012,0.23ZM14.482,5.337c0.201,0.352 0.837,1.475 1.413,2.496l1.048,1.856v3.487h2.072L19.015,9.763l1.402,-2.483c0.77,-1.366 1.401,-2.503 1.401,-2.528 0,-0.025 -0.513,-0.045 -1.14,-0.045h-1.14l-0.531,1.18c-0.676,1.502 -0.882,1.877 -1.029,1.874 -0.064,-0.002 -0.428,-0.676 -0.808,-1.498l-0.692,-1.495 -1.18,-0.035 -1.182,-0.035 0.366,0.64ZM22.915,8.937v4.239h1.95v-2.541c0,-1.51 0.047,-2.541 0.115,-2.541 0.063,0 0.807,1.143 1.653,2.54l1.537,2.542h2.058v-8.48l-0.944,0.035 -0.945,0.036 -0.033,2.338c-0.025,1.783 -0.069,2.327 -0.183,2.289 -0.082,-0.027 -0.79,-1.08 -1.573,-2.338l-1.422,-2.29 -1.107,-0.034 -1.106,-0.035v4.24ZM40.999,4.973c0.04,0.153 0.749,2.047 1.574,4.21l1.5,3.932L45.885,13.115l0.387,-1.072c0.41,-1.135 0.583,-1.412 0.76,-1.22 0.058,0.063 0.285,0.618 0.504,1.233l0.398,1.12 0.867,-0.004 0.867,-0.004 1.645,-4.121C52.218,6.78 52.977,4.877 53,4.817c0.023,-0.06 -0.45,-0.11 -1.052,-0.11h-1.093l-0.704,1.966c-1.127,3.15 -1.216,3.376 -1.34,3.398 -0.065,0.011 -0.29,-0.473 -0.5,-1.075L47.928,7.9l0.523,-1.544c0.38,-1.122 0.481,-1.56 0.371,-1.602 -0.083,-0.032 -0.58,-0.042 -1.104,-0.022l-0.953,0.036 -0.814,2.632c-0.448,1.448 -0.839,2.656 -0.868,2.685 -0.16,0.159 -0.377,-0.352 -1.155,-2.716l-0.856,-2.601 -1.074,-0.035c-1.067,-0.035 -1.073,-0.034 -1,0.242ZM4.188,6.72c0.453,0.45 0.438,1.037 -0.04,1.511 -0.336,0.333 -0.419,0.357 -1.128,0.323l-0.765,-0.036 -0.036,-0.896c-0.02,-0.493 -0.008,-0.969 0.026,-1.058 0.044,-0.113 0.302,-0.163 0.843,-0.163 0.68,0 0.82,0.041 1.1,0.319ZM11.748,8.656c0.239,0.708 0.405,1.334 0.37,1.391 -0.086,0.137 -1.724,0.136 -1.809,0 -0.05,-0.082 0.34,-1.455 0.721,-2.527 0.128,-0.36 0.31,-0.07 0.718,1.136Z" fill="#9E1791" fill-rule="evenodd"/>
</svg>
