<svg fill="none" viewBox="0 0 53 16" xmlns="http://www.w3.org/2000/svg" role="presentation" focusable="false">
  <path fill-rule="evenodd" clip-rule="evenodd"
    d="M34.98 4.21c-1.019.327-1.612.67-2.221 1.282-2.538 2.556-1.546 7.013 1.823 8.188.949.332 1.822.406 2.609.221 2.023-.473 3.447-1.968 3.882-4.075.27-1.313-.216-3.028-1.174-4.14-.235-.272-.497-.495-.581-.495-.085 0-.779.872-1.542 1.937s-1.444 1.918-1.513 1.896c-.068-.023-.422-.39-.786-.818-.364-.427-.726-.792-.804-.812-.169-.042-.79.729-.79.98 0 .25 2.319 3.007 2.484 2.954.075-.024.757-.91 1.515-1.971.758-1.06 1.45-1.944 1.537-1.963.533-.12.68 2.183.202 3.158-.338.688-1.161 1.54-1.76 1.823-2.467 1.161-5.316-.646-5.316-3.373 0-1.838 1.277-3.336 3.14-3.684.525-.098.83-.07 1.916.172.318.07.394.034.58-.279.347-.587.282-.69-.614-.97-.991-.311-1.688-.32-2.586-.032ZM.082 4.787C.037 4.832 0 6.738 0 9.023v4.154h2.186l.035-1.483.034-1.482 1.28-.06c1.437-.068 1.833-.218 2.41-.912 1.187-1.43.65-3.656-1.054-4.362-.301-.125-.989-.17-2.57-.17-1.187 0-2.195.036-2.24.08Zm10.15.175c-.079.146-.404.952-.722 1.79a1139.82 1139.82 0 0 1-2.38 6.212c-.078.191.01.212.909.212h.995l.298-.67.298-.668 1.614.033 1.613.034.23.635.23.636h1.034c.936 0 1.025-.02.947-.212a134.49 134.49 0 0 1-.548-1.422 669.215 669.215 0 0 0-2.3-5.928l-.337-.847-.869-.036c-.789-.032-.882-.01-1.012.23Zm4.25.375c.201.352.837 1.475 1.413 2.496l1.048 1.856v3.487h2.072V9.763l1.402-2.483c.77-1.366 1.401-2.503 1.401-2.528 0-.025-.513-.045-1.14-.045h-1.14l-.531 1.18c-.676 1.502-.882 1.877-1.029 1.874-.064-.002-.428-.676-.808-1.498l-.692-1.495-1.18-.035-1.182-.035.366.64Zm8.433 3.6v4.239h1.95v-2.541c0-1.51.047-2.541.115-2.541.063 0 .807 1.143 1.653 2.54l1.537 2.542h2.058v-8.48l-.944.035-.945.036-.033 2.338c-.025 1.783-.069 2.327-.183 2.289-.082-.027-.79-1.08-1.573-2.338l-1.422-2.29-1.107-.034-1.106-.035v4.24Zm18.084-3.964c.04.153.749 2.047 1.574 4.21l1.5 3.932H45.885l.387-1.072c.41-1.135.583-1.412.76-1.22.058.063.285.618.504 1.233l.398 1.12.867-.004.867-.004 1.645-4.121C52.218 6.78 52.977 4.877 53 4.817c.023-.06-.45-.11-1.052-.11h-1.093l-.704 1.966c-1.127 3.15-1.216 3.376-1.34 3.398-.065.011-.29-.473-.5-1.075L47.928 7.9l.523-1.544c.38-1.122.481-1.56.371-1.602-.083-.032-.58-.042-1.104-.022l-.953.036-.814 2.632c-.448 1.448-.839 2.656-.868 2.685-.16.159-.377-.352-1.155-2.716l-.856-2.601-1.074-.035c-1.067-.035-1.073-.034-1 .242ZM4.188 6.72c.453.45.438 1.037-.04 1.511-.336.333-.419.357-1.128.323l-.765-.036-.036-.896c-.02-.493-.008-.969.026-1.058.044-.113.302-.163.843-.163.68 0 .82.041 1.1.319Zm7.56 1.936c.239.708.405 1.334.37 1.391-.086.137-1.724.136-1.809 0-.05-.082.34-1.455.721-2.527.128-.36.31-.07.718 1.136Z"
    fill="#fff" />
</svg>