<svg width="56" height="40" viewBox="0 0 56 40" fill="none" xmlns="http://www.w3.org/2000/svg">
<path d="M43.597 8H12.4031C12.2732 8 12.143 8 12.0133 8.00076C11.9037 8.00154 11.7943 8.00275 11.685 8.00574C11.4464 8.01218 11.2058 8.02625 10.9703 8.06856C10.731 8.1116 10.5083 8.18181 10.291 8.29235C10.0775 8.4009 9.88194 8.54288 9.71249 8.7123C9.54297 8.88172 9.40091 9.07681 9.29232 9.29049C9.18168 9.50761 9.11139 9.73024 9.06862 9.96959C9.02605 10.2051 9.01189 10.4455 9.00546 10.6836C9.00252 10.7929 9.00126 10.9022 9.00055 11.0115C8.99979 11.1414 9.00004 11.2712 9.00004 11.4013V28.9117C9.00004 29.0418 8.99979 29.1714 9.00055 29.3015C9.00126 29.4108 9.00252 29.5201 9.00546 29.6294C9.01189 29.8674 9.02605 30.1077 9.06862 30.3431C9.11139 30.5826 9.18168 30.8051 9.29232 31.0223C9.40091 31.236 9.54297 31.4313 9.71249 31.6005C9.88194 31.7702 10.0775 31.9121 10.291 32.0204C10.5083 32.1312 10.731 32.2015 10.9703 32.2445C11.2058 32.2865 11.4464 32.3008 11.685 32.3073C11.7943 32.3098 11.9037 32.3112 12.0133 32.3117C12.143 32.3127 12.2732 32.3127 12.4031 32.3127H43.597C43.7267 32.3127 43.8568 32.3127 43.9865 32.3117C44.0958 32.3112 44.2052 32.3098 44.3151 32.3073C44.5531 32.3008 44.7936 32.2865 45.0298 32.2445C45.2688 32.2015 45.4915 32.1312 45.7088 32.0204C45.9226 31.9121 46.1175 31.7702 46.2873 31.6005C46.4566 31.4313 46.5986 31.236 46.7075 31.0223C46.8184 30.8051 46.8886 30.5826 46.9312 30.3431C46.9738 30.1077 46.9876 29.8674 46.994 29.6294C46.997 29.5201 46.9985 29.4108 46.999 29.3015C47 29.1714 47 29.0418 47 28.9117V11.4013C47 11.2712 47 11.1414 46.999 11.0115C46.9985 10.9022 46.997 10.7929 46.994 10.6836C46.9876 10.4455 46.9738 10.2051 46.9312 9.96959C46.8886 9.73024 46.8184 9.50761 46.7075 9.29049C46.5986 9.07681 46.4566 8.88172 46.2873 8.7123C46.1175 8.54288 45.9226 8.4009 45.7088 8.29235C45.4915 8.18181 45.2688 8.1116 45.0298 8.06856C44.7936 8.02625 44.5531 8.01218 44.3151 8.00574C44.2052 8.00275 44.0958 8.00154 43.9865 8.00076C43.8568 8 43.7267 8 43.597 8Z" fill="black"/>
<path d="M43.597 8.81104L43.9807 8.81177C44.0847 8.8125 44.1886 8.81363 44.2932 8.81647C44.475 8.82139 44.6877 8.83123 44.886 8.86676C45.0583 8.89779 45.2028 8.94498 45.3416 9.01557C45.4785 9.08514 45.604 9.1763 45.7135 9.28566C45.8235 9.39576 45.9148 9.52139 45.9853 9.65981C46.0555 9.7974 46.1024 9.94121 46.1333 10.1148C46.1687 10.3108 46.1785 10.524 46.1835 10.7069C46.1863 10.8102 46.1877 10.9134 46.1882 11.0191C46.1892 11.1469 46.1892 11.2746 46.1892 11.4027V28.9184C46.1892 29.0464 46.1892 29.1739 46.1882 29.3045C46.1877 29.4077 46.1863 29.5109 46.1835 29.6144C46.1785 29.797 46.1687 30.0101 46.1328 30.2084C46.1024 30.3796 46.0555 30.5234 45.9849 30.6617C45.9146 30.7998 45.8235 30.9253 45.714 31.0347C45.6038 31.1449 45.4787 31.2357 45.3402 31.306C45.2025 31.3762 45.0582 31.4233 44.8876 31.4541C44.6853 31.4901 44.4637 31.5 44.2968 31.5045C44.1918 31.5069 44.0873 31.5083 43.9802 31.5088C43.8526 31.5098 43.7246 31.5098 43.597 31.5098H12.4031C12.4014 31.5098 12.3997 31.5098 12.398 31.5098C12.2719 31.5098 12.1455 31.5098 12.0171 31.5088C11.9124 31.5083 11.8079 31.5069 11.7069 31.5046C11.5362 31.5 11.3144 31.4901 11.1138 31.4543C10.9417 31.4233 10.7974 31.3762 10.6579 31.305C10.5206 31.2354 10.3957 31.1447 10.2855 31.0343C10.1761 30.9251 10.0852 30.8 10.0149 30.6617C9.94457 30.5236 9.89751 30.3793 9.86657 30.2061C9.83079 30.0081 9.82097 29.7959 9.81606 29.6145C9.81325 29.5107 9.81208 29.4068 9.81142 29.3036L9.81091 28.9988L9.81094 28.9184V11.4027L9.81091 11.3222L9.8114 11.0181C9.81208 10.9143 9.81325 10.8104 9.81606 10.7067C9.82097 10.5251 9.83079 10.3128 9.86686 10.1131C9.89753 9.94148 9.94457 9.79721 10.0153 9.65838C10.085 9.52116 10.1761 9.39589 10.286 9.28601C10.3955 9.17648 10.5209 9.08544 10.659 9.01521C10.797 8.94495 10.9416 8.89779 11.1137 8.86683C11.312 8.83121 11.5249 8.82139 11.7071 8.81645C11.811 8.81363 11.9149 8.8125 12.0181 8.81179L12.4031 8.81104H43.597Z" fill="white"/>
<path d="M19.3738 16.1802C19.6991 15.7733 19.9199 15.2268 19.8617 14.6685C19.3854 14.6921 18.8042 14.9827 18.4677 15.39C18.1655 15.7387 17.8981 16.3081 17.9678 16.843C18.5025 16.8894 19.0367 16.5758 19.3738 16.1802Z" fill="black"/>
<path d="M19.8556 16.9474C19.0791 16.9012 18.4189 17.388 18.0481 17.388C17.6771 17.388 17.1093 16.9707 16.4952 16.982C15.6958 16.9937 14.9541 17.4455 14.5485 18.1641C13.7142 19.6017 14.3283 21.7341 15.1397 22.9049C15.5337 23.4841 16.0085 24.1219 16.6342 24.099C17.2253 24.0758 17.457 23.7163 18.1756 23.7163C18.8936 23.7163 19.1023 24.099 19.7281 24.0874C20.377 24.0758 20.7828 23.5079 21.1767 22.9281C21.6287 22.2678 21.8138 21.6302 21.8254 21.5952C21.8138 21.5836 20.5741 21.1082 20.5626 19.6826C20.5509 18.4889 21.5359 17.9211 21.5822 17.8859C21.026 17.0635 20.1569 16.9707 19.8556 16.9474Z" fill="black"/>
<path d="M26.6163 15.3315C28.3039 15.3315 29.4791 16.4945 29.4791 18.1876C29.4791 19.8868 28.2797 21.0558 26.574 21.0558H24.7055V24.0264H23.3555V15.3315H26.6163V15.3315ZM24.7055 19.923H26.2545C27.4299 19.923 28.0988 19.2904 28.0988 18.1937C28.0988 17.0971 27.4299 16.4704 26.2606 16.4704H24.7055V19.923Z" fill="black"/>
<path d="M29.8318 22.2255C29.8318 21.1167 30.6816 20.4359 32.1886 20.3515L33.9243 20.2491V19.7611C33.9243 19.0561 33.4481 18.6343 32.6527 18.6343C31.8991 18.6343 31.429 18.9957 31.3146 19.5622H30.085C30.1573 18.4173 31.1337 17.5737 32.7008 17.5737C34.2378 17.5737 35.2202 18.3872 35.2202 19.6586V24.0271H33.9725V22.9847H33.9425C33.5749 23.6897 32.7731 24.1355 31.9414 24.1355C30.6998 24.1355 29.8318 23.3643 29.8318 22.2255ZM33.9243 21.6531V21.153L32.3632 21.2493C31.5857 21.3036 31.1457 21.6471 31.1457 22.1894C31.1457 22.7436 31.6038 23.1052 32.303 23.1052C33.2131 23.1052 33.9243 22.4785 33.9243 21.6531Z" fill="black"/>
<path d="M36.3981 26.3588V25.3043C36.4944 25.3284 36.7113 25.3284 36.8199 25.3284C37.4226 25.3284 37.7481 25.0753 37.9469 24.4246C37.9469 24.4125 38.0615 24.039 38.0615 24.0329L35.7712 17.688H37.1815L38.7849 22.8459H38.8089L40.4123 17.688H41.7865L39.4115 24.3582C38.8693 25.8948 38.2424 26.3889 36.9285 26.3889C36.8199 26.3889 36.4944 26.3768 36.3981 26.3588Z" fill="black"/>
</svg>
