<svg fill="none" height="36" viewBox="8 18 34 0.001" width="56" xmlns="http://www.w3.org/2000/svg"><path d="M38.926 7.143H10.726q-0.147 0.002 -0.293 0.005c-0.213 0.005 -0.429 0.018 -0.638 0.056 -0.213 0.038 -0.413 0.101 -0.606 0.199a2.054 2.054 0 0 0 -0.892 0.891 2.143 2.143 0 0 0 -0.199 0.607 4.464 4.464 0 0 0 -0.057 0.637q-0.003 0.146 -0.004 0.292l-0.001 0.348v15.982l0.004 0.293c0.006 0.212 0.019 0.428 0.057 0.637a2.143 2.143 0 0 0 0.199 0.607 2.027 2.027 0 0 0 0.892 0.89c0.194 0.099 0.393 0.162 0.607 0.2 0.21 0.038 0.424 0.051 0.637 0.056q0.147 0.004 0.293 0.004h28.548q0.146 0 0.293 -0.004c0.212 -0.005 0.428 -0.018 0.638 -0.056 0.213 -0.038 0.413 -0.101 0.606 -0.2a2.027 2.027 0 0 0 0.892 -0.891c0.098 -0.194 0.161 -0.393 0.199 -0.606 0.038 -0.21 0.051 -0.425 0.056 -0.637q0.004 -0.146 0.004 -0.293l0.001 -0.348v-15.634l-0.001 -0.348q0 -0.146 -0.004 -0.292a4.464 4.464 0 0 0 -0.056 -0.637 2.043 2.043 0 0 0 -1.697 -1.697 4.464 4.464 0 0 0 -0.638 -0.056L39.274 7.143z" fill="#000"/><path d="M38.926 7.867h0.343l0.279 0.004c0.163 0.004 0.353 0.013 0.529 0.045 0.154 0.029 0.283 0.071 0.407 0.134a1.313 1.313 0 0 1 0.574 0.575c0.063 0.122 0.104 0.251 0.132 0.406 0.032 0.175 0.04 0.365 0.045 0.529q0.004 0.138 0.004 0.279l0.001 0.343v15.983q-0.002 0.139 -0.005 0.277a3.571 3.571 0 0 1 -0.045 0.53c-0.027 0.154 -0.07 0.281 -0.132 0.405a1.313 1.313 0 0 1 -0.576 0.575c-0.123 0.063 -0.252 0.104 -0.404 0.132a3.571 3.571 0 0 1 -0.528 0.045q-0.14 0.004 -0.283 0.004H10.73q-0.143 0 -0.278 -0.004a3.571 3.571 0 0 1 -0.529 -0.045 1.429 1.429 0 0 1 -0.407 -0.134 1.295 1.295 0 0 1 -0.574 -0.574 1.429 1.429 0 0 1 -0.132 -0.407 3.571 3.571 0 0 1 -0.045 -0.529l-0.005 -0.277V9.838q0.001 -0.139 0.004 -0.278c0.004 -0.163 0.013 -0.352 0.045 -0.53 0.029 -0.154 0.071 -0.282 0.134 -0.406a1.304 1.304 0 0 1 0.574 -0.574c0.123 -0.063 0.253 -0.104 0.406 -0.132a3.571 3.571 0 0 1 0.529 -0.045q0.139 -0.004 0.278 -0.004l0.344 -0.001z" fill="#fff"/><g fill="#000"><path d="M17.298 14.446c0.29 -0.363 0.488 -0.851 0.436 -1.35 -0.426 0.021 -0.945 0.281 -1.245 0.645 -0.27 0.312 -0.509 0.82 -0.446 1.297 0.478 0.041 0.954 -0.238 1.255 -0.592"/><path d="M17.729 15.131c-0.694 -0.041 -1.283 0.394 -1.614 0.394 -0.33 0 -0.838 -0.372 -1.387 -0.363a2.045 2.045 0 0 0 -1.738 1.055c-0.745 1.284 -0.196 3.188 0.529 4.232 0.352 0.518 0.775 1.088 1.334 1.067 0.528 -0.021 0.735 -0.342 1.377 -0.342 0.641 0 0.827 0.342 1.386 0.331 0.579 -0.01 0.942 -0.518 1.294 -1.035 0.404 -0.589 0.569 -1.159 0.579 -1.19 -0.01 -0.01 -1.116 -0.435 -1.127 -1.707 -0.011 -1.066 0.869 -1.573 0.911 -1.604 -0.497 -0.735 -1.273 -0.817 -1.542 -0.838"/><path d="M23.764 13.689c1.507 0 2.556 1.038 2.556 2.55 0 1.517 -1.071 2.561 -2.594 2.561h-1.669v2.652h-1.205v-7.763zm-1.705 4.099h1.383c1.049 0 1.646 -0.565 1.646 -1.545s-0.598 -1.538 -1.641 -1.538h-1.388z"/><path d="M26.636 19.845c0 -0.991 0.759 -1.598 2.104 -1.673l1.549 -0.092v-0.436c0 -0.629 -0.425 -1.006 -1.135 -1.006 -0.673 0 -1.093 0.323 -1.195 0.829h-1.098c0.064 -1.022 0.937 -1.775 2.336 -1.775 1.372 0 2.25 0.726 2.25 1.862v3.9h-1.114v-0.93h-0.027c-0.329 0.629 -1.045 1.027 -1.787 1.027 -1.108 0 -1.884 -0.688 -1.884 -1.705m3.654 -0.512v-0.446l-1.393 0.086c-0.695 0.049 -1.088 0.355 -1.088 0.839 0 0.496 0.409 0.818 1.033 0.818 0.813 0 1.447 -0.559 1.447 -1.296"/><path d="M32.498 23.535v-0.942c0.086 0.021 0.279 0.021 0.377 0.021 0.538 0 0.829 -0.226 1.006 -0.806 0 -0.012 0.102 -0.345 0.102 -0.35l-2.045 -5.665h1.259l1.432 4.605h0.021l1.431 -4.605h1.228l-2.121 5.955c-0.485 1.372 -1.045 1.813 -2.217 1.813 -0.098 0 -0.388 -0.01 -0.473 -0.027"/></g></svg>