<svg
    xmlns="http://www.w3.org/2000/svg"
    viewBox="0 0 26 18"
    id="vector">
    <path
        id="path"
        d="M 0 2.503 C 0 1.121 1.117 0 2.493 0 L 23.507 0 C 24.884 0 26 1.126 26 2.503 L 26 15.497 C 26 16.879 24.883 18 23.507 18 L 2.493 18 C 1.116 18 0 16.874 0 15.497 L 0 2.503 Z M 13.788 15 C 17.035 15.016 20 12.325 20 9.052 C 20 5.473 17.035 2.999 13.788 3 L 10.992 3 C 7.705 2.999 5 5.474 5 9.052 C 5 12.326 7.705 15.016 10.992 15 L 13.788 15 Z M 11.005 3.496 C 14.01 3.497 16.444 5.955 16.444 8.989 C 16.444 12.023 14.01 14.481 11.005 14.482 C 8.002 14.481 5.568 12.023 5.568 8.989 C 5.568 5.955 8.002 3.497 11.005 3.496 Z M 7.559 8.989 C 7.561 10.472 8.478 11.736 9.771 12.238 L 9.771 5.74 C 8.478 6.242 7.561 7.507 7.559 8.989 Z M 12.239 12.239 C 13.533 11.737 14.451 10.473 14.453 8.989 C 14.451 7.506 13.533 6.241 12.239 5.74 L 12.239 12.239 Z"
        fill="#8e8e93"
        stroke="#00000000"
        stroke-width="1"/>
</svg>
