<svg width="16" height="16" viewBox="0 0 16 16" fill="none" role="presentation" focusable="false"
  xmlns="http://www.w3.org/2000/svg">
  <path d="M8 16A8 8 0 1 0 8 0a8 8 0 0 0 0 16Z" fill="#B2FCE4" />
  <path
    d="m12.563 5.187-1.477-.845-1.498-.859c-.99-.567-2.228.146-2.228 1.29v.192a.29.29 0 0 0 .15.256l.695.397a.288.288 0 0 0 .431-.252V4.91c0-.226.243-.367.44-.256l1.366.786 1.362.78a.293.293 0 0 1 0 .509l-1.362.781-1.366.786a.294.294 0 0 1-.44-.257v-.226c0-1.144-1.238-1.861-2.228-1.29l-1.494.863-1.478.846a1.49 1.49 0 0 0 0 2.582l1.478.845 1.498.859c.99.567 2.228-.146 2.228-1.29v-.192a.29.29 0 0 0-.15-.256l-.695-.397a.288.288 0 0 0-.431.252v.457a.294.294 0 0 1-.44.256l-1.366-.786-1.362-.78a.293.293 0 0 1 0-.509l1.362-.781 1.366-.786c.197-.11.44.03.44.257v.226c0 1.144 1.238 1.861 2.228 1.289l1.499-.858 1.477-.845c.99-.577.99-2.015-.005-2.587Z"
    fill="#000" />
</svg>