<svg width="32" height="32" viewBox="0 0 32 32" fill="none" xmlns="http://www.w3.org/2000/svg">
<g clip-path="url(#clip0_7025_17780)">
<rect width="32" height="32" fill="#F0F5F7"/>
<g clip-path="url(#clip1_7025_17780)">
<path d="M15.958 23.5893C20.379 19.7998 26.5896 16.1156 30.0001 14.7893C29.4738 14.4524 28.6527 13.9682 27.7264 13.4419C23.3264 14.8945 18.1896 18.1156 13.6001 21.7577C14.379 22.3472 15.2001 22.9577 15.958 23.5893Z" fill="#E31837"/>
<path d="M13.9368 13.2943C13.2842 12.9785 12.5684 12.6838 12.0211 12.4312C10.3579 13.2522 8.18948 14.4943 5.45264 16.4522C6.04211 16.768 6.67369 17.1469 7.34737 17.5259C9.45264 15.968 11.579 14.4943 13.9368 13.2943Z" fill="#012169"/>
<path d="M17.8739 11.4837C17.0739 11.0416 14.295 10.01 12.3792 9.56787C11.8107 9.7784 11.0107 10.0942 10.4634 10.3258C11.1581 10.5152 13.7476 11.21 15.9581 12.3258C16.5265 12.0521 17.3265 11.7152 17.8739 11.4837Z" fill="#E31837"/>
<path d="M8.46316 11.21C6 12.3468 3.41053 13.9047 2 14.81C2.50526 15.0415 3.01053 15.231 3.70526 15.5679C6.82105 13.4626 9.26316 12.1784 10.2316 11.7573C9.53684 11.5047 8.88421 11.3363 8.46316 11.21Z" fill="#012169"/>
<path d="M19.7261 10.8312C20.2945 10.6417 20.9472 10.4733 21.5156 10.3049C19.8735 9.61016 17.8103 8.87331 15.9577 8.41016C15.663 8.49437 14.7787 8.72595 14.1682 8.91542C14.7998 9.10489 16.884 9.5891 19.7261 10.8312ZM9.34717 18.747C10.0209 19.147 10.7366 19.6944 11.4314 20.1575C16.0419 16.5786 20.5893 13.8207 25.5787 12.2628C24.884 11.9049 24.2735 11.5891 23.4945 11.2102C20.5051 11.9681 15.3893 14.0102 9.34717 18.747Z" fill="#E31837"/>
</g>
</g>
<defs>
<clipPath id="clip0_7025_17780">
<rect width="32" height="32" fill="white"/>
</clipPath>
<clipPath id="clip1_7025_17780">
<rect width="28" height="15.1789" fill="white" transform="translate(2 8.41016)"/>
</clipPath>
</defs>
</svg>
