<svg width="32" height="32" viewBox="0 0 32 32" fill="none" xmlns="http://www.w3.org/2000/svg">
<rect width="32" height="32" fill="#F0F5F7"/>
<g clip-path="url(#clip0_19_744)">
<path fill-rule="evenodd" clip-rule="evenodd" d="M12.923 12.2084C13.7126 12.5437 14.4928 12.904 15.2634 13.2874C12.8095 14.3595 10.4391 15.6285 8.17802 17.0818C7.4126 16.6503 6.63613 16.2426 5.84863 15.8598C8.10652 14.4455 10.4711 13.2223 12.923 12.2084Z" fill="#0067B1"/>
<path fill-rule="evenodd" clip-rule="evenodd" d="M10.0012 11.0983C7.45256 11.9664 5.00015 13.1019 2.67603 14.4794C3.41727 14.7678 4.15167 15.0749 4.87556 15.4034C7.12767 13.9778 9.50805 12.7784 11.9846 11.825C11.3296 11.566 10.6672 11.324 10.0012 11.0983Z" fill="#0067B1"/>
<path fill-rule="evenodd" clip-rule="evenodd" d="M18.242 12.1015C16.2402 11.0599 14.1621 10.1828 12.0251 9.48274C11.2733 9.71572 10.5284 9.96963 9.78979 10.2462C11.9904 10.9468 14.1295 11.834 16.1897 12.8955C16.8668 12.6161 17.5518 12.3503 18.242 12.1015Z" fill="#E31836"/>
<path fill-rule="evenodd" clip-rule="evenodd" d="M21.5083 11.0542C19.4602 10.0929 17.3416 9.28878 15.1773 8.64865C14.4876 8.8019 13.8026 8.97324 13.1223 9.16098C15.2719 9.83561 17.3621 10.6912 19.3782 11.7096C20.0831 11.475 20.7934 11.2561 21.5083 11.0542Z" fill="#E31836"/>
<path fill-rule="evenodd" clip-rule="evenodd" d="M26.7527 12.9492C21.6139 14.8125 16.7995 17.4663 12.4441 20.7886C13.5333 21.5079 14.5937 22.2713 15.6304 23.0754C19.7356 19.5728 24.2929 16.6548 29.1977 14.4381C28.3976 13.9162 27.5796 13.4202 26.7527 12.9492Z" fill="#E31836"/>
<path fill-rule="evenodd" clip-rule="evenodd" d="M23.2189 11.143C17.8762 12.6631 12.8531 15.1156 8.32471 18.3456C9.34509 18.8857 10.3471 19.4619 11.3286 20.0755C15.7665 16.7708 20.6913 14.1978 25.9441 12.5008C25.0483 12.0178 24.1394 11.5632 23.2189 11.143Z" fill="#E31836"/>
</g>
<defs>
<clipPath id="clip0_19_744">
<rect width="26.5217" height="14.4267" fill="white" transform="translate(2.67603 8.64865)"/>
</clipPath>
</defs>
</svg>
